Roman_opsz7.ufo
<glyph name="exclam" format="2">
	<unicode hex="0021"/>
	<advance width="646"/>
	<outline>
		<contour>
			<point x="324" y="388" type="curve" smooth="yes"/>
			<point x="350" y="388"/>
			<point x="356" y="392"/>
			<point x="360" y="434" type="curve" smooth="yes"/>
			<point x="386" y="728"/>
			<point x="412" y="1023"/>
			<point x="438" y="1318" type="curve"/>
			<point x="438" y="1390"/>
			<point x="376" y="1428"/>
			<point x="324" y="1428" type="curve" smooth="yes"/>
			<point x="266" y="1428"/>
			<point x="208" y="1386"/>
			<point x="208" y="1318" type="curve"/>
			<point x="234" y="1024"/>
			<point x="260" y="731"/>
			<point x="286" y="436" type="curve" smooth="yes"/>
			<point x="290" y="392"/>
			<point x="296" y="388"/>
		</contour>
		<contour>
			<point x="322" y="0" type="curve" smooth="yes"/>
			<point x="388" y="0"/>
			<point x="438" y="50"/>
			<point x="438" y="116" type="curve" smooth="yes"/>
			<point x="438" y="178"/>
			<point x="386" y="230"/>
			<point x="324" y="230" type="curve" smooth="yes"/>
			<point x="254" y="230"/>
			<point x="208" y="174"/>
			<point x="208" y="116" type="curve" smooth="yes"/>
			<point x="208" y="46"/>
			<point x="264" y="0"/>
		</contour>
	</outline>
</glyph>
<glyph name="numbersign" format="2">
	<unicode hex="0023"/>
	<advance width="1876"/>
	<outline>
		<contour>
			<point x="436" y="-388" type="curve" smooth="yes"/>
			<point x="472" y="-388"/>
			<point x="480" y="-358"/>
			<point x="488" y="-332" type="curve" smooth="yes"/>
			<point x="656" y="232" type="line"/>
			<point x="1056" y="232" type="line"/>
			<point x="1003" y="54"/>
			<point x="949" y="-124"/>
			<point x="896" y="-302" type="curve" smooth="yes"/>
			<point x="892" y="-314"/>
			<point x="888" y="-328"/>
			<point x="888" y="-340" type="curve" smooth="yes"/>
			<point x="888" y="-364"/>
			<point x="908" y="-388"/>
			<point x="938" y="-388" type="curve" smooth="yes"/>
			<point x="974" y="-388"/>
			<point x="982" y="-358"/>
			<point x="990" y="-332" type="curve" smooth="yes"/>
			<point x="1158" y="232" type="line"/>
			<point x="1660" y="232" type="line" smooth="yes"/>
			<point x="1686" y="232"/>
			<point x="1734" y="232"/>
			<point x="1734" y="280" type="curve" smooth="yes"/>
			<point x="1734" y="330"/>
			<point x="1688" y="330"/>
			<point x="1658" y="330" type="curve" smooth="yes"/>
			<point x="1188" y="330" type="line"/>
			<point x="1290" y="672" type="line"/>
			<point x="1658" y="672" type="line" smooth="yes"/>
			<point x="1688" y="672"/>
			<point x="1734" y="672"/>
			<point x="1734" y="722" type="curve" smooth="yes"/>
			<point x="1734" y="770"/>
			<point x="1686" y="770"/>
			<point x="1660" y="770" type="curve" smooth="yes"/>
			<point x="1320" y="770" type="line"/>
			<point x="1480" y="1302" type="line" smooth="yes"/>
			<point x="1484" y="1314"/>
			<point x="1488" y="1328"/>
			<point x="1488" y="1340" type="curve" smooth="yes"/>
			<point x="1488" y="1364"/>
			<point x="1468" y="1388"/>
			<point x="1438" y="1388" type="curve" smooth="yes"/>
			<point x="1402" y="1388"/>
			<point x="1394" y="1358"/>
			<point x="1386" y="1332" type="curve" smooth="yes"/>
			<point x="1218" y="770" type="line"/>
			<point x="818" y="770" type="line"/>
			<point x="978" y="1302" type="line" smooth="yes"/>
			<point x="982" y="1314"/>
			<point x="986" y="1328"/>
			<point x="986" y="1340" type="curve" smooth="yes"/>
			<point x="986" y="1364"/>
			<point x="966" y="1388"/>
			<point x="936" y="1388" type="curve" smooth="yes"/>
			<point x="900" y="1388"/>
			<point x="892" y="1358"/>
			<point x="884" y="1332" type="curve" smooth="yes"/>
			<point x="716" y="770" type="line"/>
			<point x="214" y="770" type="line" smooth="yes"/>
			<point x="188" y="770"/>
			<point x="140" y="770"/>
			<point x="140" y="722" type="curve" smooth="yes"/>
			<point x="140" y="672"/>
			<point x="186" y="672"/>
			<point x="216" y="672" type="curve" smooth="yes"/>
			<point x="686" y="672" type="line"/>
			<point x="584" y="330" type="line"/>
			<point x="216" y="330" type="line" smooth="yes"/>
			<point x="186" y="330"/>
			<point x="140" y="330"/>
			<point x="140" y="280" type="curve" smooth="yes"/>
			<point x="140" y="232"/>
			<point x="188" y="232"/>
			<point x="214" y="232" type="curve" smooth="yes"/>
			<point x="554" y="232" type="line"/>
			<point x="501" y="54"/>
			<point x="447" y="-124"/>
			<point x="394" y="-302" type="curve" smooth="yes"/>
			<point x="390" y="-314"/>
			<point x="386" y="-328"/>
			<point x="386" y="-340" type="curve" smooth="yes"/>
			<point x="386" y="-364"/>
			<point x="406" y="-388"/>
		</contour>
		<contour>
			<point x="686" y="330" type="line"/>
			<point x="788" y="672" type="line"/>
			<point x="1188" y="672" type="line"/>
			<point x="1086" y="330" type="line"/>
		</contour>
	</outline>
</glyph>
<glyph name="percent" format="2">
	<unicode hex="0025"/>
	<advance width="1876"/>
	<outline>
		<contour>
			<point x="1530" y="1406" type="line" smooth="yes"/>
			<point x="1550" y="1432"/>
			<point x="1550" y="1444"/>
			<point x="1550" y="1450" type="curve" smooth="yes"/>
			<point x="1550" y="1484"/>
			<point x="1522" y="1500"/>
			<point x="1502" y="1500" type="curve" smooth="yes"/>
			<point x="1496" y="1500"/>
			<point x="1478" y="1500"/>
			<point x="1460" y="1480" type="curve"/>
			<point x="1416" y="1424"/>
			<point x="1296" y="1278"/>
			<point x="1042" y="1278" type="curve" smooth="yes"/>
			<point x="898" y="1278"/>
			<point x="756" y="1324"/>
			<point x="614" y="1440" type="curve" smooth="yes"/>
			<point x="564" y="1482"/>
			<point x="520" y="1500"/>
			<point x="462" y="1500" type="curve" smooth="yes"/>
			<point x="296" y="1500"/>
			<point x="140" y="1332"/>
			<point x="140" y="1098" type="curve" smooth="yes"/>
			<point x="140" y="856"/>
			<point x="300" y="694"/>
			<point x="462" y="694" type="curve" smooth="yes"/>
			<point x="624" y="694"/>
			<point x="752" y="872"/>
			<point x="752" y="1096" type="curve" smooth="yes"/>
			<point x="752" y="1136"/>
			<point x="748" y="1218"/>
			<point x="712" y="1306" type="curve"/>
			<point x="834" y="1242"/>
			<point x="944" y="1222"/>
			<point x="1044" y="1222" type="curve" smooth="yes"/>
			<point x="1138" y="1222"/>
			<point x="1228" y="1242"/>
			<point x="1310" y="1282" type="curve"/>
			<point x="1312" y="1280" type="line"/>
			<point x="346" y="-18" type="line" smooth="yes"/>
			<point x="330" y="-40"/>
			<point x="324" y="-46"/>
			<point x="324" y="-62" type="curve" smooth="yes"/>
			<point x="324" y="-92"/>
			<point x="346" y="-112"/>
			<point x="374" y="-112" type="curve" smooth="yes"/>
			<point x="398" y="-112"/>
			<point x="410" y="-96"/>
			<point x="422" y="-80" type="curve" smooth="yes"/>
		</contour>
		<contour>
			<point x="466" y="750" type="curve" smooth="yes"/>
			<point x="430" y="750"/>
			<point x="282" y="764"/>
			<point x="282" y="1096" type="curve" smooth="yes"/>
			<point x="282" y="1432"/>
			<point x="432" y="1444"/>
			<point x="466" y="1444" type="curve" smooth="yes"/>
			<point x="576" y="1444"/>
			<point x="684" y="1300"/>
			<point x="684" y="1098" type="curve" smooth="yes"/>
			<point x="684" y="890"/>
			<point x="574" y="750"/>
		</contour>
		<contour>
			<point x="1448" y="-56" type="curve" smooth="yes"/>
			<point x="1412" y="-56"/>
			<point x="1264" y="-42"/>
			<point x="1264" y="290" type="curve" smooth="yes"/>
			<point x="1264" y="626"/>
			<point x="1414" y="638"/>
			<point x="1448" y="638" type="curve" smooth="yes"/>
			<point x="1558" y="638"/>
			<point x="1666" y="494"/>
			<point x="1666" y="292" type="curve" smooth="yes"/>
			<point x="1666" y="84"/>
			<point x="1556" y="-56"/>
		</contour>
		<contour>
			<point x="1734" y="290" type="curve" smooth="yes"/>
			<point x="1734" y="520"/>
			<point x="1604" y="694"/>
			<point x="1444" y="694" type="curve" smooth="yes"/>
			<point x="1278" y="694"/>
			<point x="1122" y="526"/>
			<point x="1122" y="292" type="curve" smooth="yes"/>
			<point x="1122" y="50"/>
			<point x="1282" y="-112"/>
			<point x="1444" y="-112" type="curve" smooth="yes"/>
			<point x="1606" y="-112"/>
			<point x="1734" y="66"/>
		</contour>
	</outline>
</glyph>
<glyph name="ampersand" format="2">
  <advance width="877"/>
  <unicode hex="0026"/>
  <outline>
    <contour>
      <point x="718" y="427" type="curve" smooth="yes"/>
      <point x="672" y="427"/>
      <point x="595" y="431"/>
      <point x="591" y="431" type="curve"/>
      <point x="591" y="395" type="line"/>
      <point x="628" y="395"/>
      <point x="652" y="380"/>
      <point x="652" y="357" type="curve" smooth="yes"/>
      <point x="652" y="349"/>
      <point x="650" y="342"/>
      <point x="646" y="335" type="curve" smooth="yes"/>
      <point x="644" y="331"/>
      <point x="537" y="170"/>
      <point x="481" y="121" type="curve"/>
      <point x="474" y="129"/>
      <point x="350" y="264"/>
      <point x="303" y="379" type="curve"/>
      <point x="384" y="462"/>
      <point x="441" y="521"/>
      <point x="441" y="582" type="curve" smooth="yes"/>
      <point x="441" y="635"/>
      <point x="414" y="714"/>
      <point x="340" y="714" type="curve" smooth="yes"/>
      <point x="270" y="714"/>
      <point x="187" y="657"/>
      <point x="187" y="549" type="curve" smooth="yes"/>
      <point x="187" y="463"/>
      <point x="216" y="383"/>
      <point x="229" y="349" type="curve"/>
      <point x="193.369" y="316.033"/>
      <point x="157.738" y="283.06600000000003"/>
      <point x="122" y="250" type="curve" smooth="yes"/>
      <point x="85" y="215"/>
      <point x="54" y="186"/>
      <point x="54" y="131" type="curve" smooth="yes"/>
      <point x="54" y="41"/>
      <point x="146" y="-20"/>
      <point x="255" y="-20" type="curve" smooth="yes"/>
      <point x="357" y="-20"/>
      <point x="428" y="33"/>
      <point x="454" y="53" type="curve"/>
      <point x="512" y="10"/>
      <point x="577" y="-20"/>
      <point x="650" y="-20" type="curve" smooth="yes"/>
      <point x="732" y="-20"/>
      <point x="804" y="35"/>
      <point x="806" y="121" type="curve"/>
      <point x="772" y="121" type="line"/>
      <point x="769" y="46"/>
      <point x="701" y="16"/>
      <point x="653" y="16" type="curve" smooth="yes"/>
      <point x="589" y="16"/>
      <point x="534" y="68"/>
      <point x="504" y="96" type="curve"/>
      <point x="568" y="159"/>
      <point x="627" y="248"/>
      <point x="673" y="317" type="curve" smooth="yes"/>
      <point x="698" y="353"/>
      <point x="724" y="394"/>
      <point x="813" y="395" type="curve"/>
      <point x="813.0" y="395.0"/>
      <point x="813.0" y="395.0"/>
      <point x="813" y="395" type="curve"/>
      <point x="813" y="431" type="line"/>
      <point x="784" y="428"/>
      <point x="747" y="427"/>
    </contour>
    <contour>
      <point x="242" y="322" type="curve"/>
      <point x="303" y="192"/>
      <point x="408" y="92"/>
      <point x="428" y="74" type="curve"/>
      <point x="379" y="40"/>
      <point x="322" y="16"/>
      <point x="263" y="16" type="curve" smooth="yes"/>
      <point x="182" y="16"/>
      <point x="145" y="96"/>
      <point x="145" y="160" type="curve" smooth="yes"/>
      <point x="145" y="234"/>
      <point x="173" y="259"/>
    </contour>
    <contour>
      <point x="291" y="408" type="curve"/>
      <point x="262" y="484"/>
      <point x="259" y="556"/>
      <point x="259" y="575" type="curve" smooth="yes"/>
      <point x="259" y="645"/>
      <point x="300" y="686"/>
      <point x="341" y="686" type="curve" smooth="yes"/>
      <point x="395" y="686"/>
      <point x="407" y="613"/>
      <point x="407" y="582" type="curve" smooth="yes"/>
      <point x="407" y="534"/>
      <point x="362" y="477"/>
    </contour>
  </outline>
</glyph>
<glyph name="parenleft" format="2">
	<unicode hex="0028"/>
	<advance width="892"/>
	<outline>
		<contour>
			<point x="230" y="502" type="curve" smooth="yes"/>
			<point x="230" y="258"/>
			<point x="293" y="-104"/>
			<point x="568" y="-378" type="curve" smooth="yes"/>
			<point x="610" y="-421"/>
			<point x="657" y="-461"/>
			<point x="710" y="-498" type="curve"/>
			<point x="726" y="-498"/>
			<point x="750" y="-498"/>
			<point x="750" y="-474" type="curve" smooth="yes"/>
			<point x="750" y="-462"/>
			<point x="744" y="-458"/>
			<point x="730" y="-444" type="curve"/>
			<point x="464" y="-204"/>
			<point x="366" y="136"/>
			<point x="366" y="500" type="curve" smooth="yes"/>
			<point x="366" y="1040"/>
			<point x="572" y="1304"/>
			<point x="736" y="1452" type="curve"/>
			<point x="744" y="1460"/>
			<point x="750" y="1466"/>
			<point x="750" y="1476" type="curve" smooth="yes"/>
			<point x="750" y="1500"/>
			<point x="726" y="1500"/>
			<point x="710" y="1500" type="curve"/>
			<point x="656" y="1462"/>
			<point x="608" y="1421"/>
			<point x="565" y="1377" type="curve" smooth="yes"/>
			<point x="304" y="1114"/>
			<point x="230" y="765"/>
		</contour>
	</outline>
</glyph>
<glyph name="parenright" format="2">
	<unicode hex="0029"/>
	<advance width="892"/>
	<outline>
		<contour>
			<point x="660" y="500" type="curve" smooth="yes"/>
			<point x="660" y="743"/>
			<point x="598" y="1102"/>
			<point x="326" y="1376" type="curve" smooth="yes"/>
			<point x="283" y="1420"/>
			<point x="234" y="1462"/>
			<point x="180" y="1500" type="curve"/>
			<point x="166" y="1500"/>
			<point x="142" y="1500"/>
			<point x="142" y="1476" type="curve" smooth="yes"/>
			<point x="142" y="1466"/>
			<point x="148" y="1460"/>
			<point x="160" y="1446" type="curve"/>
			<point x="332" y="1288"/>
			<point x="524" y="1018"/>
			<point x="524" y="502" type="curve" smooth="yes"/>
			<point x="524" y="84"/>
			<point x="394" y="-232"/>
			<point x="178" y="-428" type="curve" smooth="yes"/>
			<point x="144" y="-462"/>
			<point x="142" y="-464"/>
			<point x="142" y="-474" type="curve" smooth="yes"/>
			<point x="142" y="-484"/>
			<point x="148" y="-498"/>
			<point x="168" y="-498" type="curve" smooth="yes"/>
			<point x="192" y="-498"/>
			<point x="382" y="-366"/>
			<point x="514" y="-116" type="curve" smooth="yes"/>
			<point x="602" y="50"/>
			<point x="660" y="266"/>
		</contour>
	</outline>
</glyph>
<glyph name="asterisk" format="2">
	<unicode hex="002A"/>
	<advance width="1138"/>
	<outline>
		<contour>
			<point x="568" y="638" type="curve" smooth="yes"/>
			<point x="592" y="638"/>
			<point x="630" y="654"/>
			<point x="630" y="698" type="curve"/>
			<point x="619" y="805"/>
			<point x="609" y="912"/>
			<point x="598" y="1020" type="curve"/>
			<point x="868" y="838" type="line" smooth="yes"/>
			<point x="894" y="820"/>
			<point x="904" y="820"/>
			<point x="914" y="820" type="curve" smooth="yes"/>
			<point x="952" y="820"/>
			<point x="976" y="856"/>
			<point x="976" y="884" type="curve" smooth="yes"/>
			<point x="976" y="922"/>
			<point x="954" y="932"/>
			<point x="924" y="944" type="curve" smooth="yes"/>
			<point x="630" y="1068" type="line"/>
			<point x="924" y="1194" type="line" smooth="yes"/>
			<point x="954" y="1206"/>
			<point x="976" y="1216"/>
			<point x="976" y="1254" type="curve" smooth="yes"/>
			<point x="976" y="1282"/>
			<point x="952" y="1318"/>
			<point x="914" y="1318" type="curve" smooth="yes"/>
			<point x="896" y="1318"/>
			<point x="892" y="1316"/>
			<point x="870" y="1300" type="curve" smooth="yes"/>
			<point x="598" y="1118" type="line"/>
			<point x="608" y="1218"/>
			<point x="618" y="1318"/>
			<point x="628" y="1418" type="curve" smooth="yes"/>
			<point x="632" y="1454"/>
			<point x="624" y="1500"/>
			<point x="568" y="1500" type="curve" smooth="yes"/>
			<point x="544" y="1500"/>
			<point x="502" y="1484"/>
			<point x="506" y="1434" type="curve" smooth="yes"/>
			<point x="517" y="1329"/>
			<point x="527" y="1224"/>
			<point x="538" y="1118" type="curve"/>
			<point x="268" y="1300" type="line" smooth="yes"/>
			<point x="242" y="1318"/>
			<point x="232" y="1318"/>
			<point x="222" y="1318" type="curve" smooth="yes"/>
			<point x="184" y="1318"/>
			<point x="160" y="1282"/>
			<point x="160" y="1254" type="curve" smooth="yes"/>
			<point x="160" y="1216"/>
			<point x="182" y="1206"/>
			<point x="212" y="1194" type="curve" smooth="yes"/>
			<point x="506" y="1070" type="line"/>
			<point x="212" y="944" type="line" smooth="yes"/>
			<point x="182" y="932"/>
			<point x="160" y="922"/>
			<point x="160" y="884" type="curve" smooth="yes"/>
			<point x="160" y="880"/>
			<point x="160" y="820"/>
			<point x="236" y="820" type="curve"/>
			<point x="236" y="820"/>
			<point x="236" y="820"/>
			<point x="236" y="820" type="curve"/>
			<point x="538" y="1020" type="line"/>
			<point x="527" y="913"/>
			<point x="517" y="807"/>
			<point x="506" y="700" type="curve" smooth="yes"/>
			<point x="504" y="682"/>
			<point x="520" y="638"/>
		</contour>
	</outline>
</glyph>
<glyph name="plus" format="2">
  <advance width="877"/>
  <unicode hex="002B"/>
  <outline>
    <contour>
      <point x="438" y="-118" type="curve" smooth="yes"/>
      <point x="463" y="-118"/>
      <point x="463" y="-95"/>
      <point x="463" y="-81" type="curve" smooth="yes"/>
      <point x="463" y="226" type="line"/>
      <point x="769" y="226" type="line" smooth="yes"/>
      <point x="782" y="226"/>
      <point x="806" y="226"/>
      <point x="806" y="250" type="curve" smooth="yes"/>
      <point x="806" y="275"/>
      <point x="783" y="275"/>
      <point x="769" y="275" type="curve" smooth="yes"/>
      <point x="463" y="275" type="line"/>
      <point x="463" y="582" type="line" smooth="yes"/>
      <point x="463" y="595"/>
      <point x="463" y="619"/>
      <point x="439" y="619" type="curve" smooth="yes"/>
      <point x="414" y="619"/>
      <point x="414" y="596"/>
      <point x="414" y="582" type="curve" smooth="yes"/>
      <point x="414" y="275" type="line"/>
      <point x="107" y="275" type="line" smooth="yes"/>
      <point x="94" y="275"/>
      <point x="70" y="275"/>
      <point x="70" y="251" type="curve" smooth="yes"/>
      <point x="70" y="226"/>
      <point x="93" y="226"/>
      <point x="107" y="226" type="curve" smooth="yes"/>
      <point x="414" y="226" type="line"/>
      <point x="414" y="-81" type="line" smooth="yes"/>
      <point x="414" y="-94"/>
      <point x="414" y="-118"/>
    </contour>
  </outline>
</glyph>
<glyph name="comma" format="2">
	<unicode hex="002C"/>
	<advance width="646"/>
	<outline>
		<contour>
			<point x="208" y="114" type="curve" smooth="yes"/>
			<point x="208" y="66"/>
			<point x="240" y="0"/>
			<point x="324" y="0" type="curve" smooth="yes"/>
			<point x="374" y="0"/>
			<point x="404" y="30"/>
			<point x="406" y="32" type="curve"/>
			<point x="406" y="-24"/>
			<point x="406" y="-192"/>
			<point x="250" y="-334" type="curve" smooth="yes"/>
			<point x="242" y="-342"/>
			<point x="236" y="-348"/>
			<point x="236" y="-358" type="curve" smooth="yes"/>
			<point x="236" y="-370"/>
			<point x="250" y="-388"/>
			<point x="264" y="-388" type="curve" smooth="yes"/>
			<point x="290" y="-388"/>
			<point x="462" y="-230"/>
			<point x="462" y="12" type="curve" smooth="yes"/>
			<point x="462" y="132"/>
			<point x="416" y="230"/>
			<point x="322" y="230" type="curve" smooth="yes"/>
			<point x="252" y="230"/>
			<point x="208" y="176"/>
		</contour>
	</outline>
</glyph>
<glyph name="hyphen" format="2">
	<unicode hex="002D"/>
	<advance width="384"/>
	<outline>
		<contour>
			<point x="314" y="181" type="line"/>
			<point x="314" y="249" type="line"/>
			<point x="20" y="249" type="line"/>
			<point x="20" y="181" type="line"/>
		</contour>
	</outline>
</glyph>
<glyph name="period" format="2">
	<unicode hex="002E"/>
	<advance width="646"/>
	<outline>
		<contour>
			<point x="438" y="114" type="curve" smooth="yes"/>
			<point x="438" y="184"/>
			<point x="382" y="230"/>
			<point x="324" y="230" type="curve" smooth="yes"/>
			<point x="254" y="230"/>
			<point x="208" y="174"/>
			<point x="208" y="116" type="curve" smooth="yes"/>
			<point x="208" y="46"/>
			<point x="264" y="0"/>
			<point x="322" y="0" type="curve" smooth="yes"/>
			<point x="392" y="0"/>
			<point x="438" y="56"/>
		</contour>
	</outline>
</glyph>
<glyph name="slash" format="2">
	<unicode hex="002F"/>
	<advance width="1138"/>
	<outline>
		<contour>
			<point x="986" y="1414" type="line" smooth="yes"/>
			<point x="996" y="1438"/>
			<point x="996" y="1446"/>
			<point x="996" y="1450" type="curve" smooth="yes"/>
			<point x="996" y="1484"/>
			<point x="968" y="1500"/>
			<point x="948" y="1500" type="curve" smooth="yes"/>
			<point x="914" y="1500"/>
			<point x="904" y="1476"/>
			<point x="894" y="1450" type="curve" smooth="yes"/>
			<point x="150" y="-414" type="line" smooth="yes"/>
			<point x="140" y="-438"/>
			<point x="140" y="-446"/>
			<point x="140" y="-450" type="curve" smooth="yes"/>
			<point x="140" y="-484"/>
			<point x="168" y="-500"/>
			<point x="188" y="-500" type="curve" smooth="yes"/>
			<point x="222" y="-500"/>
			<point x="232" y="-476"/>
			<point x="242" y="-450" type="curve" smooth="yes"/>
		</contour>
	</outline>
</glyph>
<glyph name="zero" format="2">
	<unicode hex="0030"/>
	<advance width="569"/>
	<outline>
		<contour>
			<point x="284" y="-21" type="curve" smooth="yes"/>
			<point x="350.99928" y="-21"/>
			<point x="398.6498379288" y="1.3511099788"/>
			<point x="432.5393912333" y="34.8778950425" type="curve" smooth="yes"/>
			<point x="516" y="117.4451058364"/>
			<point x="516" y="267.79288"/>
			<point x="516" y="319" type="curve" smooth="yes"/>
			<point x="516" y="429"/>
			<point x="503" y="508"/>
			<point x="457" y="578" type="curve" smooth="yes"/>
			<point x="426" y="624"/>
			<point x="364" y="664"/>
			<point x="284" y="664" type="curve" smooth="yes"/>
			<point x="218.00064" y="664"/>
			<point x="170.7767779328" y="641.8254895104"/>
			<point x="136.9871601465" y="608.4352475757" type="curve" smooth="yes"/>
			<point x="52" y="524.4525918208"/>
			<point x="52" y="369.51744"/>
			<point x="52" y="318" type="curve" smooth="yes"/>
			<point x="52" y="267"/>
			<point x="52" y="118.76341605"/>
			<point x="133.9524478061" y="36.1790571432" type="curve" smooth="yes"/>
			<point x="167.93216552" y="1.93733187"/>
			<point x="216" y="-21"/>
		</contour>
		<contour>
			<point x="284" y="8" type="curve" smooth="yes"/>
			<point x="238" y="8"/>
			<point x="177" y="35"/>
			<point x="157" y="117" type="curve" smooth="yes"/>
			<point x="143" y="176"/>
			<point x="143" y="258"/>
			<point x="143" y="332" type="curve" smooth="yes"/>
			<point x="143" y="405"/>
			<point x="143" y="481"/>
			<point x="158" y="536" type="curve" smooth="yes"/>
			<point x="179" y="615"/>
			<point x="243" y="636"/>
			<point x="284" y="636" type="curve" smooth="yes"/>
			<point x="338" y="636"/>
			<point x="390" y="603"/>
			<point x="408" y="545" type="curve" smooth="yes"/>
			<point x="424" y="491"/>
			<point x="425" y="419"/>
			<point x="425" y="332" type="curve" smooth="yes"/>
			<point x="425" y="258"/>
			<point x="425" y="184"/>
			<point x="412" y="121" type="curve" smooth="yes"/>
			<point x="392" y="30"/>
			<point x="324" y="8"/>
		</contour>
	</outline>
</glyph>
<glyph name="one" format="2">
	<unicode hex="0031"/>
	<advance width="1138"/>
	<outline>
		<contour>
			<point x="508" y="1184" type="curve"/>
			<point x="508" y="164" type="line" smooth="yes"/>
			<point x="508" y="98"/>
			<point x="508" y="72"/>
			<point x="308" y="72" type="curve" smooth="yes"/>
			<point x="232" y="72" type="line"/>
			<point x="232" y="0" type="line"/>
			<point x="268" y="2"/>
			<point x="514" y="8"/>
			<point x="588" y="8" type="curve" smooth="yes"/>
			<point x="650" y="8"/>
			<point x="902" y="2"/>
			<point x="946" y="0" type="curve"/>
			<point x="946" y="72" type="line"/>
			<point x="870" y="72" type="line" smooth="yes"/>
			<point x="670" y="72"/>
			<point x="670" y="98"/>
			<point x="670" y="164" type="curve" smooth="yes"/>
			<point x="670" y="1272" type="line" smooth="yes"/>
			<point x="670" y="1326"/>
			<point x="666" y="1328"/>
			<point x="610" y="1328" type="curve"/>
			<point x="610" y="1328"/>
			<point x="610" y="1328"/>
			<point x="610" y="1328" type="curve"/>
			<point x="482" y="1202"/>
			<point x="300" y="1200"/>
			<point x="218" y="1200" type="curve" smooth="yes"/>
			<point x="218" y="1200"/>
			<point x="218" y="1200"/>
			<point x="218" y="1200" type="curve"/>
			<point x="218" y="1176"/>
			<point x="218" y="1152"/>
			<point x="218" y="1128" type="curve"/>
			<point x="218" y="1128" type="line"/>
			<point x="266" y="1128"/>
			<point x="398" y="1128"/>
		</contour>
	</outline>
</glyph>
<glyph name="two" format="2">
	<unicode hex="0032"/>
	<advance width="1138"/>
	<outline>
		<contour>
			<point x="816" y="938" type="curve" smooth="yes"/>
			<point x="816" y="764"/>
			<point x="692" y="626"/>
			<point x="628" y="554" type="curve"/>
			<point x="146" y="78" type="line" smooth="yes"/>
			<point x="126" y="60"/>
			<point x="126" y="56"/>
			<point x="126" y="0" type="curve"/>
			<point x="126" y="0" type="line"/>
			<point x="950" y="0" type="line"/>
			<point x="1010" y="364" type="line"/>
			<point x="942" y="364" type="line"/>
			<point x="936" y="320"/>
			<point x="916" y="202"/>
			<point x="890" y="182" type="curve" smooth="yes"/>
			<point x="874" y="170"/>
			<point x="720" y="170"/>
			<point x="692" y="170" type="curve" smooth="yes"/>
			<point x="324" y="170" type="line"/>
			<point x="474" y="297"/>
			<point x="624" y="423"/>
			<point x="774" y="550" type="curve" smooth="yes"/>
			<point x="924" y="678"/>
			<point x="1010" y="778"/>
			<point x="1010" y="938" type="curve" smooth="yes"/>
			<point x="1010" y="1180"/>
			<point x="798" y="1328"/>
			<point x="542" y="1328" type="curve" smooth="yes"/>
			<point x="294" y="1328"/>
			<point x="126" y="1154"/>
			<point x="126" y="970" type="curve" smooth="yes"/>
			<point x="126" y="868"/>
			<point x="212" y="858"/>
			<point x="232" y="858" type="curve" smooth="yes"/>
			<point x="280" y="858"/>
			<point x="338" y="892"/>
			<point x="338" y="964" type="curve" smooth="yes"/>
			<point x="338" y="1000"/>
			<point x="324" y="1070"/>
			<point x="220" y="1070" type="curve"/>
			<point x="282" y="1212"/>
			<point x="418" y="1256"/>
			<point x="512" y="1256" type="curve" smooth="yes"/>
			<point x="712" y="1256"/>
			<point x="816" y="1100"/>
		</contour>
	</outline>
</glyph>
<glyph name="three" format="2">
  <advance width="569"/>
  <unicode hex="0033"/>
  <outline>
    <contour>
      <point x="279" y="-20" type="curve" smooth="yes"/>
      <point x="418" y="-20"/>
      <point x="514" y="73"/>
      <point x="514" y="173" type="curve" smooth="yes"/>
      <point x="514" y="251"/>
      <point x="450" y="329"/>
      <point x="340" y="352" type="curve"/>
      <point x="445" y="390"/>
      <point x="483" y="465"/>
      <point x="483" y="526" type="curve" smooth="yes"/>
      <point x="483" y="605"/>
      <point x="392" y="664"/>
      <point x="281" y="664" type="curve" smooth="yes"/>
      <point x="170" y="664"/>
      <point x="85" y="610"/>
      <point x="85" y="530" type="curve" smooth="yes"/>
      <point x="85" y="496"/>
      <point x="107" y="477"/>
      <point x="137" y="477" type="curve" smooth="yes"/>
      <point x="168" y="477"/>
      <point x="188" y="500"/>
      <point x="188" y="528" type="curve" smooth="yes"/>
      <point x="188" y="557"/>
      <point x="168" y="578"/>
      <point x="137" y="580" type="curve"/>
      <point x="172" y="624"/>
      <point x="241" y="635"/>
      <point x="278" y="635" type="curve" smooth="yes"/>
      <point x="323" y="635"/>
      <point x="386" y="613"/>
      <point x="386" y="526" type="curve" smooth="yes"/>
      <point x="386" y="436"/>
      <point x="332" y="369"/>
      <point x="266" y="365" type="curve" smooth="yes"/>
      <point x="210" y="362"/>
      <point x="208" y="362"/>
      <point x="203" y="361" type="curve"/>
      <point x="201" y="361"/>
      <point x="193" y="359"/>
      <point x="193" y="348" type="curve" smooth="yes"/>
      <point x="193" y="334"/>
      <point x="202" y="334"/>
      <point x="219" y="334" type="curve" smooth="yes"/>
      <point x="273" y="334" type="line" smooth="yes"/>
      <point x="351" y="334"/>
      <point x="407" y="280"/>
      <point x="407" y="173" type="curve" smooth="yes"/>
      <point x="407" y="49"/>
      <point x="335" y="12"/>
      <point x="277" y="12" type="curve" smooth="yes"/>
      <point x="237" y="12"/>
      <point x="149" y="23"/>
      <point x="107" y="82" type="curve"/>
      <point x="154" y="84"/>
      <point x="165" y="117"/>
      <point x="165" y="138" type="curve" smooth="yes"/>
      <point x="165" y="170"/>
      <point x="141" y="193"/>
      <point x="110" y="193" type="curve" smooth="yes"/>
      <point x="82" y="193"/>
      <point x="54" y="176"/>
      <point x="54" y="135" type="curve" smooth="yes"/>
      <point x="54" y="41"/>
      <point x="158" y="-20"/>
    </contour>
  </outline>
</glyph>
<glyph name="four" format="2">
	<unicode hex="0034"/>
	<advance width="1138"/>
	<outline>
		<contour>
			<point x="666" y="328" type="line"/>
			<point x="666" y="164" type="line" smooth="yes"/>
			<point x="666" y="96"/>
			<point x="666" y="72"/>
			<point x="504" y="72" type="curve" smooth="yes"/>
			<point x="450" y="72" type="line"/>
			<point x="450" y="0" type="line"/>
			<point x="550" y="4"/>
			<point x="678" y="8"/>
			<point x="750" y="8" type="curve" smooth="yes"/>
			<point x="824" y="8"/>
			<point x="952" y="4"/>
			<point x="1052" y="0" type="curve"/>
			<point x="1052" y="72" type="line"/>
			<point x="998" y="72" type="line" smooth="yes"/>
			<point x="836" y="72"/>
			<point x="836" y="96"/>
			<point x="836" y="164" type="curve" smooth="yes"/>
			<point x="836" y="328" type="line"/>
			<point x="1058" y="328" type="line"/>
			<point x="1058" y="400" type="line"/>
			<point x="836" y="400" type="line"/>
			<point x="836" y="1292" type="line" smooth="yes"/>
			<point x="836" y="1334"/>
			<point x="836" y="1348"/>
			<point x="792" y="1348" type="curve" smooth="yes"/>
			<point x="768" y="1348"/>
			<point x="760" y="1348"/>
			<point x="740" y="1320" type="curve" smooth="yes"/>
			<point x="78" y="400" type="line"/>
			<point x="78" y="328" type="line"/>
		</contour>
		<contour>
			<point x="152" y="400" type="line"/>
			<point x="680" y="1132" type="line"/>
			<point x="680" y="400" type="line"/>
		</contour>
	</outline>
</glyph>
<glyph name="five" format="2">
	<unicode hex="0035"/>
	<advance width="1138"/>
	<outline>
		<contour>
			<point x="530" y="-40" type="curve" smooth="yes"/>
			<point x="786" y="-40"/>
			<point x="1010" y="150"/>
			<point x="1010" y="402" type="curve" smooth="yes"/>
			<point x="1010" y="628"/>
			<point x="838" y="836"/>
			<point x="590" y="836" type="curve" smooth="yes"/>
			<point x="502" y="836"/>
			<point x="398" y="814"/>
			<point x="310" y="738" type="curve"/>
			<point x="310" y="1116" type="line"/>
			<point x="412" y="1090"/>
			<point x="472" y="1090"/>
			<point x="504" y="1090" type="curve" smooth="yes"/>
			<point x="607" y="1090"/>
			<point x="694" y="1117"/>
			<point x="761" y="1153" type="curve" smooth="yes"/>
			<point x="866" y="1208"/>
			<point x="924" y="1282"/>
			<point x="924" y="1300" type="curve" smooth="yes"/>
			<point x="924" y="1322"/>
			<point x="910" y="1328"/>
			<point x="900" y="1328" type="curve" smooth="yes"/>
			<point x="896" y="1328"/>
			<point x="892" y="1328"/>
			<point x="884" y="1322" type="curve"/>
			<point x="836" y="1304"/>
			<point x="730" y="1264"/>
			<point x="582" y="1264" type="curve" smooth="yes"/>
			<point x="526" y="1264"/>
			<point x="420" y="1268"/>
			<point x="290" y="1318" type="curve"/>
			<point x="270" y="1328"/>
			<point x="266" y="1328"/>
			<point x="264" y="1328" type="curve" smooth="yes"/>
			<point x="238" y="1328"/>
			<point x="238" y="1306"/>
			<point x="238" y="1274" type="curve" smooth="yes"/>
			<point x="238" y="684" type="line" smooth="yes"/>
			<point x="238" y="650"/>
			<point x="238" y="626"/>
			<point x="270" y="626" type="curve" smooth="yes"/>
			<point x="288" y="626"/>
			<point x="290" y="630"/>
			<point x="310" y="654" type="curve" smooth="yes"/>
			<point x="396" y="764"/>
			<point x="518" y="780"/>
			<point x="588" y="780" type="curve" smooth="yes"/>
			<point x="708" y="780"/>
			<point x="762" y="684"/>
			<point x="772" y="668" type="curve" smooth="yes"/>
			<point x="808" y="602"/>
			<point x="820" y="526"/>
			<point x="820" y="410" type="curve" smooth="yes"/>
			<point x="820" y="350"/>
			<point x="820" y="232"/>
			<point x="760" y="144" type="curve" smooth="yes"/>
			<point x="710" y="72"/>
			<point x="624" y="24"/>
			<point x="526" y="24" type="curve" smooth="yes"/>
			<point x="396" y="24"/>
			<point x="262" y="96"/>
			<point x="212" y="228" type="curve"/>
			<point x="288" y="222"/>
			<point x="326" y="272"/>
			<point x="326" y="326" type="curve" smooth="yes"/>
			<point x="326" y="412"/>
			<point x="252" y="428"/>
			<point x="226" y="428" type="curve" smooth="yes"/>
			<point x="222" y="428"/>
			<point x="126" y="428"/>
			<point x="126" y="320" type="curve" smooth="yes"/>
			<point x="126" y="140"/>
			<point x="290" y="-40"/>
		</contour>
	</outline>
</glyph>
<glyph name="six" format="2">
	<unicode hex="0036"/>
	<advance width="569"/>
	<outline>
		<contour>
			<point x="54" y="317" type="curve" smooth="yes"/>
			<point x="54" y="189.73258"/>
			<point x="83.4574251368" y="106.1683890964"/>
			<point x="126.4737360535" y="54.0869082313" type="curve" smooth="yes"/>
			<point x="170.9992683472" y="0.1781557432"/>
			<point x="230.0518" y="-20"/>
			<point x="286" y="-20" type="curve" smooth="yes"/>
			<point x="343" y="-20"/>
			<point x="397.1456" y="0.5437"/>
			<point x="438.07273" y="35.920835" type="curve" smooth="yes"/>
			<point x="484.2246" y="75.8142"/>
			<point x="514" y="134.57"/>
			<point x="514" y="204" type="curve" smooth="yes"/>
			<point x="514" y="273.85"/>
			<point x="483.4475" y="333.7175"/>
			<point x="436.484375" y="373.453625" type="curve" smooth="yes"/>
			<point x="398.06" y="405.965"/>
			<point x="348.65" y="425"/>
			<point x="296" y="425" type="curve" smooth="yes"/>
			<point x="216" y="425"/>
			<point x="172" y="372"/>
			<point x="150" y="327" type="curve"/>
			<point x="150" y="409"/>
			<point x="157" y="483"/>
			<point x="195" y="544" type="curve" smooth="yes"/>
			<point x="229" y="598"/>
			<point x="283" y="635"/>
			<point x="347" y="635" type="curve" smooth="yes"/>
			<point x="377" y="635"/>
			<point x="417" y="627"/>
			<point x="437" y="600" type="curve"/>
			<point x="412" y="598"/>
			<point x="391" y="581"/>
			<point x="391" y="552" type="curve" smooth="yes"/>
			<point x="391" y="527"/>
			<point x="408" y="505"/>
			<point x="438" y="505" type="curve" smooth="yes"/>
			<point x="468" y="505"/>
			<point x="486" y="525"/>
			<point x="486" y="554" type="curve" smooth="yes"/>
			<point x="486" y="612"/>
			<point x="444" y="664"/>
			<point x="345" y="664" type="curve" smooth="yes"/>
			<point x="201" y="664"/>
			<point x="54" y="532"/>
		</contour>
		<contour>
			<point x="286" y="12" type="curve" smooth="yes"/>
			<point x="236" y="12"/>
			<point x="197" y="41"/>
			<point x="176" y="85" type="curve" smooth="yes"/>
			<point x="161" y="115"/>
			<point x="153" y="165"/>
			<point x="153" y="225" type="curve" smooth="yes"/>
			<point x="153" y="322"/>
			<point x="211" y="397"/>
			<point x="291" y="397" type="curve" smooth="yes"/>
			<point x="337" y="397"/>
			<point x="368" y="379"/>
			<point x="393" y="342" type="curve" smooth="yes"/>
			<point x="417" y="304"/>
			<point x="418" y="262"/>
			<point x="418" y="204" type="curve" smooth="yes"/>
			<point x="418" y="147"/>
			<point x="418" y="105"/>
			<point x="391" y="66" type="curve" smooth="yes"/>
			<point x="367" y="31"/>
			<point x="335" y="12"/>
		</contour>
	</outline>
</glyph>
<glyph name="seven" format="2">
	<unicode hex="0037"/>
	<advance width="1138"/>
	<outline>
		<contour>
			<point x="508" y="-40" type="curve" smooth="yes"/>
			<point x="604" y="-40"/>
			<point x="604" y="50"/>
			<point x="604" y="76" type="curve" smooth="yes"/>
			<point x="604" y="103"/>
			<point x="604" y="129"/>
			<point x="604" y="156" type="curve" smooth="yes"/>
			<point x="604" y="544"/>
			<point x="684" y="722"/>
			<point x="770" y="830" type="curve" smooth="yes"/>
			<point x="870" y="956"/>
			<point x="970" y="1082"/>
			<point x="1070" y="1208" type="curve" smooth="yes"/>
			<point x="1090" y="1232"/>
			<point x="1090" y="1236"/>
			<point x="1090" y="1288" type="curve"/>
			<point x="1090" y="1288" type="line"/>
			<point x="566" y="1288" type="line" smooth="yes"/>
			<point x="486" y="1288"/>
			<point x="464" y="1290"/>
			<point x="392" y="1296" type="curve" smooth="yes"/>
			<point x="288" y="1304"/>
			<point x="284" y="1318"/>
			<point x="278" y="1352" type="curve"/>
			<point x="210" y="1352" type="line"/>
			<point x="140" y="924" type="line"/>
			<point x="208" y="924" type="line"/>
			<point x="212" y="954"/>
			<point x="232" y="1086"/>
			<point x="264" y="1106" type="curve"/>
			<point x="280" y="1118"/>
			<point x="442" y="1118"/>
			<point x="472" y="1118" type="curve" smooth="yes"/>
			<point x="908" y="1118" type="line"/>
			<point x="846" y="1039"/>
			<point x="784" y="961"/>
			<point x="722" y="882" type="curve" smooth="yes"/>
			<point x="432" y="514"/>
			<point x="414" y="192"/>
			<point x="414" y="74" type="curve" smooth="yes"/>
			<point x="414" y="52"/>
			<point x="414" y="-40"/>
		</contour>
	</outline>
</glyph>
<glyph name="eight" format="2">
	<unicode hex="0038"/>
	<advance width="569"/>
	<outline>
		<contour>
			<point x="283" y="-20" type="curve" smooth="yes"/>
			<point x="410" y="-20"/>
			<point x="514" y="61"/>
			<point x="514" y="169" type="curve" smooth="yes"/>
			<point x="514" y="240"/>
			<point x="483" y="293"/>
			<point x="355" y="361" type="curve"/>
			<point x="433" y="399"/>
			<point x="483" y="446"/>
			<point x="483" y="515" type="curve" smooth="yes"/>
			<point x="483" y="612"/>
			<point x="382" y="664"/>
			<point x="285" y="664" type="curve" smooth="yes"/>
			<point x="175" y="664"/>
			<point x="85" y="592"/>
			<point x="85" y="497" type="curve" smooth="yes"/>
			<point x="85" y="450"/>
			<point x="107" y="416"/>
			<point x="125" y="396" type="curve" smooth="yes"/>
			<point x="143" y="375"/>
			<point x="150" y="371"/>
			<point x="209" y="336" type="curve"/>
			<point x="153" y="312"/>
			<point x="54" y="258"/>
			<point x="54" y="153" type="curve" smooth="yes"/>
			<point x="54" y="42"/>
			<point x="169" y="-20"/>
		</contour>
		<contour>
			<point x="285" y="12" type="curve" smooth="yes"/>
			<point x="193" y="12"/>
			<point x="114" y="71"/>
			<point x="114" y="153" type="curve" smooth="yes"/>
			<point x="114" y="227"/>
			<point x="169" y="284"/>
			<point x="241" y="317" type="curve"/>
			<point x="286.621" y="290.693"/>
			<point x="332.242" y="264.386"/>
			<point x="378" y="238" type="curve" smooth="yes"/>
			<point x="404" y="223"/>
			<point x="454" y="193"/>
			<point x="454" y="134" type="curve" smooth="yes"/>
			<point x="454" y="59"/>
			<point x="371" y="12"/>
		</contour>
		<contour>
			<point x="324" y="381" type="curve"/>
			<point x="280.044" y="405.975"/>
			<point x="236.088" y="430.95"/>
			<point x="192" y="456" type="curve" smooth="yes"/>
			<point x="166" y="471"/>
			<point x="138" y="498"/>
			<point x="138" y="535" type="curve" smooth="yes"/>
			<point x="138" y="598"/>
			<point x="211" y="635"/>
			<point x="283" y="635" type="curve" smooth="yes"/>
			<point x="361" y="635"/>
			<point x="430" y="586"/>
			<point x="430" y="515" type="curve" smooth="yes"/>
			<point x="430" y="426"/>
			<point x="326" y="381"/>
		</contour>
	</outline>
</glyph>
<glyph name="colon" format="2">
	<unicode hex="003A"/>
	<advance width="323"/>
	<outline>
		<contour>
			<point x="219" y="373" type="curve" smooth="yes"/>
			<point x="219" y="408"/>
			<point x="191" y="431"/>
			<point x="162" y="431" type="curve" smooth="yes"/>
			<point x="127" y="431"/>
			<point x="104" y="403"/>
			<point x="104" y="374" type="curve" smooth="yes"/>
			<point x="104" y="339"/>
			<point x="132" y="316"/>
			<point x="161" y="316" type="curve" smooth="yes"/>
			<point x="196" y="316"/>
			<point x="219" y="344"/>
		</contour>
		<contour>
			<point x="219" y="57" type="curve" smooth="yes"/>
			<point x="219" y="92"/>
			<point x="191" y="115"/>
			<point x="162" y="115" type="curve" smooth="yes"/>
			<point x="127" y="115"/>
			<point x="104" y="87"/>
			<point x="104" y="58" type="curve" smooth="yes"/>
			<point x="104" y="23"/>
			<point x="132" y="0"/>
			<point x="161" y="0" type="curve" smooth="yes"/>
			<point x="196" y="0"/>
			<point x="219" y="28"/>
		</contour>
	</outline>
</glyph>
<glyph name="semicolon" format="2">
	<unicode hex="003B"/>
	<advance width="646"/>
	<outline>
		<contour>
			<point x="322" y="632" type="curve" smooth="yes"/>
			<point x="392" y="632"/>
			<point x="438" y="688"/>
			<point x="438" y="746" type="curve" smooth="yes"/>
			<point x="438" y="816"/>
			<point x="382" y="862"/>
			<point x="324" y="862" type="curve" smooth="yes"/>
			<point x="254" y="862"/>
			<point x="208" y="806"/>
			<point x="208" y="748" type="curve" smooth="yes"/>
			<point x="208" y="678"/>
			<point x="264" y="632"/>
		</contour>
		<contour>
			<point x="264" y="-388" type="curve" smooth="yes"/>
			<point x="290" y="-388"/>
			<point x="444" y="-226"/>
			<point x="444" y="16" type="curve" smooth="yes"/>
			<point x="444" y="84"/>
			<point x="434" y="230"/>
			<point x="322" y="230" type="curve" smooth="yes"/>
			<point x="246" y="230"/>
			<point x="208" y="170"/>
			<point x="208" y="116" type="curve" smooth="yes"/>
			<point x="208" y="60"/>
			<point x="244" y="0"/>
			<point x="324" y="0" type="curve" smooth="yes"/>
			<point x="358" y="0"/>
			<point x="380" y="14"/>
			<point x="388" y="18" type="curve"/>
			<point x="386" y="-124"/>
			<point x="338" y="-236"/>
			<point x="250" y="-334" type="curve"/>
			<point x="238" y="-346"/>
			<point x="236" y="-350"/>
			<point x="236" y="-358" type="curve" smooth="yes"/>
			<point x="236" y="-370"/>
			<point x="250" y="-388"/>
		</contour>
	</outline>
</glyph>
<glyph name="equal" format="2">
	<unicode hex="003D"/>
	<advance width="1754"/>
	<outline>
		<contour>
			<point x="1536" y="672" type="line" smooth="yes"/>
			<point x="1566" y="672"/>
			<point x="1612" y="672"/>
			<point x="1612" y="722" type="curve" smooth="yes"/>
			<point x="1612" y="770"/>
			<point x="1564" y="770"/>
			<point x="1538" y="770" type="curve" smooth="yes"/>
			<point x="214" y="770" type="line" smooth="yes"/>
			<point x="188" y="770"/>
			<point x="140" y="770"/>
			<point x="140" y="722" type="curve" smooth="yes"/>
			<point x="140" y="672"/>
			<point x="186" y="672"/>
			<point x="216" y="672" type="curve" smooth="yes"/>
		</contour>
		<contour>
			<point x="1538" y="232" type="line" smooth="yes"/>
			<point x="1564" y="232"/>
			<point x="1612" y="232"/>
			<point x="1612" y="280" type="curve" smooth="yes"/>
			<point x="1612" y="330"/>
			<point x="1566" y="330"/>
			<point x="1536" y="330" type="curve" smooth="yes"/>
			<point x="216" y="330" type="line" smooth="yes"/>
			<point x="186" y="330"/>
			<point x="140" y="330"/>
			<point x="140" y="280" type="curve" smooth="yes"/>
			<point x="140" y="232"/>
			<point x="188" y="232"/>
			<point x="214" y="232" type="curve" smooth="yes"/>
		</contour>
	</outline>
</glyph>
<glyph name="question" format="2">
	<unicode hex="003F"/>
	<advance width="1076"/>
	<outline>
		<contour>
			<point x="936" y="1138" type="curve" smooth="yes"/>
			<point x="936" y="1244"/>
			<point x="858" y="1408"/>
			<point x="518" y="1408" type="curve" smooth="yes"/>
			<point x="272" y="1408"/>
			<point x="140" y="1278"/>
			<point x="140" y="1142" type="curve" smooth="yes"/>
			<point x="140" y="1060"/>
			<point x="206" y="1042"/>
			<point x="236" y="1042" type="curve" smooth="yes"/>
			<point x="274" y="1042"/>
			<point x="330" y="1070"/>
			<point x="330" y="1138" type="curve" smooth="yes"/>
			<point x="330" y="1150"/>
			<point x="330" y="1224"/>
			<point x="236" y="1232" type="curve"/>
			<point x="272" y="1288"/>
			<point x="364" y="1352"/>
			<point x="512" y="1352" type="curve" smooth="yes"/>
			<point x="740" y="1352"/>
			<point x="754" y="1238"/>
			<point x="754" y="1146" type="curve" smooth="yes"/>
			<point x="754" y="1040"/>
			<point x="714" y="1000"/>
			<point x="682" y="972" type="curve" smooth="yes"/>
			<point x="548" y="852"/>
			<point x="474" y="676"/>
			<point x="474" y="522" type="curve" smooth="yes"/>
			<point x="474" y="494"/>
			<point x="474" y="466"/>
			<point x="474" y="438" type="curve" smooth="yes"/>
			<point x="474" y="398"/>
			<point x="474" y="388"/>
			<point x="508" y="388" type="curve" smooth="yes"/>
			<point x="542" y="388"/>
			<point x="542" y="402"/>
			<point x="542" y="444" type="curve" smooth="yes"/>
			<point x="542" y="512" type="line" smooth="yes"/>
			<point x="542" y="688"/>
			<point x="660" y="836"/>
			<point x="810" y="930" type="curve" smooth="yes"/>
			<point x="848" y="954"/>
			<point x="936" y="1016"/>
		</contour>
		<contour>
			<point x="622" y="114" type="curve" smooth="yes"/>
			<point x="622" y="184"/>
			<point x="566" y="230"/>
			<point x="508" y="230" type="curve" smooth="yes"/>
			<point x="438" y="230"/>
			<point x="392" y="174"/>
			<point x="392" y="116" type="curve" smooth="yes"/>
			<point x="392" y="46"/>
			<point x="448" y="0"/>
			<point x="506" y="0" type="curve" smooth="yes"/>
			<point x="576" y="0"/>
			<point x="622" y="56"/>
		</contour>
	</outline>
</glyph>
<glyph name="at" format="2">
	<unicode hex="0040"/>
	<advance width="877"/>
	<outline>
		<contour>
			<point x="444" y="-10" type="curve"/>
			<point x="527.99105" y="-10.44915"/>
			<point x="604.5178782675" y="2.01278624"/>
			<point x="664.8819632255" y="16.6938759482" type="curve" smooth="yes"/>
			<point x="738.9141489075" y="34.699170985"/>
			<point x="788.63555" y="56.04235"/>
			<point x="798" y="61" type="curve"/>
			<point x="802" y="63"/>
			<point x="806" y="67"/>
			<point x="806" y="72" type="curve" smooth="yes"/>
			<point x="806" y="84"/>
			<point x="795" y="84"/>
			<point x="780" y="84" type="curve" smooth="yes"/>
			<point x="771" y="84" type="line" smooth="yes"/>
			<point x="755" y="84"/>
			<point x="753" y="84"/>
			<point x="738" y="77" type="curve" smooth="yes"/>
			<point x="614" y="26"/>
			<point x="500" y="18"/>
			<point x="443" y="18" type="curve" smooth="yes"/>
			<point x="241" y="18"/>
			<point x="104" y="177"/>
			<point x="104" y="347" type="curve" smooth="yes"/>
			<point x="104" y="528"/>
			<point x="253" y="676"/>
			<point x="438" y="676" type="curve" smooth="yes"/>
			<point x="603" y="676"/>
			<point x="772" y="550"/>
			<point x="772" y="338" type="curve" smooth="yes"/>
			<point x="772" y="222"/>
			<point x="751" y="155"/>
			<point x="694" y="155" type="curve" smooth="yes"/>
			<point x="671" y="155"/>
			<point x="659" y="178"/>
			<point x="659" y="218" type="curve" smooth="yes"/>
			<point x="659" y="456" type="line" smooth="yes"/>
			<point x="659" y="481"/>
			<point x="659" y="483"/>
			<point x="631" y="483" type="curve" smooth="yes"/>
			<point x="619" y="483"/>
			<point x="606" y="483"/>
			<point x="594" y="483" type="curve"/>
			<point x="540" y="557"/>
			<point x="473" y="567"/>
			<point x="437" y="567" type="curve" smooth="yes"/>
			<point x="318" y="567"/>
			<point x="217" y="470"/>
			<point x="217" y="347" type="curve" smooth="yes"/>
			<point x="217" y="223"/>
			<point x="319" y="127"/>
			<point x="437" y="127" type="curve" smooth="yes"/>
			<point x="527" y="127"/>
			<point x="579" y="192"/>
			<point x="582" y="195" type="curve"/>
			<point x="596" y="135"/>
			<point x="667" y="127"/>
			<point x="690" y="127" type="curve" smooth="yes"/>
			<point x="786" y="127"/>
			<point x="806" y="241"/>
			<point x="806" y="342" type="curve" smooth="yes"/>
			<point x="806" y="556"/>
			<point x="631" y="704"/>
			<point x="438" y="704" type="curve" smooth="yes"/>
			<point x="234" y="704"/>
			<point x="70" y="543"/>
			<point x="70" y="347" type="curve" smooth="yes"/>
			<point x="70" y="163"/>
			<point x="219" y="-10"/>
		</contour>
		<contour>
			<point x="439" y="155" type="curve" smooth="yes"/>
			<point x="361" y="155"/>
			<point x="296" y="239"/>
			<point x="296" y="347" type="curve" smooth="yes"/>
			<point x="296" y="455"/>
			<point x="361" y="539"/>
			<point x="439" y="539" type="curve" smooth="yes"/>
			<point x="478" y="539"/>
			<point x="530" y="520"/>
			<point x="566" y="467" type="curve" smooth="yes"/>
			<point x="580" y="447"/>
			<point x="580" y="446"/>
			<point x="580" y="427" type="curve" smooth="yes"/>
			<point x="580" y="258" type="line" smooth="yes"/>
			<point x="580" y="232"/>
			<point x="520" y="155"/>
		</contour>
	</outline>
</glyph>
<glyph name="A" format="2">
	<unicode hex="0041"/>
	<advance width="1686"/>
	<outline>
		<contour>
			<point x="842" y="1426" type="curve" smooth="yes"/>
			<point x="804" y="1426"/>
			<point x="798" y="1412"/>
			<point x="786" y="1380" type="curve" smooth="yes"/>
			<point x="324" y="210" type="line" smooth="yes"/>
			<point x="304" y="160"/>
			<point x="270" y="72"/>
			<point x="90" y="72" type="curve"/>
			<point x="90" y="0" type="line"/>
			<point x="158" y="6"/>
			<point x="228" y="8"/>
			<point x="296" y="8" type="curve" smooth="yes"/>
			<point x="376" y="8"/>
			<point x="524" y="0"/>
			<point x="536" y="0" type="curve"/>
			<point x="536" y="72" type="line"/>
			<point x="448" y="72"/>
			<point x="392" y="112"/>
			<point x="392" y="168" type="curve" smooth="yes"/>
			<point x="392" y="184"/>
			<point x="394" y="188"/>
			<point x="402" y="208" type="curve" smooth="yes"/>
			<point x="498" y="454" type="line"/>
			<point x="1066" y="454" type="line"/>
			<point x="1182" y="162" type="line" smooth="yes"/>
			<point x="1186" y="152"/>
			<point x="1192" y="138"/>
			<point x="1192" y="128" type="curve" smooth="yes"/>
			<point x="1192" y="72"/>
			<point x="1084" y="72"/>
			<point x="1030" y="72" type="curve"/>
			<point x="1030" y="0" type="line"/>
			<point x="1130" y="4"/>
			<point x="1258" y="8"/>
			<point x="1328" y="8" type="curve" smooth="yes"/>
			<point x="1422" y="8"/>
			<point x="1572" y="2"/>
			<point x="1594" y="0" type="curve"/>
			<point x="1594" y="72" type="line"/>
			<point x="1554" y="72" type="line" smooth="yes"/>
			<point x="1420" y="72"/>
			<point x="1406" y="92"/>
			<point x="1384" y="148" type="curve" smooth="yes"/>
			<point x="898" y="1380" type="line" smooth="yes"/>
			<point x="886" y="1412"/>
			<point x="880" y="1426"/>
		</contour>
		<contour>
			<point x="782" y="1176" type="line"/>
			<point x="1038" y="526" type="line"/>
			<point x="526" y="526" type="line"/>
		</contour>
	</outline>
</glyph>
<glyph name="B" format="2">
	<unicode hex="0042"/>
	<advance width="1596"/>
	<outline>
		<contour>
			<point x="1456" y="366" type="curve" smooth="yes"/>
			<point x="1456" y="540"/>
			<point x="1280" y="688"/>
			<point x="1036" y="714" type="curve"/>
			<point x="1232" y="750"/>
			<point x="1396" y="872"/>
			<point x="1396" y="1026" type="curve" smooth="yes"/>
			<point x="1396" y="1206"/>
			<point x="1186" y="1366"/>
			<point x="908" y="1366" type="curve" smooth="yes"/>
			<point x="120" y="1366" type="line"/>
			<point x="120" y="1294" type="line"/>
			<point x="168" y="1294" type="line" smooth="yes"/>
			<point x="322" y="1294"/>
			<point x="326" y="1274"/>
			<point x="326" y="1204" type="curve" smooth="yes"/>
			<point x="326" y="162" type="line" smooth="yes"/>
			<point x="326" y="94"/>
			<point x="322" y="72"/>
			<point x="168" y="72" type="curve" smooth="yes"/>
			<point x="120" y="72" type="line"/>
			<point x="120" y="0" type="line"/>
			<point x="968" y="0" type="line" smooth="yes"/>
			<point x="1250" y="0"/>
			<point x="1456" y="176"/>
		</contour>
		<contour>
			<point x="502" y="738" type="line"/>
			<point x="502" y="1216" type="line" smooth="yes"/>
			<point x="502" y="1278"/>
			<point x="504" y="1294"/>
			<point x="598" y="1294" type="curve" smooth="yes"/>
			<point x="894" y="1294" type="line" smooth="yes"/>
			<point x="1092" y="1294"/>
			<point x="1196" y="1152"/>
			<point x="1196" y="1026" type="curve" smooth="yes"/>
			<point x="1196" y="884"/>
			<point x="1062" y="738"/>
			<point x="832" y="738" type="curve" smooth="yes"/>
		</contour>
		<contour>
			<point x="898" y="72" type="curve" smooth="yes"/>
			<point x="598" y="72" type="line" smooth="yes"/>
			<point x="504" y="72"/>
			<point x="502" y="88"/>
			<point x="502" y="150" type="curve" smooth="yes"/>
			<point x="502" y="682" type="line"/>
			<point x="928" y="682" type="line" smooth="yes"/>
			<point x="1140" y="682"/>
			<point x="1250" y="510"/>
			<point x="1250" y="370" type="curve" smooth="yes"/>
			<point x="1250" y="222"/>
			<point x="1118" y="72"/>
		</contour>
	</outline>
</glyph>
<glyph name="C" format="2">
  <advance width="815"/>
  <unicode hex="0043"/>
  <outline>
    <contour>
      <point x="70" y="342" type="curve" smooth="yes"/>
      <point x="70" y="139"/>
      <point x="246" y="-20"/>
      <point x="453" y="-20" type="curve" smooth="yes"/>
      <point x="630" y="-20"/>
      <point x="744" y="112"/>
      <point x="744" y="234" type="curve" smooth="yes"/>
      <point x="744" y="245"/>
      <point x="743" y="253"/>
      <point x="727" y="253" type="curve" smooth="yes"/>
      <point x="721" y="253"/>
      <point x="711" y="253"/>
      <point x="710" y="240" type="curve" smooth="yes"/>
      <point x="702" y="79"/>
      <point x="566" y="16"/>
      <point x="467" y="16" type="curve"/>
      <point x="407.59681" y="16.0"/>
      <point x="324.7693766036" y="36.0338923785"/>
      <point x="262.835452922014" y="98.34610919904367" type="curve" smooth="yes"/>
      <point x="213.21089238870002" y="148.27377713549998"/>
      <point x="177.0" y="225.3442"/>
      <point x="177" y="341" type="curve"/>
      <point x="177" y="459"/>
      <point x="213.5461159346" y="535.5537391656001"/>
      <point x="262.59989138352284" y="584.9587441079042" type="curve" smooth="yes"/>
      <point x="326.56543591" y="649.3822877505"/>
      <point x="412" y="667"/>
      <point x="465" y="667" type="curve" smooth="yes"/>
      <point x="564" y="667"/>
      <point x="682" y="601"/>
      <point x="708" y="429" type="curve" smooth="yes"/>
      <point x="710" y="417"/>
      <point x="719" y="417"/>
      <point x="726" y="417" type="curve" smooth="yes"/>
      <point x="744" y="417"/>
      <point x="744" y="423"/>
      <point x="744" y="443" type="curve" smooth="yes"/>
      <point x="744" y="677" type="line" smooth="yes"/>
      <point x="744" y="694"/>
      <point x="744" y="703"/>
      <point x="730" y="703" type="curve" smooth="yes"/>
      <point x="726" y="703"/>
      <point x="721" y="703"/>
      <point x="713" y="691" type="curve" smooth="yes"/>
      <point x="660" y="615" type="line"/>
      <point x="618" y="657"/>
      <point x="549" y="703"/>
      <point x="453" y="703" type="curve" smooth="yes"/>
      <point x="243" y="703"/>
      <point x="70" y="541"/>
    </contour>
  </outline>
</glyph>
<glyph name="D" format="2">
	<unicode hex="0044"/>
	<advance width="1720"/>
	<outline>
		<contour>
			<point x="1578" y="672" type="curve" smooth="yes"/>
			<point x="1578" y="1052"/>
			<point x="1276" y="1366"/>
			<point x="904" y="1366" type="curve" smooth="yes"/>
			<point x="116" y="1366" type="line"/>
			<point x="116" y="1294" type="line"/>
			<point x="132" y="1294"/>
			<point x="148" y="1294"/>
			<point x="164" y="1294" type="curve" smooth="yes"/>
			<point x="318" y="1294"/>
			<point x="322" y="1274"/>
			<point x="322" y="1204" type="curve" smooth="yes"/>
			<point x="322" y="162" type="line" smooth="yes"/>
			<point x="322" y="94"/>
			<point x="318" y="72"/>
			<point x="164" y="72" type="curve" smooth="yes"/>
			<point x="148" y="72"/>
			<point x="132" y="72"/>
			<point x="116" y="72" type="curve"/>
			<point x="116" y="0" type="line"/>
			<point x="904" y="0" type="line" smooth="yes"/>
			<point x="1272" y="0"/>
			<point x="1578" y="296"/>
		</contour>
		<contour>
			<point x="600" y="72" type="line" smooth="yes"/>
			<point x="506" y="72"/>
			<point x="504" y="88"/>
			<point x="504" y="150" type="curve" smooth="yes"/>
			<point x="504" y="1216" type="line" smooth="yes"/>
			<point x="504" y="1278"/>
			<point x="506" y="1294"/>
			<point x="600" y="1294" type="curve" smooth="yes"/>
			<point x="848" y="1294" type="line" smooth="yes"/>
			<point x="1018" y="1294"/>
			<point x="1166" y="1224"/>
			<point x="1258" y="1106" type="curve" smooth="yes"/>
			<point x="1340" y="998"/>
			<point x="1372" y="846"/>
			<point x="1372" y="672" type="curve" smooth="yes"/>
			<point x="1372" y="440"/>
			<point x="1314" y="320"/>
			<point x="1244" y="236" type="curve" smooth="yes"/>
			<point x="1154" y="134"/>
			<point x="1010" y="72"/>
			<point x="850" y="72" type="curve" smooth="yes"/>
		</contour>
	</outline>
</glyph>
<glyph name="E" format="2">
	<unicode hex="0045"/>
	<advance width="1534"/>
	<outline>
		<contour>
			<point x="1456" y="526" type="line"/>
			<point x="1388" y="526" type="line"/>
			<point x="1336" y="224"/>
			<point x="1290" y="72"/>
			<point x="920" y="72" type="curve" smooth="yes"/>
			<point x="604" y="72" type="line" smooth="yes"/>
			<point x="510" y="72"/>
			<point x="508" y="88"/>
			<point x="508" y="150" type="curve" smooth="yes"/>
			<point x="508" y="670" type="line"/>
			<point x="710" y="670" type="line" smooth="yes"/>
			<point x="912" y="670"/>
			<point x="942" y="610"/>
			<point x="942" y="436" type="curve"/>
			<point x="1010" y="436" type="line"/>
			<point x="1010" y="976" type="line"/>
			<point x="942" y="976" type="line"/>
			<point x="942" y="802"/>
			<point x="912" y="742"/>
			<point x="710" y="742" type="curve" smooth="yes"/>
			<point x="508" y="742" type="line"/>
			<point x="508" y="1208" type="line" smooth="yes"/>
			<point x="508" y="1270"/>
			<point x="510" y="1286"/>
			<point x="604" y="1286" type="curve" smooth="yes"/>
			<point x="904" y="1286" type="line" smooth="yes"/>
			<point x="1232" y="1286"/>
			<point x="1290" y="1178"/>
			<point x="1326" y="898" type="curve"/>
			<point x="1394" y="898" type="line"/>
			<point x="1334" y="1358" type="line"/>
			<point x="112" y="1358" type="line"/>
			<point x="112" y="1286" type="line"/>
			<point x="160" y="1286" type="line" smooth="yes"/>
			<point x="314" y="1286"/>
			<point x="318" y="1266"/>
			<point x="318" y="1196" type="curve" smooth="yes"/>
			<point x="318" y="162" type="line" smooth="yes"/>
			<point x="318" y="94"/>
			<point x="314" y="72"/>
			<point x="160" y="72" type="curve" smooth="yes"/>
			<point x="112" y="72" type="line"/>
			<point x="112" y="0" type="line"/>
			<point x="1366" y="0" type="line"/>
		</contour>
	</outline>
</glyph>
<glyph name="F" format="2">
  <advance width="737"/>
  <unicode hex="0046"/>
  <outline>
    <contour>
      <point x="159" y="81" type="line" smooth="yes"/>
      <point x="159" y="47"/>
      <point x="157" y="36"/>
      <point x="80" y="36" type="curve" smooth="yes"/>
      <point x="56" y="36" type="line"/>
      <point x="56" y="0" type="line"/>
      <point x="57" y="0"/>
      <point x="170" y="4"/>
      <point x="208" y="4" type="curve" smooth="yes"/>
      <point x="249" y="4"/>
      <point x="368" y="1"/>
      <point x="383" y="0" type="curve"/>
      <point x="383" y="36" type="line"/>
      <point x="348" y="36" type="line" smooth="yes"/>
      <point x="254" y="36"/>
      <point x="254" y="49"/>
      <point x="254" y="82" type="curve" smooth="yes"/>
      <point x="254" y="322" type="line"/>
      <point x="351" y="322" type="line" smooth="yes"/>
      <point x="451" y="322"/>
      <point x="465" y="292"/>
      <point x="465" y="205" type="curve"/>
      <point x="499" y="205" type="line"/>
      <point x="499" y="475" type="line"/>
      <point x="465" y="475" type="line"/>
      <point x="465" y="389"/>
      <point x="451" y="358"/>
      <point x="351" y="358" type="curve" smooth="yes"/>
      <point x="254" y="358" type="line"/>
      <point x="254" y="604" type="line" smooth="yes"/>
      <point x="254" y="635"/>
      <point x="255" y="643"/>
      <point x="302" y="643" type="curve" smooth="yes"/>
      <point x="442" y="643" type="line" smooth="yes"/>
      <point x="603" y="643"/>
      <point x="630" y="589"/>
      <point x="648" y="449" type="curve"/>
      <point x="682" y="449" type="line"/>
      <point x="652" y="679" type="line"/>
      <point x="56" y="679" type="line"/>
      <point x="56" y="643" type="line"/>
      <point x="80" y="643" type="line" smooth="yes"/>
      <point x="157" y="643"/>
      <point x="159" y="633"/>
      <point x="159" y="598" type="curve" smooth="yes"/>
    </contour>
  </outline>
</glyph>
<glyph name="G" format="2">
	<unicode hex="0047"/>
	<advance width="1766"/>
	<outline>
		<contour>
			<point x="912" y="-40" type="curve" smooth="yes"/>
			<point x="982" y="-40"/>
			<point x="1094" y="-32"/>
			<point x="1192" y="8" type="curve" smooth="yes"/>
			<point x="1250" y="32"/>
			<point x="1304" y="68"/>
			<point x="1338" y="120" type="curve"/>
			<point x="1372" y="68"/>
			<point x="1446" y="0"/>
			<point x="1466" y="0" type="curve" smooth="yes"/>
			<point x="1490" y="0"/>
			<point x="1490" y="22"/>
			<point x="1490" y="52" type="curve" smooth="yes"/>
			<point x="1490" y="165"/>
			<point x="1490" y="278"/>
			<point x="1490" y="392" type="curve" smooth="yes"/>
			<point x="1490" y="480"/>
			<point x="1510" y="480"/>
			<point x="1644" y="480" type="curve"/>
			<point x="1644" y="480"/>
			<point x="1644" y="480"/>
			<point x="1644" y="480" type="curve"/>
			<point x="1644" y="504"/>
			<point x="1644" y="528"/>
			<point x="1644" y="552" type="curve"/>
			<point x="1630" y="552"/>
			<point x="1484" y="544"/>
			<point x="1386" y="544" type="curve" smooth="yes"/>
			<point x="1280" y="544"/>
			<point x="1128" y="544"/>
			<point x="1024" y="552" type="curve"/>
			<point x="1024" y="528"/>
			<point x="1024" y="504"/>
			<point x="1024" y="480" type="curve"/>
			<point x="1049" y="480"/>
			<point x="1075" y="480"/>
			<point x="1100" y="480" type="curve" smooth="yes"/>
			<point x="1300" y="480"/>
			<point x="1300" y="454"/>
			<point x="1300" y="388" type="curve" smooth="yes"/>
			<point x="1300" y="345"/>
			<point x="1300" y="303"/>
			<point x="1300" y="260" type="curve" smooth="yes"/>
			<point x="1300" y="216"/>
			<point x="1300" y="138"/>
			<point x="1186" y="82" type="curve" smooth="yes"/>
			<point x="1088" y="32"/>
			<point x="976" y="32"/>
			<point x="950" y="32" type="curve" smooth="yes"/>
			<point x="825" y="32"/>
			<point x="656" y="72"/>
			<point x="529" y="196" type="curve" smooth="yes"/>
			<point x="428" y="296"/>
			<point x="354" y="451"/>
			<point x="354" y="684" type="curve" smooth="yes"/>
			<point x="354" y="916"/>
			<point x="426" y="1069"/>
			<point x="524" y="1168" type="curve" smooth="yes"/>
			<point x="651" y="1296"/>
			<point x="820" y="1334"/>
			<point x="932" y="1334" type="curve" smooth="yes"/>
			<point x="1126" y="1334"/>
			<point x="1366" y="1204"/>
			<point x="1418" y="858" type="curve" smooth="yes"/>
			<point x="1422" y="834"/>
			<point x="1440" y="834"/>
			<point x="1454" y="834" type="curve" smooth="yes"/>
			<point x="1490" y="834"/>
			<point x="1490" y="846"/>
			<point x="1490" y="886" type="curve" smooth="yes"/>
			<point x="1490" y="1042"/>
			<point x="1490" y="1198"/>
			<point x="1490" y="1354" type="curve" smooth="yes"/>
			<point x="1490" y="1388"/>
			<point x="1490" y="1406"/>
			<point x="1462" y="1406" type="curve" smooth="yes"/>
			<point x="1454" y="1406"/>
			<point x="1444" y="1406"/>
			<point x="1428" y="1382" type="curve" smooth="yes"/>
			<point x="1393" y="1331"/>
			<point x="1357" y="1281"/>
			<point x="1322" y="1230" type="curve"/>
			<point x="1224" y="1330"/>
			<point x="1082" y="1406"/>
			<point x="906" y="1406" type="curve" smooth="yes"/>
			<point x="490" y="1406"/>
			<point x="140" y="1084"/>
			<point x="140" y="684" type="curve" smooth="yes"/>
			<point x="140" y="288"/>
			<point x="480" y="-40"/>
		</contour>
	</outline>
</glyph>
<glyph name="H" format="2">
	<unicode hex="0048"/>
	<advance width="1686"/>
	<outline>
		<contour>
			<point x="112" y="0" type="line"/>
			<point x="212" y="4"/>
			<point x="340" y="8"/>
			<point x="412" y="8" type="curve" smooth="yes"/>
			<point x="486" y="8"/>
			<point x="614" y="4"/>
			<point x="714" y="0" type="curve"/>
			<point x="714" y="72" type="line"/>
			<point x="666" y="72" type="line" smooth="yes"/>
			<point x="512" y="72"/>
			<point x="508" y="92"/>
			<point x="508" y="162" type="curve" smooth="yes"/>
			<point x="508" y="674" type="line"/>
			<point x="1176" y="674" type="line"/>
			<point x="1176" y="162" type="line" smooth="yes"/>
			<point x="1176" y="94"/>
			<point x="1172" y="72"/>
			<point x="1018" y="72" type="curve" smooth="yes"/>
			<point x="970" y="72" type="line"/>
			<point x="970" y="0" type="line"/>
			<point x="1070" y="4"/>
			<point x="1198" y="8"/>
			<point x="1270" y="8" type="curve" smooth="yes"/>
			<point x="1344" y="8"/>
			<point x="1472" y="4"/>
			<point x="1572" y="0" type="curve"/>
			<point x="1572" y="72" type="line"/>
			<point x="1524" y="72" type="line" smooth="yes"/>
			<point x="1370" y="72"/>
			<point x="1366" y="92"/>
			<point x="1366" y="162" type="curve" smooth="yes"/>
			<point x="1366" y="1204" type="line" smooth="yes"/>
			<point x="1366" y="1272"/>
			<point x="1370" y="1294"/>
			<point x="1524" y="1294" type="curve" smooth="yes"/>
			<point x="1572" y="1294" type="line"/>
			<point x="1572" y="1366" type="line"/>
			<point x="1472" y="1362"/>
			<point x="1344" y="1358"/>
			<point x="1272" y="1358" type="curve" smooth="yes"/>
			<point x="1198" y="1358"/>
			<point x="1070" y="1362"/>
			<point x="970" y="1366" type="curve"/>
			<point x="970" y="1294" type="line"/>
			<point x="1018" y="1294" type="line" smooth="yes"/>
			<point x="1172" y="1294"/>
			<point x="1176" y="1274"/>
			<point x="1176" y="1204" type="curve" smooth="yes"/>
			<point x="1176" y="746" type="line"/>
			<point x="508" y="746" type="line"/>
			<point x="508" y="1204" type="line" smooth="yes"/>
			<point x="508" y="1272"/>
			<point x="512" y="1294"/>
			<point x="666" y="1294" type="curve" smooth="yes"/>
			<point x="714" y="1294" type="line"/>
			<point x="714" y="1366" type="line"/>
			<point x="614" y="1362"/>
			<point x="486" y="1358"/>
			<point x="414" y="1358" type="curve" smooth="yes"/>
			<point x="340" y="1358"/>
			<point x="212" y="1362"/>
			<point x="112" y="1366" type="curve"/>
			<point x="112" y="1294" type="line"/>
			<point x="160" y="1294" type="line" smooth="yes"/>
			<point x="314" y="1294"/>
			<point x="318" y="1274"/>
			<point x="318" y="1204" type="curve" smooth="yes"/>
			<point x="318" y="162" type="line" smooth="yes"/>
			<point x="318" y="94"/>
			<point x="314" y="72"/>
			<point x="160" y="72" type="curve" smooth="yes"/>
			<point x="112" y="72" type="line"/>
		</contour>
	</outline>
</glyph>
<glyph name="I" format="2">
	<unicode hex="0049"/>
	<advance width="824"/>
	<outline>
		<contour>
			<point x="102" y="0" type="line"/>
			<point x="118" y="0"/>
			<point x="334" y="8"/>
			<point x="412" y="8" type="curve" smooth="yes"/>
			<point x="492" y="8"/>
			<point x="712" y="0"/>
			<point x="724" y="0" type="curve"/>
			<point x="724" y="72" type="line"/>
			<point x="672" y="72" type="line" smooth="yes"/>
			<point x="508" y="72"/>
			<point x="508" y="96"/>
			<point x="508" y="164" type="curve" smooth="yes"/>
			<point x="508" y="1202" type="line" smooth="yes"/>
			<point x="508" y="1270"/>
			<point x="508" y="1294"/>
			<point x="672" y="1294" type="curve" smooth="yes"/>
			<point x="724" y="1294" type="line"/>
			<point x="724" y="1366" type="line"/>
			<point x="708" y="1366"/>
			<point x="492" y="1358"/>
			<point x="414" y="1358" type="curve" smooth="yes"/>
			<point x="334" y="1358"/>
			<point x="114" y="1366"/>
			<point x="102" y="1366" type="curve"/>
			<point x="102" y="1294" type="line"/>
			<point x="154" y="1294" type="line" smooth="yes"/>
			<point x="318" y="1294"/>
			<point x="318" y="1270"/>
			<point x="318" y="1202" type="curve" smooth="yes"/>
			<point x="318" y="164" type="line" smooth="yes"/>
			<point x="318" y="96"/>
			<point x="318" y="72"/>
			<point x="154" y="72" type="curve" smooth="yes"/>
			<point x="102" y="72" type="line"/>
		</contour>
	</outline>
</glyph>
<glyph name="K" format="2">
	<unicode hex="004B"/>
	<advance width="1748"/>
	<outline>
		<contour>
			<point x="112" y="0" type="line"/>
			<point x="212" y="4"/>
			<point x="340" y="8"/>
			<point x="412" y="8" type="curve" smooth="yes"/>
			<point x="486" y="8"/>
			<point x="614" y="4"/>
			<point x="714" y="0" type="curve"/>
			<point x="714" y="72" type="line"/>
			<point x="666" y="72" type="line" smooth="yes"/>
			<point x="512" y="72"/>
			<point x="508" y="92"/>
			<point x="508" y="162" type="curve" smooth="yes"/>
			<point x="508" y="492" type="line"/>
			<point x="778" y="722" type="line"/>
			<point x="1186" y="190" type="line" smooth="yes"/>
			<point x="1198" y="174"/>
			<point x="1216" y="152"/>
			<point x="1216" y="126" type="curve" smooth="yes"/>
			<point x="1216" y="72"/>
			<point x="1146" y="72"/>
			<point x="1110" y="72" type="curve"/>
			<point x="1110" y="0" type="line"/>
			<point x="1210" y="4"/>
			<point x="1338" y="8"/>
			<point x="1408" y="8" type="curve" smooth="yes"/>
			<point x="1478" y="8"/>
			<point x="1610" y="2"/>
			<point x="1638" y="0" type="curve"/>
			<point x="1638" y="72" type="line"/>
			<point x="1530" y="72"/>
			<point x="1484" y="76"/>
			<point x="1408" y="176" type="curve" smooth="yes"/>
			<point x="906" y="832" type="line"/>
			<point x="1312" y="1178" type="line" smooth="yes"/>
			<point x="1410" y="1262"/>
			<point x="1512" y="1292"/>
			<point x="1608" y="1294" type="curve"/>
			<point x="1608" y="1366" type="line"/>
			<point x="1552" y="1362"/>
			<point x="1494" y="1358"/>
			<point x="1438" y="1358" type="curve" smooth="yes"/>
			<point x="1370" y="1358"/>
			<point x="1170" y="1366"/>
			<point x="1162" y="1366" type="curve"/>
			<point x="1162" y="1294" type="line"/>
			<point x="1190" y="1294"/>
			<point x="1236" y="1284"/>
			<point x="1236" y="1236" type="curve" smooth="yes"/>
			<point x="1236" y="1222"/>
			<point x="1228" y="1200"/>
			<point x="1218" y="1190" type="curve"/>
			<point x="508" y="582" type="line"/>
			<point x="508" y="1204" type="line" smooth="yes"/>
			<point x="508" y="1272"/>
			<point x="512" y="1294"/>
			<point x="666" y="1294" type="curve" smooth="yes"/>
			<point x="714" y="1294" type="line"/>
			<point x="714" y="1366" type="line"/>
			<point x="614" y="1362"/>
			<point x="486" y="1358"/>
			<point x="414" y="1358" type="curve" smooth="yes"/>
			<point x="340" y="1358"/>
			<point x="212" y="1362"/>
			<point x="112" y="1366" type="curve"/>
			<point x="112" y="1294" type="line"/>
			<point x="160" y="1294" type="line" smooth="yes"/>
			<point x="314" y="1294"/>
			<point x="318" y="1274"/>
			<point x="318" y="1204" type="curve" smooth="yes"/>
			<point x="318" y="162" type="line" smooth="yes"/>
			<point x="318" y="94"/>
			<point x="314" y="72"/>
			<point x="160" y="72" type="curve" smooth="yes"/>
			<point x="112" y="72" type="line"/>
		</contour>
	</outline>
</glyph>
<glyph name="L" format="2">
	<unicode hex="004C"/>
	<advance width="1412"/>
	<outline>
		<contour>
			<point x="1302" y="526" type="line"/>
			<point x="1234" y="526" type="line"/>
			<point x="1212" y="330"/>
			<point x="1182" y="72"/>
			<point x="804" y="72" type="curve" smooth="yes"/>
			<point x="604" y="72" type="line" smooth="yes"/>
			<point x="510" y="72"/>
			<point x="508" y="88"/>
			<point x="508" y="150" type="curve" smooth="yes"/>
			<point x="508" y="1202" type="line" smooth="yes"/>
			<point x="508" y="1268"/>
			<point x="508" y="1294"/>
			<point x="696" y="1294" type="curve" smooth="yes"/>
			<point x="766" y="1294" type="line"/>
			<point x="766" y="1366" type="line"/>
			<point x="724" y="1364"/>
			<point x="468" y="1358"/>
			<point x="416" y="1358" type="curve" smooth="yes"/>
			<point x="340" y="1358"/>
			<point x="114" y="1366"/>
			<point x="112" y="1366" type="curve"/>
			<point x="112" y="1294" type="line"/>
			<point x="160" y="1294" type="line" smooth="yes"/>
			<point x="314" y="1294"/>
			<point x="318" y="1274"/>
			<point x="318" y="1204" type="curve" smooth="yes"/>
			<point x="318" y="162" type="line" smooth="yes"/>
			<point x="318" y="94"/>
			<point x="314" y="72"/>
			<point x="160" y="72" type="curve" smooth="yes"/>
			<point x="112" y="72" type="line"/>
			<point x="112" y="0" type="line"/>
			<point x="1242" y="0" type="line"/>
		</contour>
	</outline>
</glyph>
<glyph name="M" format="2">
	<unicode hex="004D"/>
	<advance width="2054"/>
	<outline>
		<contour>
			<point x="1028" y="192" type="line"/>
			<point x="550" y="1322" type="line" smooth="yes"/>
			<point x="532" y="1366"/>
			<point x="516" y="1366"/>
			<point x="474" y="1366" type="curve" smooth="yes"/>
			<point x="124" y="1366" type="line"/>
			<point x="124" y="1294" type="line"/>
			<point x="172" y="1294" type="line" smooth="yes"/>
			<point x="326" y="1294"/>
			<point x="330" y="1274"/>
			<point x="330" y="1204" type="curve" smooth="yes"/>
			<point x="330" y="216" type="line" smooth="yes"/>
			<point x="330" y="162"/>
			<point x="330" y="72"/>
			<point x="124" y="72" type="curve"/>
			<point x="124" y="72" type="line"/>
			<point x="124" y="0" type="line"/>
			<point x="206" y="6"/>
			<point x="286" y="8"/>
			<point x="368" y="8" type="curve" smooth="yes"/>
			<point x="450" y="8"/>
			<point x="530" y="6"/>
			<point x="612" y="0" type="curve"/>
			<point x="612" y="72" type="line"/>
			<point x="612" y="72" type="line"/>
			<point x="406" y="72"/>
			<point x="406" y="162"/>
			<point x="406" y="216" type="curve" smooth="yes"/>
			<point x="406" y="1270" type="line"/>
			<point x="408" y="1272" type="line"/>
			<point x="928" y="46" type="line" smooth="yes"/>
			<point x="938" y="22"/>
			<point x="948" y="0"/>
			<point x="978" y="0" type="curve" smooth="yes"/>
			<point x="992" y="0"/>
			<point x="1010" y="6"/>
			<point x="1026" y="42" type="curve" smooth="yes"/>
			<point x="1554" y="1292" type="line"/>
			<point x="1556" y="1290" type="line"/>
			<point x="1556" y="162" type="line" smooth="yes"/>
			<point x="1556" y="94"/>
			<point x="1552" y="72"/>
			<point x="1398" y="72" type="curve" smooth="yes"/>
			<point x="1350" y="72" type="line"/>
			<point x="1350" y="0" type="line"/>
			<point x="1446" y="4"/>
			<point x="1558" y="8"/>
			<point x="1640" y="8" type="curve" smooth="yes"/>
			<point x="1722" y="8"/>
			<point x="1834" y="4"/>
			<point x="1930" y="0" type="curve"/>
			<point x="1930" y="72" type="line"/>
			<point x="1882" y="72" type="line" smooth="yes"/>
			<point x="1728" y="72"/>
			<point x="1724" y="92"/>
			<point x="1724" y="162" type="curve" smooth="yes"/>
			<point x="1724" y="1204" type="line" smooth="yes"/>
			<point x="1724" y="1272"/>
			<point x="1728" y="1294"/>
			<point x="1882" y="1294" type="curve" smooth="yes"/>
			<point x="1930" y="1294" type="line"/>
			<point x="1930" y="1366" type="line"/>
			<point x="1582" y="1366" type="line" smooth="yes"/>
			<point x="1542" y="1366"/>
			<point x="1524" y="1366"/>
			<point x="1508" y="1326" type="curve" smooth="yes"/>
		</contour>
	</outline>
</glyph>
<glyph name="N" format="2">
	<unicode hex="004E"/>
	<advance width="1686"/>
	<outline>
		<contour>
			<point x="1290" y="302" type="line"/>
			<point x="522" y="1336" type="line" smooth="yes"/>
			<point x="500" y="1364"/>
			<point x="498" y="1366"/>
			<point x="458" y="1366" type="curve" smooth="yes"/>
			<point x="112" y="1366" type="line"/>
			<point x="112" y="1294" type="line"/>
			<point x="172" y="1294" type="line" smooth="yes"/>
			<point x="258" y="1294"/>
			<point x="308" y="1284"/>
			<point x="318" y="1282" type="curve"/>
			<point x="318" y="1282"/>
			<point x="318" y="1282"/>
			<point x="318" y="1282" type="curve"/>
			<point x="318" y="216" type="line" smooth="yes"/>
			<point x="318" y="162"/>
			<point x="318" y="72"/>
			<point x="112" y="72" type="curve"/>
			<point x="112" y="72" type="line"/>
			<point x="112" y="0" type="line"/>
			<point x="194" y="6"/>
			<point x="274" y="8"/>
			<point x="356" y="8" type="curve" smooth="yes"/>
			<point x="438" y="8"/>
			<point x="518" y="6"/>
			<point x="600" y="0" type="curve"/>
			<point x="600" y="72" type="line"/>
			<point x="600" y="72" type="line"/>
			<point x="394" y="72"/>
			<point x="394" y="162"/>
			<point x="394" y="216" type="curve" smooth="yes"/>
			<point x="394" y="1226" type="line"/>
			<point x="394" y="1226"/>
			<point x="394" y="1226"/>
			<point x="394" y="1226" type="curve"/>
			<point x="1282" y="30" type="line" smooth="yes"/>
			<point x="1302" y="2"/>
			<point x="1304" y="0"/>
			<point x="1328" y="0" type="curve" smooth="yes"/>
			<point x="1366" y="0"/>
			<point x="1366" y="18"/>
			<point x="1366" y="56" type="curve" smooth="yes"/>
			<point x="1366" y="1150" type="line" smooth="yes"/>
			<point x="1366" y="1204"/>
			<point x="1366" y="1294"/>
			<point x="1572" y="1294" type="curve"/>
			<point x="1572" y="1294" type="line"/>
			<point x="1572" y="1366" type="line"/>
			<point x="1490" y="1360"/>
			<point x="1410" y="1358"/>
			<point x="1328" y="1358" type="curve" smooth="yes"/>
			<point x="1246" y="1358"/>
			<point x="1166" y="1360"/>
			<point x="1084" y="1366" type="curve"/>
			<point x="1084" y="1294" type="line"/>
			<point x="1084" y="1294" type="line"/>
			<point x="1290" y="1294"/>
			<point x="1290" y="1204"/>
			<point x="1290" y="1150" type="curve" smooth="yes"/>
		</contour>
	</outline>
</glyph>
<glyph name="O" format="2">
  <advance width="877"/>
  <unicode hex="004F"/>
  <outline>
    <contour>
      <point x="806" y="338" type="curve" smooth="yes"/>
      <point x="806" y="538"/>
      <point x="642" y="703"/>
      <point x="438" y="703" type="curve" smooth="yes"/>
      <point x="233" y="703"/>
      <point x="70" y="538"/>
      <point x="70" y="338" type="curve" smooth="yes"/>
      <point x="70" y="142"/>
      <point x="233" y="-20"/>
      <point x="438" y="-20" type="curve" smooth="yes"/>
      <point x="643" y="-20"/>
      <point x="806" y="142"/>
    </contour>
    <contour>
      <point x="438" y="13" type="curve" smooth="yes"/>
      <point x="382" y="13"/>
      <point x="319.7372834877" y="34.790524765499995"/>
      <point x="270.1013253097937" y="84.52340184863357" type="curve" smooth="yes"/>
      <point x="216.0980080656" y="138.63216567989997"/>
      <point x="177.0" y="225.81678"/>
      <point x="177" y="354" type="curve" smooth="yes"/>
      <point x="177" y="470"/>
      <point x="213.46830190080001" y="548.6408180992"/>
      <point x="264.1631116484199" y="598.919836693971" type="curve" smooth="yes"/>
      <point x="315.24875834880004" y="649.5864866559999"/>
      <point x="381" y="671"/>
      <point x="438" y="671" type="curve" smooth="yes"/>
      <point x="495.6555" y="671.0"/>
      <point x="561.7518410625" y="649.2584396875"/>
      <point x="613.0038120928125" y="597.7548574632187" type="curve" smooth="yes"/>
      <point x="663.0903898125" y="547.4223898125"/>
      <point x="699" y="469"/>
      <point x="699" y="354" type="curve" smooth="yes"/>
      <point x="699.0" y="226.75896"/>
      <point x="660.4746406656" y="139.91603985760003"/>
      <point x="607.0870645205734" y="85.7219063486403" type="curve" smooth="yes"/>
      <point x="557.2583848752" y="35.14043567200002"/>
      <point x="494.48292000000004" y="13.000000000000007"/>
    </contour>
  </outline>
</glyph>
<glyph name="P" format="2">
	<unicode hex="0050"/>
	<advance width="1534"/>
	<outline>
		<contour>
			<point x="512" y="620" type="line"/>
			<point x="876" y="620" type="line" smooth="yes"/>
			<point x="1166" y="620"/>
			<point x="1394" y="788"/>
			<point x="1394" y="990" type="curve" smooth="yes"/>
			<point x="1394" y="1188"/>
			<point x="1170" y="1366"/>
			<point x="876" y="1366" type="curve" smooth="yes"/>
			<point x="116" y="1366" type="line"/>
			<point x="116" y="1294" type="line"/>
			<point x="164" y="1294" type="line" smooth="yes"/>
			<point x="318" y="1294"/>
			<point x="322" y="1274"/>
			<point x="322" y="1204" type="curve" smooth="yes"/>
			<point x="322" y="162" type="line" smooth="yes"/>
			<point x="322" y="94"/>
			<point x="318" y="72"/>
			<point x="164" y="72" type="curve" smooth="yes"/>
			<point x="116" y="72" type="line"/>
			<point x="116" y="0" type="line"/>
			<point x="216" y="4"/>
			<point x="344" y="8"/>
			<point x="416" y="8" type="curve" smooth="yes"/>
			<point x="490" y="8"/>
			<point x="618" y="4"/>
			<point x="718" y="0" type="curve"/>
			<point x="718" y="72" type="line"/>
			<point x="670" y="72" type="line" smooth="yes"/>
			<point x="516" y="72"/>
			<point x="512" y="92"/>
			<point x="512" y="162" type="curve" smooth="yes"/>
		</contour>
		<contour>
			<point x="504" y="684" type="line"/>
			<point x="504" y="1216" type="line" smooth="yes"/>
			<point x="504" y="1278"/>
			<point x="506" y="1294"/>
			<point x="600" y="1294" type="curve" smooth="yes"/>
			<point x="826" y="1294" type="line" smooth="yes"/>
			<point x="1160" y="1294"/>
			<point x="1180" y="1106"/>
			<point x="1180" y="990" type="curve" smooth="yes"/>
			<point x="1180" y="902"/>
			<point x="1180" y="684"/>
			<point x="826" y="684" type="curve" smooth="yes"/>
		</contour>
	</outline>
</glyph>
<glyph name="Q" format="2">
	<unicode hex="0051"/>
	<advance width="1754"/>
	<outline>
		<contour>
			<point x="1164" y="18" type="curve"/>
			<point x="1416" y="118"/>
			<point x="1612" y="372"/>
			<point x="1612" y="676" type="curve" smooth="yes"/>
			<point x="1612" y="1076"/>
			<point x="1284" y="1406"/>
			<point x="876" y="1406" type="curve" smooth="yes"/>
			<point x="466" y="1406"/>
			<point x="140" y="1076"/>
			<point x="140" y="676" type="curve" smooth="yes"/>
			<point x="140" y="284"/>
			<point x="466" y="-40"/>
			<point x="876" y="-40" type="curve" smooth="yes"/>
			<point x="900" y="-40"/>
			<point x="980" y="-40"/>
			<point x="1080" y="-12" type="curve"/>
			<point x="1126" y="-212"/>
			<point x="1168" y="-388"/>
			<point x="1354" y="-388" type="curve" smooth="yes"/>
			<point x="1564" y="-388"/>
			<point x="1624" y="-140"/>
			<point x="1624" y="-16" type="curve" smooth="yes"/>
			<point x="1624" y="0"/>
			<point x="1624" y="28"/>
			<point x="1596" y="28" type="curve" smooth="yes"/>
			<point x="1572" y="28"/>
			<point x="1570" y="6"/>
			<point x="1568" y="-10" type="curve" smooth="yes"/>
			<point x="1554" y="-128"/>
			<point x="1450" y="-174"/>
			<point x="1372" y="-174" type="curve" smooth="yes"/>
			<point x="1266" y="-174"/>
			<point x="1216" y="-92"/>
		</contour>
		<contour>
			<point x="716" y="52" type="curve"/>
			<point x="540" y="112"/>
			<point x="346" y="294"/>
			<point x="346" y="678" type="curve" smooth="yes"/>
			<point x="346" y="918"/>
			<point x="421" y="1087"/>
			<point x="527" y="1194" type="curve" smooth="yes"/>
			<point x="627" y="1296"/>
			<point x="756" y="1342"/>
			<point x="876" y="1342" type="curve" smooth="yes"/>
			<point x="994" y="1342"/>
			<point x="1121" y="1297"/>
			<point x="1220" y="1199" type="curve" smooth="yes"/>
			<point x="1329" y="1092"/>
			<point x="1406" y="922"/>
			<point x="1406" y="678" type="curve" smooth="yes"/>
			<point x="1406" y="324"/>
			<point x="1242" y="160"/>
			<point x="1126" y="94" type="curve"/>
			<point x="1076" y="194"/>
			<point x="1008" y="302"/>
			<point x="878" y="302" type="curve" smooth="yes"/>
			<point x="774" y="302"/>
			<point x="694" y="226"/>
			<point x="694" y="132" type="curve" smooth="yes"/>
			<point x="694" y="104"/>
			<point x="702" y="74"/>
		</contour>
		<contour>
			<point x="1060" y="60" type="curve"/>
			<point x="1026" y="46"/>
			<point x="956" y="24"/>
			<point x="876" y="24" type="curve" smooth="yes"/>
			<point x="770" y="24"/>
			<point x="750" y="102"/>
			<point x="750" y="134" type="curve" smooth="yes"/>
			<point x="750" y="192"/>
			<point x="802" y="246"/>
			<point x="878" y="246" type="curve" smooth="yes"/>
			<point x="980" y="246"/>
			<point x="1028" y="172"/>
		</contour>
	</outline>
</glyph>
<glyph name="R" format="2">
	<unicode hex="0052"/>
	<advance width="1658"/>
	<outline>
		<contour>
			<point x="1004" y="682" type="curve"/>
			<point x="1184" y="724"/>
			<point x="1364" y="842"/>
			<point x="1364" y="1004" type="curve" smooth="yes"/>
			<point x="1364" y="1204"/>
			<point x="1100" y="1366"/>
			<point x="790" y="1366" type="curve" smooth="yes"/>
			<point x="116" y="1366" type="line"/>
			<point x="116" y="1294" type="line"/>
			<point x="164" y="1294" type="line" smooth="yes"/>
			<point x="318" y="1294"/>
			<point x="322" y="1274"/>
			<point x="322" y="1204" type="curve" smooth="yes"/>
			<point x="322" y="162" type="line" smooth="yes"/>
			<point x="322" y="94"/>
			<point x="318" y="72"/>
			<point x="164" y="72" type="curve" smooth="yes"/>
			<point x="116" y="72" type="line"/>
			<point x="116" y="0" type="line"/>
			<point x="118" y="0"/>
			<point x="330" y="8"/>
			<point x="412" y="8" type="curve" smooth="yes"/>
			<point x="496" y="8"/>
			<point x="610" y="4"/>
			<point x="710" y="0" type="curve"/>
			<point x="710" y="72" type="line"/>
			<point x="662" y="72" type="line" smooth="yes"/>
			<point x="508" y="72"/>
			<point x="504" y="92"/>
			<point x="504" y="162" type="curve" smooth="yes"/>
			<point x="504" y="656" type="line"/>
			<point x="770" y="656" type="line" smooth="yes"/>
			<point x="806" y="656"/>
			<point x="910" y="656"/>
			<point x="998" y="574" type="curve" smooth="yes"/>
			<point x="1068" y="512"/>
			<point x="1068" y="462"/>
			<point x="1068" y="328" type="curve" smooth="yes"/>
			<point x="1068" y="198"/>
			<point x="1068" y="116"/>
			<point x="1160" y="40" type="curve" smooth="yes"/>
			<point x="1246" y="-30"/>
			<point x="1364" y="-40"/>
			<point x="1420" y="-40" type="curve" smooth="yes"/>
			<point x="1590" y="-40"/>
			<point x="1634" y="122"/>
			<point x="1634" y="182" type="curve" smooth="yes"/>
			<point x="1634" y="196"/>
			<point x="1634" y="220"/>
			<point x="1600" y="220" type="curve" smooth="yes"/>
			<point x="1570" y="220"/>
			<point x="1568" y="202"/>
			<point x="1566" y="182" type="curve" smooth="yes"/>
			<point x="1556" y="66"/>
			<point x="1490" y="16"/>
			<point x="1428" y="16" type="curve" smooth="yes"/>
			<point x="1314" y="16"/>
			<point x="1298" y="134"/>
			<point x="1274" y="316" type="curve" smooth="yes"/>
			<point x="1252" y="476"/>
			<point x="1246" y="508"/>
			<point x="1188" y="574" type="curve" smooth="yes"/>
			<point x="1168" y="596"/>
			<point x="1112" y="648"/>
		</contour>
		<contour>
			<point x="504" y="712" type="line"/>
			<point x="504" y="1216" type="line" smooth="yes"/>
			<point x="504" y="1272"/>
			<point x="506" y="1286"/>
			<point x="558" y="1292" type="curve" smooth="yes"/>
			<point x="574" y="1294"/>
			<point x="642" y="1294"/>
			<point x="684" y="1294" type="curve" smooth="yes"/>
			<point x="876" y="1294"/>
			<point x="1150" y="1294"/>
			<point x="1150" y="1004" type="curve" smooth="yes"/>
			<point x="1150" y="780"/>
			<point x="976" y="712"/>
			<point x="764" y="712" type="curve" smooth="yes"/>
		</contour>
	</outline>
</glyph>
<glyph name="S" format="2">
	<unicode hex="0053"/>
	<advance width="1260"/>
	<outline>
		<contour>
			<point x="992" y="314" type="curve" smooth="yes"/>
			<point x="992" y="174"/>
			<point x="876" y="32"/>
			<point x="684" y="32" type="curve" smooth="yes"/>
			<point x="490" y="32"/>
			<point x="222" y="108"/>
			<point x="208" y="410" type="curve" smooth="yes"/>
			<point x="206" y="442"/>
			<point x="206" y="454"/>
			<point x="174" y="454" type="curve" smooth="yes"/>
			<point x="140" y="454"/>
			<point x="140" y="440"/>
			<point x="140" y="400" type="curve" smooth="yes"/>
			<point x="140" y="12" type="line" smooth="yes"/>
			<point x="140" y="-22"/>
			<point x="140" y="-40"/>
			<point x="168" y="-40" type="curve" smooth="yes"/>
			<point x="184" y="-40"/>
			<point x="188" y="-34"/>
			<point x="200" y="-16" type="curve" smooth="yes"/>
			<point x="225" y="22"/>
			<point x="249" y="60"/>
			<point x="274" y="98" type="curve"/>
			<point x="400" y="-12"/>
			<point x="554" y="-40"/>
			<point x="684" y="-40" type="curve" smooth="yes"/>
			<point x="948" y="-40"/>
			<point x="1120" y="158"/>
			<point x="1120" y="370" type="curve" smooth="yes"/>
			<point x="1120" y="476"/>
			<point x="1076" y="579"/>
			<point x="1000" y="654" type="curve" smooth="yes"/>
			<point x="946" y="707"/>
			<point x="876" y="747"/>
			<point x="794" y="766" type="curve" smooth="yes"/>
			<point x="696" y="788"/>
			<point x="596" y="812"/>
			<point x="498" y="834" type="curve" smooth="yes"/>
			<point x="322" y="874"/>
			<point x="268" y="1000"/>
			<point x="268" y="1084" type="curve" smooth="yes"/>
			<point x="268" y="1216"/>
			<point x="390" y="1342"/>
			<point x="572" y="1342" type="curve" smooth="yes"/>
			<point x="842" y="1342"/>
			<point x="958" y="1162"/>
			<point x="990" y="952" type="curve" smooth="yes"/>
			<point x="994" y="922"/>
			<point x="996" y="912"/>
			<point x="1026" y="912" type="curve" smooth="yes"/>
			<point x="1060" y="912"/>
			<point x="1060" y="926"/>
			<point x="1060" y="964" type="curve" smooth="yes"/>
			<point x="1060" y="1354" type="line" smooth="yes"/>
			<point x="1060" y="1388"/>
			<point x="1060" y="1406"/>
			<point x="1032" y="1406" type="curve" smooth="yes"/>
			<point x="1016" y="1406"/>
			<point x="1012" y="1400"/>
			<point x="998" y="1378" type="curve" smooth="yes"/>
			<point x="974" y="1341"/>
			<point x="950" y="1303"/>
			<point x="926" y="1266" type="curve"/>
			<point x="794" y="1400"/>
			<point x="628" y="1406"/>
			<point x="572" y="1406" type="curve" smooth="yes"/>
			<point x="320" y="1406"/>
			<point x="140" y="1226"/>
			<point x="140" y="1024" type="curve" smooth="yes"/>
			<point x="140" y="912"/>
			<point x="190" y="826"/>
			<point x="262" y="758" type="curve" smooth="yes"/>
			<point x="342" y="680"/>
			<point x="408" y="666"/>
			<point x="624" y="618" type="curve" smooth="yes"/>
			<point x="806" y="578"/>
			<point x="846" y="570"/>
			<point x="904" y="514" type="curve" smooth="yes"/>
			<point x="950" y="468"/>
			<point x="992" y="404"/>
		</contour>
	</outline>
</glyph>
<glyph name="U" format="2">
	<unicode hex="0055"/>
	<advance width="1686"/>
	<outline>
		<contour>
			<point x="874" y="32" type="curve" smooth="yes"/>
			<point x="756" y="32"/>
			<point x="508" y="94"/>
			<point x="508" y="454" type="curve" smooth="yes"/>
			<point x="508" y="1204" type="line" smooth="yes"/>
			<point x="508" y="1272"/>
			<point x="512" y="1294"/>
			<point x="666" y="1294" type="curve" smooth="yes"/>
			<point x="714" y="1294" type="line"/>
			<point x="714" y="1366" type="line"/>
			<point x="614" y="1362"/>
			<point x="486" y="1358"/>
			<point x="414" y="1358" type="curve" smooth="yes"/>
			<point x="340" y="1358"/>
			<point x="212" y="1362"/>
			<point x="112" y="1366" type="curve"/>
			<point x="112" y="1294" type="line"/>
			<point x="160" y="1294" type="line" smooth="yes"/>
			<point x="314" y="1294"/>
			<point x="318" y="1274"/>
			<point x="318" y="1204" type="curve" smooth="yes"/>
			<point x="318" y="460" type="line" smooth="yes"/>
			<point x="318" y="172"/>
			<point x="574" y="-40"/>
			<point x="870" y="-40" type="curve" smooth="yes"/>
			<point x="1144" y="-40"/>
			<point x="1366" y="178"/>
			<point x="1366" y="458" type="curve" smooth="yes"/>
			<point x="1366" y="1150" type="line" smooth="yes"/>
			<point x="1366" y="1204"/>
			<point x="1366" y="1294"/>
			<point x="1572" y="1294" type="curve"/>
			<point x="1572" y="1294" type="line"/>
			<point x="1572" y="1366" type="line"/>
			<point x="1492" y="1360"/>
			<point x="1410" y="1358"/>
			<point x="1330" y="1358" type="curve" smooth="yes"/>
			<point x="1250" y="1358"/>
			<point x="1168" y="1360"/>
			<point x="1088" y="1366" type="curve"/>
			<point x="1088" y="1294" type="line"/>
			<point x="1088" y="1294" type="line"/>
			<point x="1294" y="1294"/>
			<point x="1294" y="1204"/>
			<point x="1294" y="1150" type="curve" smooth="yes"/>
			<point x="1294" y="464" type="line" smooth="yes"/>
			<point x="1294" y="188"/>
			<point x="1082" y="32"/>
		</contour>
	</outline>
</glyph>
<glyph name="V" format="2">
	<unicode hex="0056"/>
	<advance width="1686"/>
	<outline>
		<contour>
			<point x="842" y="-40" type="curve" smooth="yes"/>
			<point x="862" y="-40"/>
			<point x="882" y="-40"/>
			<point x="900" y="2" type="curve" smooth="yes"/>
			<point x="1396" y="1162" type="line" smooth="yes"/>
			<point x="1422" y="1224"/>
			<point x="1470" y="1292"/>
			<point x="1622" y="1294" type="curve"/>
			<point x="1622" y="1294" type="line"/>
			<point x="1622" y="1366" type="line"/>
			<point x="1564" y="1360"/>
			<point x="1486" y="1358"/>
			<point x="1428" y="1358" type="curve" smooth="yes"/>
			<point x="1348" y="1358"/>
			<point x="1200" y="1366"/>
			<point x="1188" y="1366" type="curve"/>
			<point x="1188" y="1294" type="line"/>
			<point x="1262" y="1294"/>
			<point x="1326" y="1262"/>
			<point x="1326" y="1200" type="curve" smooth="yes"/>
			<point x="1326" y="1186"/>
			<point x="1322" y="1172"/>
			<point x="1316" y="1158" type="curve" smooth="yes"/>
			<point x="902" y="192" type="line"/>
			<point x="470" y="1206" type="line"/>
			<point x="458" y="1230"/>
			<point x="458" y="1234"/>
			<point x="458" y="1240" type="curve" smooth="yes"/>
			<point x="458" y="1294"/>
			<point x="562" y="1294"/>
			<point x="616" y="1294" type="curve"/>
			<point x="616" y="1366" type="line"/>
			<point x="516" y="1362"/>
			<point x="388" y="1358"/>
			<point x="318" y="1358" type="curve" smooth="yes"/>
			<point x="218" y="1358"/>
			<point x="68" y="1366"/>
			<point x="62" y="1366" type="curve"/>
			<point x="62" y="1294" type="line"/>
			<point x="96" y="1294" type="line" smooth="yes"/>
			<point x="204" y="1294"/>
			<point x="238" y="1284"/>
			<point x="264" y="1222" type="curve" smooth="yes"/>
			<point x="784" y="6" type="line" smooth="yes"/>
			<point x="798" y="-26"/>
			<point x="804" y="-40"/>
		</contour>
	</outline>
</glyph>
<glyph name="W" format="2">
	<unicode hex="0057"/>
	<advance width="2300"/>
	<outline>
		<contour>
			<point x="792" y="230" type="line"/>
			<point x="444" y="1202" type="line" smooth="yes"/>
			<point x="434" y="1228"/>
			<point x="434" y="1232"/>
			<point x="434" y="1238" type="curve" smooth="yes"/>
			<point x="434" y="1294"/>
			<point x="548" y="1294"/>
			<point x="600" y="1294" type="curve"/>
			<point x="600" y="1366" type="line"/>
			<point x="500" y="1362"/>
			<point x="372" y="1358"/>
			<point x="302" y="1358" type="curve" smooth="yes"/>
			<point x="220" y="1358"/>
			<point x="140" y="1360"/>
			<point x="58" y="1366" type="curve"/>
			<point x="58" y="1294" type="line"/>
			<point x="58" y="1294" type="line"/>
			<point x="182" y="1294"/>
			<point x="218" y="1294"/>
			<point x="244" y="1220" type="curve" smooth="yes"/>
			<point x="678" y="6" type="line" smooth="yes"/>
			<point x="690" y="-28"/>
			<point x="700" y="-40"/>
			<point x="732" y="-40" type="curve" smooth="yes"/>
			<point x="768" y="-40"/>
			<point x="774" y="-20"/>
			<point x="784" y="6" type="curve" smooth="yes"/>
			<point x="1150" y="1028" type="line"/>
			<point x="1516" y="6" type="line" smooth="yes"/>
			<point x="1526" y="-20"/>
			<point x="1532" y="-40"/>
			<point x="1568" y="-40" type="curve" smooth="yes"/>
			<point x="1602" y="-40"/>
			<point x="1610" y="-26"/>
			<point x="1622" y="6" type="curve" smooth="yes"/>
			<point x="2036" y="1162" type="line" smooth="yes"/>
			<point x="2062" y="1234"/>
			<point x="2110" y="1294"/>
			<point x="2242" y="1294" type="curve"/>
			<point x="2242" y="1294" type="line"/>
			<point x="2242" y="1366" type="line"/>
			<point x="2222" y="1364"/>
			<point x="2114" y="1358"/>
			<point x="2056" y="1358" type="curve" smooth="yes"/>
			<point x="1972" y="1358"/>
			<point x="1886" y="1362"/>
			<point x="1802" y="1366" type="curve"/>
			<point x="1802" y="1294" type="line"/>
			<point x="1916" y="1292"/>
			<point x="1970" y="1244"/>
			<point x="1970" y="1192" type="curve" smooth="yes"/>
			<point x="1970" y="1184"/>
			<point x="1970" y="1180"/>
			<point x="1960" y="1154" type="curve" smooth="yes"/>
			<point x="1630" y="230" type="line"/>
			<point x="1280" y="1210" type="line" smooth="yes"/>
			<point x="1272" y="1232"/>
			<point x="1272" y="1236"/>
			<point x="1272" y="1238" type="curve" smooth="yes"/>
			<point x="1272" y="1294"/>
			<point x="1386" y="1294"/>
			<point x="1438" y="1294" type="curve"/>
			<point x="1438" y="1366" type="line"/>
			<point x="1338" y="1362"/>
			<point x="1210" y="1358"/>
			<point x="1140" y="1358" type="curve" smooth="yes"/>
			<point x="1058" y="1358"/>
			<point x="978" y="1360"/>
			<point x="896" y="1366" type="curve"/>
			<point x="896" y="1294" type="line"/>
			<point x="896" y="1294" type="line"/>
			<point x="1002" y="1294"/>
			<point x="1036" y="1290"/>
			<point x="1058" y="1264" type="curve" smooth="yes"/>
			<point x="1072" y="1248"/>
			<point x="1098" y="1174"/>
			<point x="1114" y="1128" type="curve"/>
		</contour>
	</outline>
</glyph>
<glyph name="X" format="2">
	<unicode hex="0058"/>
	<advance width="1686"/>
	<outline>
		<contour>
			<point x="904" y="766" type="line"/>
			<point x="1214" y="1170" type="line" smooth="yes"/>
			<point x="1306" y="1292"/>
			<point x="1460" y="1294"/>
			<point x="1516" y="1294" type="curve"/>
			<point x="1516" y="1294" type="line"/>
			<point x="1516" y="1366" type="line"/>
			<point x="1442" y="1360"/>
			<point x="1368" y="1358"/>
			<point x="1294" y="1358" type="curve" smooth="yes"/>
			<point x="1206" y="1358"/>
			<point x="1116" y="1362"/>
			<point x="1028" y="1366" type="curve"/>
			<point x="1028" y="1294" type="line"/>
			<point x="1120" y="1290"/>
			<point x="1138" y="1234"/>
			<point x="1138" y="1212" type="curve" smooth="yes"/>
			<point x="1138" y="1188"/>
			<point x="1128" y="1176"/>
			<point x="1114" y="1158" type="curve" smooth="yes"/>
			<point x="860" y="826" type="line"/>
			<point x="572" y="1208" type="line"/>
			<point x="554" y="1228"/>
			<point x="554" y="1232"/>
			<point x="554" y="1238" type="curve" smooth="yes"/>
			<point x="554" y="1264"/>
			<point x="600" y="1292"/>
			<point x="672" y="1294" type="curve"/>
			<point x="672" y="1366" type="line"/>
			<point x="662" y="1366"/>
			<point x="444" y="1358"/>
			<point x="368" y="1358" type="curve" smooth="yes"/>
			<point x="272" y="1358"/>
			<point x="118" y="1366"/>
			<point x="106" y="1366" type="curve"/>
			<point x="106" y="1294" type="line"/>
			<point x="146" y="1294" type="line" smooth="yes"/>
			<point x="264" y="1294"/>
			<point x="298" y="1280"/>
			<point x="338" y="1226" type="curve" smooth="yes"/>
			<point x="748" y="680" type="line"/>
			<point x="384" y="204" type="line" smooth="yes"/>
			<point x="344" y="152"/>
			<point x="268" y="72"/>
			<point x="76" y="72" type="curve"/>
			<point x="76" y="72" type="line"/>
			<point x="76" y="0" type="line"/>
			<point x="150" y="6"/>
			<point x="224" y="8"/>
			<point x="298" y="8" type="curve" smooth="yes"/>
			<point x="394" y="8"/>
			<point x="554" y="0"/>
			<point x="564" y="0" type="curve"/>
			<point x="564" y="72" type="line"/>
			<point x="480" y="76"/>
			<point x="454" y="124"/>
			<point x="454" y="154" type="curve" smooth="yes"/>
			<point x="454" y="160"/>
			<point x="454" y="180"/>
			<point x="476" y="208" type="curve" smooth="yes"/>
			<point x="794" y="622" type="line"/>
			<point x="1146" y="156" type="line"/>
			<point x="1150" y="150"/>
			<point x="1160" y="136"/>
			<point x="1160" y="128" type="curve" smooth="yes"/>
			<point x="1160" y="104"/>
			<point x="1122" y="74"/>
			<point x="1042" y="72" type="curve"/>
			<point x="1042" y="0" type="line"/>
			<point x="1050" y="0"/>
			<point x="1274" y="8"/>
			<point x="1348" y="8" type="curve" smooth="yes"/>
			<point x="1442" y="8"/>
			<point x="1598" y="0"/>
			<point x="1610" y="0" type="curve"/>
			<point x="1610" y="72" type="line"/>
			<point x="1570" y="72" type="line" smooth="yes"/>
			<point x="1438" y="72"/>
			<point x="1414" y="92"/>
			<point x="1378" y="140" type="curve" smooth="yes"/>
		</contour>
	</outline>
</glyph>
<glyph name="Y" format="2">
	<unicode hex="0059"/>
	<advance width="1686"/>
	<outline>
		<contour>
			<point x="750" y="546" type="line"/>
			<point x="750" y="162" type="line" smooth="yes"/>
			<point x="750" y="94"/>
			<point x="746" y="72"/>
			<point x="592" y="72" type="curve" smooth="yes"/>
			<point x="544" y="72" type="line"/>
			<point x="544" y="0" type="line"/>
			<point x="548" y="0"/>
			<point x="758" y="8"/>
			<point x="842" y="8" type="curve" smooth="yes"/>
			<point x="912" y="8"/>
			<point x="1130" y="0"/>
			<point x="1140" y="0" type="curve"/>
			<point x="1140" y="72" type="line"/>
			<point x="1090" y="72" type="line" smooth="yes"/>
			<point x="936" y="72"/>
			<point x="932" y="92"/>
			<point x="932" y="170" type="curve" smooth="yes"/>
			<point x="932" y="546" type="line"/>
			<point x="1364" y="1164" type="line" smooth="yes"/>
			<point x="1450" y="1288"/>
			<point x="1578" y="1294"/>
			<point x="1636" y="1294" type="curve"/>
			<point x="1636" y="1294" type="line"/>
			<point x="1636" y="1366" type="line"/>
			<point x="1578" y="1360"/>
			<point x="1500" y="1358"/>
			<point x="1440" y="1358" type="curve" smooth="yes"/>
			<point x="1360" y="1358"/>
			<point x="1212" y="1366"/>
			<point x="1200" y="1366" type="curve"/>
			<point x="1200" y="1294" type="line"/>
			<point x="1266" y="1294"/>
			<point x="1302" y="1264"/>
			<point x="1302" y="1224" type="curve" smooth="yes"/>
			<point x="1302" y="1198"/>
			<point x="1284" y="1174"/>
			<point x="1274" y="1158" type="curve"/>
			<point x="910" y="638" type="line"/>
			<point x="508" y="1214" type="line" smooth="yes"/>
			<point x="490" y="1238"/>
			<point x="490" y="1242"/>
			<point x="490" y="1250" type="curve" smooth="yes"/>
			<point x="490" y="1294"/>
			<point x="570" y="1294"/>
			<point x="620" y="1294" type="curve"/>
			<point x="620" y="1366" type="line"/>
			<point x="606" y="1366"/>
			<point x="388" y="1358"/>
			<point x="312" y="1358" type="curve" smooth="yes"/>
			<point x="208" y="1358"/>
			<point x="50" y="1366"/>
			<point x="48" y="1366" type="curve"/>
			<point x="48" y="1294" type="line"/>
			<point x="88" y="1294" type="line" smooth="yes"/>
			<point x="192" y="1294"/>
			<point x="236" y="1284"/>
			<point x="276" y="1226" type="curve" smooth="yes"/>
		</contour>
	</outline>
</glyph>
<glyph name="Z" format="2">
	<unicode hex="005A"/>
	<advance width="1384"/>
	<outline>
		<contour>
			<point x="196" y="0" type="curve" smooth="yes"/>
			<point x="1220" y="0" type="line"/>
			<point x="1256" y="546" type="line"/>
			<point x="1188" y="546" type="line"/>
			<point x="1170" y="278"/>
			<point x="1134" y="80"/>
			<point x="742" y="80" type="curve" smooth="yes"/>
			<point x="370" y="80" type="line"/>
			<point x="1226" y="1284" type="line" smooth="yes"/>
			<point x="1242" y="1306"/>
			<point x="1242" y="1316"/>
			<point x="1242" y="1328" type="curve" smooth="yes"/>
			<point x="1242" y="1366"/>
			<point x="1224" y="1366"/>
			<point x="1186" y="1366" type="curve" smooth="yes"/>
			<point x="194" y="1366" type="line"/>
			<point x="170" y="906" type="line"/>
			<point x="238" y="906" type="line"/>
			<point x="256" y="1204"/>
			<point x="398" y="1294"/>
			<point x="664" y="1294" type="curve" smooth="yes"/>
			<point x="1014" y="1294" type="line"/>
			<point x="158" y="86" type="line" smooth="yes"/>
			<point x="140" y="62"/>
			<point x="140" y="58"/>
			<point x="140" y="40" type="curve" smooth="yes"/>
			<point x="140" y="0"/>
			<point x="156" y="0"/>
		</contour>
	</outline>
</glyph>
<glyph name="bracketleft" format="2">
	<unicode hex="005B"/>
	<advance width="646"/>
	<outline>
		<contour>
			<point x="580" y="1402" type="line"/>
			<point x="580" y="1500" type="line"/>
			<point x="272" y="1500" type="line"/>
			<point x="272" y="-500" type="line"/>
			<point x="580" y="-500" type="line"/>
			<point x="580" y="-402" type="line"/>
			<point x="370" y="-402" type="line"/>
			<point x="370" y="1402" type="line"/>
		</contour>
	</outline>
</glyph>
<glyph name="bracketright" format="2">
	<unicode hex="005D"/>
	<advance width="323"/>
	<outline>
		<contour>
			<point x="186" y="750" type="line"/>
			<point x="32" y="750" type="line"/>
			<point x="32" y="701" type="line"/>
			<point x="137" y="701" type="line"/>
			<point x="137" y="-201" type="line"/>
			<point x="32" y="-201" type="line"/>
			<point x="32" y="-250" type="line"/>
			<point x="186" y="-250" type="line"/>
		</contour>
	</outline>
</glyph>
<glyph name="grave" format="2">
	<unicode hex="0060"/>
	<advance width="1138"/>
	<outline>
		<contour>
			<point x="620" y="1012" type="line"/>
			<point x="666" y="1062" type="line"/>
			<point x="402" y="1360" type="line" smooth="yes"/>
			<point x="370" y="1396"/>
			<point x="344" y="1396"/>
			<point x="336" y="1396" type="curve" smooth="yes"/>
			<point x="288" y="1396"/>
			<point x="254" y="1352"/>
			<point x="254" y="1314" type="curve" smooth="yes"/>
			<point x="254" y="1294"/>
			<point x="260" y="1270"/>
			<point x="298" y="1242" type="curve" smooth="yes"/>
		</contour>
	</outline>
</glyph>
<glyph name="a" format="2">
	<unicode hex="0061"/>
	<advance width="1138"/>
	<outline>
		<contour>
			<point x="110" y="202" type="curve" smooth="yes"/>
			<point x="110" y="30"/>
			<point x="318" y="-20"/>
			<point x="460" y="-20" type="curve" smooth="yes"/>
			<point x="620" y="-20"/>
			<point x="714" y="70"/>
			<point x="756" y="148" type="curve"/>
			<point x="764" y="66"/>
			<point x="818" y="-10"/>
			<point x="910" y="-10" type="curve" smooth="yes"/>
			<point x="914" y="-10"/>
			<point x="1108" y="-10"/>
			<point x="1108" y="180" type="curve" smooth="yes"/>
			<point x="1108" y="290" type="line"/>
			<point x="1040" y="290" type="line"/>
			<point x="1040" y="182" type="line" smooth="yes"/>
			<point x="1040" y="162"/>
			<point x="1040" y="66"/>
			<point x="966" y="66" type="curve" smooth="yes"/>
			<point x="892" y="66"/>
			<point x="892" y="160"/>
			<point x="892" y="186" type="curve" smooth="yes"/>
			<point x="892" y="536" type="line" smooth="yes"/>
			<point x="892" y="642"/>
			<point x="892" y="718"/>
			<point x="800" y="792" type="curve" smooth="yes"/>
			<point x="718" y="860"/>
			<point x="622" y="892"/>
			<point x="504" y="892" type="curve" smooth="yes"/>
			<point x="314" y="892"/>
			<point x="180" y="820"/>
			<point x="180" y="698" type="curve" smooth="yes"/>
			<point x="180" y="634"/>
			<point x="224" y="600"/>
			<point x="276" y="600" type="curve" smooth="yes"/>
			<point x="330" y="600"/>
			<point x="370" y="640"/>
			<point x="370" y="694" type="curve" smooth="yes"/>
			<point x="370" y="728"/>
			<point x="354" y="770"/>
			<point x="300" y="786" type="curve"/>
			<point x="372" y="836"/>
			<point x="488" y="836"/>
			<point x="500" y="836" type="curve" smooth="yes"/>
			<point x="612" y="836"/>
			<point x="734" y="762"/>
			<point x="734" y="594" type="curve" smooth="yes"/>
			<point x="734" y="532" type="line"/>
			<point x="624" y="528"/>
			<point x="492" y="522"/>
			<point x="346" y="468" type="curve" smooth="yes"/>
			<point x="166" y="402"/>
			<point x="110" y="292"/>
		</contour>
		<contour>
			<point x="278" y="202" type="curve" smooth="yes"/>
			<point x="278" y="312"/>
			<point x="374" y="466"/>
			<point x="734" y="480" type="curve"/>
			<point x="734" y="282" type="line" smooth="yes"/>
			<point x="734" y="205"/>
			<point x="707" y="150"/>
			<point x="668" y="112" type="curve" smooth="yes"/>
			<point x="611" y="55"/>
			<point x="530" y="36"/>
			<point x="476" y="36" type="curve" smooth="yes"/>
			<point x="374" y="36"/>
			<point x="278" y="104"/>
		</contour>
	</outline>
</glyph>
<glyph name="b" format="2">
	<unicode hex="0062"/>
	<advance width="1260"/>
	<outline>
		<contour>
			<point x="248" y="0" type="line"/>
			<point x="316" y="0" type="line"/>
			<point x="339" y="41"/>
			<point x="363" y="81"/>
			<point x="386" y="122" type="curve"/>
			<point x="462" y="22"/>
			<point x="572" y="-20"/>
			<point x="678" y="-20" type="curve" smooth="yes"/>
			<point x="942" y="-20"/>
			<point x="1168" y="178"/>
			<point x="1168" y="432" type="curve" smooth="yes"/>
			<point x="1168" y="676"/>
			<point x="962" y="882"/>
			<point x="700" y="882" type="curve" smooth="yes"/>
			<point x="580" y="882"/>
			<point x="470" y="834"/>
			<point x="398" y="762" type="curve"/>
			<point x="398" y="1388" type="line"/>
			<point x="98" y="1366" type="line"/>
			<point x="98" y="1294" type="line"/>
			<point x="234" y="1294"/>
			<point x="248" y="1278"/>
			<point x="248" y="1178" type="curve" smooth="yes"/>
		</contour>
		<contour>
			<point x="668" y="36" type="curve" smooth="yes"/>
			<point x="508" y="36"/>
			<point x="428" y="162"/>
			<point x="406" y="204" type="curve"/>
			<point x="406" y="204"/>
			<point x="406" y="204"/>
			<point x="406" y="204" type="curve"/>
			<point x="406" y="670" type="line"/>
			<point x="406" y="670"/>
			<point x="406" y="670"/>
			<point x="406" y="670" type="curve"/>
			<point x="462" y="762"/>
			<point x="570" y="826"/>
			<point x="690" y="826" type="curve" smooth="yes"/>
			<point x="802" y="826"/>
			<point x="882" y="762"/>
			<point x="922" y="702" type="curve" smooth="yes"/>
			<point x="962" y="644"/>
			<point x="986" y="566"/>
			<point x="986" y="434" type="curve" smooth="yes"/>
			<point x="986" y="388"/>
			<point x="986" y="238"/>
			<point x="904" y="144" type="curve" smooth="yes"/>
			<point x="824" y="54"/>
			<point x="726" y="36"/>
		</contour>
	</outline>
</glyph>
<glyph name="c" format="2">
	<unicode hex="0063"/>
	<advance width="1014"/>
	<outline>
		<contour>
			<point x="274" y="434" type="curve" smooth="yes"/>
			<point x="274" y="688"/>
			<point x="398" y="828"/>
			<point x="584" y="828" type="curve" smooth="yes"/>
			<point x="610" y="828"/>
			<point x="706" y="828"/>
			<point x="778" y="798" type="curve"/>
			<point x="742" y="782"/>
			<point x="722" y="750"/>
			<point x="722" y="710" type="curve" smooth="yes"/>
			<point x="722" y="656"/>
			<point x="760" y="616"/>
			<point x="816" y="616" type="curve" smooth="yes"/>
			<point x="870" y="616"/>
			<point x="912" y="650"/>
			<point x="912" y="714" type="curve" smooth="yes"/>
			<point x="912" y="892"/>
			<point x="634" y="892"/>
			<point x="578" y="892" type="curve" smooth="yes"/>
			<point x="278" y="892"/>
			<point x="92" y="662"/>
			<point x="92" y="432" type="curve" smooth="yes"/>
			<point x="92" y="180"/>
			<point x="306" y="-20"/>
			<point x="568" y="-20" type="curve" smooth="yes"/>
			<point x="866" y="-20"/>
			<point x="936" y="216"/>
			<point x="936" y="240" type="curve" smooth="yes"/>
			<point x="936" y="264"/>
			<point x="910" y="264"/>
			<point x="902" y="264" type="curve" smooth="yes"/>
			<point x="876" y="264"/>
			<point x="874" y="258"/>
			<point x="864" y="230" type="curve" smooth="yes"/>
			<point x="820" y="106"/>
			<point x="714" y="44"/>
			<point x="592" y="44" type="curve" smooth="yes"/>
			<point x="454" y="44"/>
			<point x="274" y="146"/>
		</contour>
	</outline>
</glyph>
<glyph name="d" format="2">
	<unicode hex="0064"/>
	<advance width="1260"/>
	<outline>
		<contour>
			<point x="854" y="104" type="curve"/>
			<point x="854" y="-20" type="line"/>
			<point x="1162" y="0" type="line"/>
			<point x="1162" y="72" type="line"/>
			<point x="1028" y="72"/>
			<point x="1012" y="86"/>
			<point x="1012" y="184" type="curve" smooth="yes"/>
			<point x="1012" y="1388" type="line"/>
			<point x="712" y="1366" type="line"/>
			<point x="712" y="1294" type="line"/>
			<point x="846" y="1294"/>
			<point x="862" y="1280"/>
			<point x="862" y="1182" type="curve" smooth="yes"/>
			<point x="862" y="768" type="line"/>
			<point x="788" y="840"/>
			<point x="692" y="882"/>
			<point x="582" y="882" type="curve" smooth="yes"/>
			<point x="316" y="882"/>
			<point x="92" y="682"/>
			<point x="92" y="430" type="curve" smooth="yes"/>
			<point x="92" y="180"/>
			<point x="304" y="-20"/>
			<point x="558" y="-20" type="curve" smooth="yes"/>
			<point x="722" y="-20"/>
			<point x="820" y="68"/>
		</contour>
		<contour>
			<point x="274" y="428" type="curve" smooth="yes"/>
			<point x="274" y="474"/>
			<point x="274" y="624"/>
			<point x="356" y="718" type="curve" smooth="yes"/>
			<point x="436" y="808"/>
			<point x="534" y="826"/>
			<point x="592" y="826" type="curve" smooth="yes"/>
			<point x="688" y="826"/>
			<point x="774" y="782"/>
			<point x="830" y="710" type="curve" smooth="yes"/>
			<point x="854" y="678"/>
			<point x="852" y="676"/>
			<point x="854" y="638" type="curve" smooth="yes"/>
			<point x="854" y="210" type="line"/>
			<point x="854" y="210"/>
			<point x="854" y="210"/>
			<point x="854" y="210" type="curve"/>
			<point x="802" y="116"/>
			<point x="700" y="36"/>
			<point x="570" y="36" type="curve" smooth="yes"/>
			<point x="458" y="36"/>
			<point x="378" y="102"/>
			<point x="338" y="160" type="curve" smooth="yes"/>
			<point x="298" y="220"/>
			<point x="274" y="300"/>
		</contour>
	</outline>
</glyph>
<glyph name="e" format="2">
	<unicode hex="0065"/>
	<advance width="1014"/>
	<outline>
		<contour>
			<point x="260" y="456" type="curve"/>
			<point x="880" y="456" type="line" smooth="yes"/>
			<point x="922" y="456"/>
			<point x="936" y="456"/>
			<point x="936" y="500" type="curve" smooth="yes"/>
			<point x="936" y="676"/>
			<point x="838" y="892"/>
			<point x="540" y="892" type="curve" smooth="yes"/>
			<point x="278" y="892"/>
			<point x="78" y="684"/>
			<point x="78" y="438" type="curve" smooth="yes"/>
			<point x="78" y="184"/>
			<point x="300" y="-20"/>
			<point x="566" y="-20" type="curve" smooth="yes"/>
			<point x="836" y="-20"/>
			<point x="936" y="196"/>
			<point x="936" y="240" type="curve" smooth="yes"/>
			<point x="936" y="248"/>
			<point x="932" y="268"/>
			<point x="902" y="268" type="curve" smooth="yes"/>
			<point x="876" y="268"/>
			<point x="872" y="256"/>
			<point x="866" y="236" type="curve"/>
			<point x="804" y="74"/>
			<point x="652" y="44"/>
			<point x="580" y="44" type="curve" smooth="yes"/>
			<point x="486" y="44"/>
			<point x="396" y="86"/>
			<point x="336" y="162" type="curve" smooth="yes"/>
			<point x="262" y="256"/>
			<point x="260" y="378"/>
		</contour>
		<contour>
			<point x="262" y="508" type="line"/>
			<point x="284" y="790"/>
			<point x="464" y="836"/>
			<point x="540" y="836" type="curve" smooth="yes"/>
			<point x="786" y="836"/>
			<point x="794" y="558"/>
			<point x="796" y="508" type="curve"/>
		</contour>
	</outline>
</glyph>
<glyph name="f" format="2">
  <advance width="354"/>
  <unicode hex="0066"/>
  <outline>
    <contour>
      <point x="131" y="79" type="line" smooth="yes"/>
      <point x="131" y="36"/>
      <point x="121" y="36"/>
      <point x="56" y="36" type="curve"/>
      <point x="56" y="36" type="line"/>
      <point x="56" y="0" type="line"/>
      <point x="61" y="0"/>
      <point x="129" y="4"/>
      <point x="170" y="4" type="curve" smooth="yes"/>
      <point x="213" y="4"/>
      <point x="257" y="2"/>
      <point x="300" y="0" type="curve"/>
      <point x="300" y="36" type="line"/>
      <point x="280" y="36" type="line" smooth="yes"/>
      <point x="206" y="36"/>
      <point x="206" y="47"/>
      <point x="206" y="81" type="curve" smooth="yes"/>
      <point x="206" y="395" type="line"/>
      <point x="331" y="395" type="line"/>
      <point x="331" y="431" type="line"/>
      <point x="202" y="431" type="line"/>
      <point x="202" y="543" type="line" smooth="yes"/>
      <point x="202" y="634"/>
      <point x="256" y="676"/>
      <point x="299" y="676" type="curve" smooth="yes"/>
      <point x="308" y="676"/>
      <point x="318" y="674"/>
      <point x="328" y="671" type="curve"/>
      <point x="314" y="663"/>
      <point x="306" y="647"/>
      <point x="306" y="631" type="curve" smooth="yes"/>
      <point x="306" y="604"/>
      <point x="325" y="585"/>
      <point x="352" y="585" type="curve" smooth="yes"/>
      <point x="379" y="585"/>
      <point x="398" y="604"/>
      <point x="398" y="631" type="curve" smooth="yes"/>
      <point x="398" y="674"/>
      <point x="355" y="704"/>
      <point x="300" y="704" type="curve" smooth="yes"/>
      <point x="221" y="704"/>
      <point x="131" y="648"/>
      <point x="131" y="543" type="curve" smooth="yes"/>
      <point x="131" y="431" type="line"/>
      <point x="45" y="431" type="line"/>
      <point x="45" y="395" type="line"/>
      <point x="131" y="395" type="line"/>
    </contour>
  </outline>
</glyph>
<glyph name="g" format="2">
	<unicode hex="0067"/>
	<advance width="1138"/>
	<outline>
		<contour>
			<point x="568" y="-410" type="curve" smooth="yes"/>
			<point x="822" y="-410"/>
			<point x="1058" y="-310"/>
			<point x="1058" y="-150" type="curve" smooth="yes"/>
			<point x="1058" y="-90"/>
			<point x="1034" y="18"/>
			<point x="924" y="78" type="curve" smooth="yes"/>
			<point x="806" y="140"/>
			<point x="688" y="140"/>
			<point x="494" y="140" type="curve" smooth="yes"/>
			<point x="450" y="140"/>
			<point x="378" y="140"/>
			<point x="362" y="142" type="curve"/>
			<point x="298" y="156"/>
			<point x="262" y="216"/>
			<point x="262" y="274" type="curve" smooth="yes"/>
			<point x="262" y="324"/>
			<point x="276" y="340"/>
			<point x="288" y="356" type="curve"/>
			<point x="318" y="338"/>
			<point x="390" y="294"/>
			<point x="506" y="294" type="curve" smooth="yes"/>
			<point x="712" y="294"/>
			<point x="862" y="432"/>
			<point x="862" y="588" type="curve" smooth="yes"/>
			<point x="862" y="666"/>
			<point x="826" y="728"/>
			<point x="778" y="780" type="curve"/>
			<point x="868" y="844"/>
			<point x="946" y="846"/>
			<point x="980" y="846" type="curve"/>
			<point x="972" y="838"/>
			<point x="962" y="830"/>
			<point x="962" y="798" type="curve" smooth="yes"/>
			<point x="962" y="758"/>
			<point x="992" y="734"/>
			<point x="1026" y="734" type="curve" smooth="yes"/>
			<point x="1054" y="734"/>
			<point x="1090" y="754"/>
			<point x="1090" y="800" type="curve" smooth="yes"/>
			<point x="1090" y="846"/>
			<point x="1052" y="902"/>
			<point x="972" y="902" type="curve" smooth="yes"/>
			<point x="942" y="902"/>
			<point x="834" y="896"/>
			<point x="740" y="810" type="curve"/>
			<point x="680" y="854"/>
			<point x="596" y="882"/>
			<point x="508" y="882" type="curve" smooth="yes"/>
			<point x="302" y="882"/>
			<point x="152" y="744"/>
			<point x="152" y="588" type="curve" smooth="yes"/>
			<point x="152" y="510"/>
			<point x="192" y="438"/>
			<point x="248" y="386" type="curve"/>
			<point x="232" y="368"/>
			<point x="188" y="302"/>
			<point x="188" y="224" type="curve" smooth="yes"/>
			<point x="188" y="198"/>
			<point x="194" y="104"/>
			<point x="272" y="46" type="curve"/>
			<point x="182" y="16"/>
			<point x="78" y="-50"/>
			<point x="78" y="-154" type="curve" smooth="yes"/>
			<point x="78" y="-300"/>
			<point x="298" y="-410"/>
		</contour>
		<contour>
			<point x="508" y="354" type="curve" smooth="yes"/>
			<point x="312" y="354"/>
			<point x="312" y="546"/>
			<point x="312" y="588" type="curve" smooth="yes"/>
			<point x="312" y="620"/>
			<point x="312" y="700"/>
			<point x="352" y="752" type="curve" smooth="yes"/>
			<point x="380" y="786"/>
			<point x="434" y="822"/>
			<point x="506" y="822" type="curve" smooth="yes"/>
			<point x="702" y="822"/>
			<point x="702" y="630"/>
			<point x="702" y="588" type="curve" smooth="yes"/>
			<point x="702" y="556"/>
			<point x="702" y="476"/>
			<point x="662" y="424" type="curve" smooth="yes"/>
			<point x="634" y="390"/>
			<point x="580" y="354"/>
		</contour>
		<contour>
			<point x="568" y="-350" type="curve" smooth="yes"/>
			<point x="358" y="-350"/>
			<point x="200" y="-256"/>
			<point x="200" y="-152" type="curve" smooth="yes"/>
			<point x="200" y="-118"/>
			<point x="215" y="-79"/>
			<point x="246" y="-49" type="curve" smooth="yes"/>
			<point x="278" y="-17"/>
			<point x="327" y="6"/>
			<point x="392" y="6" type="curve" smooth="yes"/>
			<point x="508" y="6" type="line" smooth="yes"/>
			<point x="686" y="6"/>
			<point x="936" y="6"/>
			<point x="936" y="-152" type="curve" smooth="yes"/>
			<point x="936" y="-258"/>
			<point x="778" y="-350"/>
		</contour>
	</outline>
</glyph>
<glyph name="h" format="2">
	<unicode hex="0068"/>
	<advance width="1260"/>
	<outline>
		<contour>
			<point x="258" y="158" type="line" smooth="yes"/>
			<point x="258" y="72"/>
			<point x="238" y="72"/>
			<point x="108" y="72" type="curve"/>
			<point x="108" y="72" type="line"/>
			<point x="108" y="0" type="line"/>
			<point x="112" y="0"/>
			<point x="252" y="8"/>
			<point x="336" y="8" type="curve" smooth="yes"/>
			<point x="410" y="8"/>
			<point x="548" y="2"/>
			<point x="566" y="0" type="curve"/>
			<point x="566" y="72" type="line"/>
			<point x="566" y="72" type="line"/>
			<point x="436" y="72"/>
			<point x="416" y="72"/>
			<point x="416" y="158" type="curve" smooth="yes"/>
			<point x="416" y="518" type="line" smooth="yes"/>
			<point x="416" y="728"/>
			<point x="582" y="826"/>
			<point x="714" y="826" type="curve" smooth="yes"/>
			<point x="854" y="826"/>
			<point x="872" y="716"/>
			<point x="872" y="614" type="curve" smooth="yes"/>
			<point x="872" y="158" type="line" smooth="yes"/>
			<point x="872" y="72"/>
			<point x="852" y="72"/>
			<point x="722" y="72" type="curve"/>
			<point x="722" y="72" type="line"/>
			<point x="722" y="0" type="line"/>
			<point x="726" y="0"/>
			<point x="866" y="8"/>
			<point x="950" y="8" type="curve" smooth="yes"/>
			<point x="1024" y="8"/>
			<point x="1162" y="2"/>
			<point x="1180" y="0" type="curve"/>
			<point x="1180" y="72" type="line"/>
			<point x="1180" y="72" type="line"/>
			<point x="1050" y="72"/>
			<point x="1030" y="72"/>
			<point x="1030" y="158" type="curve" smooth="yes"/>
			<point x="1030" y="606" type="line" smooth="yes"/>
			<point x="1030" y="692"/>
			<point x="1009" y="760"/>
			<point x="962" y="807" type="curve" smooth="yes"/>
			<point x="914" y="856"/>
			<point x="838" y="882"/>
			<point x="730" y="882" type="curve" smooth="yes"/>
			<point x="552" y="882"/>
			<point x="454" y="776"/>
			<point x="410" y="700" type="curve"/>
			<point x="408" y="700" type="line"/>
			<point x="408" y="1388" type="line"/>
			<point x="108" y="1366" type="line"/>
			<point x="108" y="1294" type="line"/>
			<point x="242" y="1294"/>
			<point x="258" y="1280"/>
			<point x="258" y="1182" type="curve" smooth="yes"/>
		</contour>
	</outline>
</glyph>
<glyph name="i" format="2">
	<unicode hex="0069"/>
	<advance width="323"/>
	<outline>
		<contour>
			<point x="131" y="79" type="line" smooth="yes"/>
			<point x="131" y="36"/>
			<point x="121" y="36"/>
			<point x="56" y="36" type="curve"/>
			<point x="56" y="36" type="line"/>
			<point x="56" y="0" type="line"/>
			<point x="58" y="0"/>
			<point x="128" y="4"/>
			<point x="168" y="4" type="curve" smooth="yes"/>
			<point x="203" y="4"/>
			<point x="239" y="3"/>
			<point x="274" y="0" type="curve"/>
			<point x="274" y="36" type="line"/>
			<point x="216" y="36"/>
			<point x="206" y="36"/>
			<point x="206" y="78" type="curve" smooth="yes"/>
			<point x="206" y="441" type="line"/>
			<point x="59" y="430" type="line"/>
			<point x="59" y="394" type="line"/>
			<point x="122" y="394"/>
			<point x="131" y="388"/>
			<point x="131" y="339" type="curve" smooth="yes"/>
		</contour>
		<contour>
			<point x="211" y="617" type="curve" smooth="yes"/>
			<point x="211" y="646"/>
			<point x="187" y="674"/>
			<point x="153" y="674" type="curve" smooth="yes"/>
			<point x="123" y="674"/>
			<point x="96" y="650"/>
			<point x="96" y="617" type="curve" smooth="yes"/>
			<point x="96" y="581"/>
			<point x="125" y="559"/>
			<point x="153" y="559" type="curve" smooth="yes"/>
			<point x="185" y="559"/>
			<point x="211" y="584"/>
		</contour>
	</outline>
</glyph>
<glyph name="j" format="2">
	<unicode hex="006A"/>
	<advance width="708"/>
	<outline>
		<contour>
			<point x="336" y="676" type="curve" smooth="yes"/>
			<point x="336" y="-96" type="line" smooth="yes"/>
			<point x="336" y="-172"/>
			<point x="320" y="-352"/>
			<point x="186" y="-352" type="curve" smooth="yes"/>
			<point x="180" y="-352"/>
			<point x="132" y="-352"/>
			<point x="86" y="-332" type="curve"/>
			<point x="90" y="-330"/>
			<point x="136" y="-306"/>
			<point x="136" y="-246" type="curve" smooth="yes"/>
			<point x="136" y="-192"/>
			<point x="96" y="-152"/>
			<point x="42" y="-152" type="curve" smooth="yes"/>
			<point x="-16" y="-152"/>
			<point x="-54" y="-192"/>
			<point x="-54" y="-248" type="curve" smooth="yes"/>
			<point x="-54" y="-356"/>
			<point x="66" y="-408"/>
			<point x="188" y="-408" type="curve" smooth="yes"/>
			<point x="350" y="-408"/>
			<point x="486" y="-282"/>
			<point x="486" y="-92" type="curve" smooth="yes"/>
			<point x="486" y="882" type="line"/>
			<point x="170" y="860" type="line"/>
			<point x="170" y="788" type="line"/>
			<point x="318" y="788"/>
			<point x="336" y="774"/>
		</contour>
		<contour>
			<point x="486" y="1232" type="curve" smooth="yes"/>
			<point x="486" y="1302"/>
			<point x="430" y="1348"/>
			<point x="372" y="1348" type="curve" smooth="yes"/>
			<point x="302" y="1348"/>
			<point x="256" y="1292"/>
			<point x="256" y="1234" type="curve" smooth="yes"/>
			<point x="256" y="1164"/>
			<point x="312" y="1118"/>
			<point x="370" y="1118" type="curve" smooth="yes"/>
			<point x="440" y="1118"/>
			<point x="486" y="1174"/>
		</contour>
	</outline>
</glyph>
<glyph name="k" format="2">
	<unicode hex="006B"/>
	<advance width="1200"/>
	<outline>
		<contour>
			<point x="646" y="542" type="line"/>
			<point x="646" y="542" type="line"/>
			<point x="892" y="732"/>
			<point x="958" y="786"/>
			<point x="1096" y="790" type="curve"/>
			<point x="1096" y="862" type="line"/>
			<point x="1054" y="858"/>
			<point x="1002" y="854"/>
			<point x="960" y="854" type="curve" smooth="yes"/>
			<point x="880" y="854"/>
			<point x="800" y="856"/>
			<point x="720" y="862" type="curve"/>
			<point x="720" y="790" type="line"/>
			<point x="746" y="786"/>
			<point x="756" y="770"/>
			<point x="756" y="754" type="curve" smooth="yes"/>
			<point x="756" y="722"/>
			<point x="718" y="684"/>
			<point x="694" y="666" type="curve" smooth="yes"/>
			<point x="398" y="438" type="line"/>
			<point x="398" y="1388" type="line"/>
			<point x="98" y="1366" type="line"/>
			<point x="98" y="1294" type="line"/>
			<point x="232" y="1294"/>
			<point x="248" y="1280"/>
			<point x="248" y="1182" type="curve" smooth="yes"/>
			<point x="248" y="158" type="line" smooth="yes"/>
			<point x="248" y="72"/>
			<point x="228" y="72"/>
			<point x="98" y="72" type="curve"/>
			<point x="98" y="72" type="line"/>
			<point x="98" y="0" type="line"/>
			<point x="172" y="6"/>
			<point x="246" y="8"/>
			<point x="320" y="8" type="curve" smooth="yes"/>
			<point x="394" y="8"/>
			<point x="468" y="6"/>
			<point x="542" y="0" type="curve"/>
			<point x="542" y="72" type="line"/>
			<point x="542" y="72" type="line"/>
			<point x="412" y="72"/>
			<point x="392" y="72"/>
			<point x="392" y="158" type="curve" smooth="yes"/>
			<point x="392" y="348" type="line"/>
			<point x="440" y="385"/>
			<point x="488" y="423"/>
			<point x="536" y="460" type="curve"/>
			<point x="754" y="190" type="line" smooth="yes"/>
			<point x="776" y="164"/>
			<point x="800" y="134"/>
			<point x="800" y="108" type="curve" smooth="yes"/>
			<point x="800" y="76"/>
			<point x="764" y="72"/>
			<point x="744" y="72" type="curve"/>
			<point x="744" y="0" type="line"/>
			<point x="770" y="2"/>
			<point x="912" y="8"/>
			<point x="970" y="8" type="curve" smooth="yes"/>
			<point x="1028" y="8"/>
			<point x="1086" y="4"/>
			<point x="1144" y="0" type="curve"/>
			<point x="1144" y="72" type="line"/>
			<point x="1070" y="72"/>
			<point x="1026" y="78"/>
			<point x="968" y="148" type="curve" smooth="yes"/>
		</contour>
	</outline>
</glyph>
<glyph name="l" format="2">
	<unicode hex="006C"/>
	<advance width="646"/>
	<outline>
		<contour>
			<point x="412" y="1388" type="line"/>
			<point x="112" y="1366" type="line"/>
			<point x="112" y="1294" type="line"/>
			<point x="246" y="1294"/>
			<point x="262" y="1280"/>
			<point x="262" y="1182" type="curve" smooth="yes"/>
			<point x="262" y="158" type="line" smooth="yes"/>
			<point x="262" y="72"/>
			<point x="242" y="72"/>
			<point x="112" y="72" type="curve"/>
			<point x="112" y="72" type="line"/>
			<point x="112" y="0" type="line"/>
			<point x="116" y="0"/>
			<point x="256" y="8"/>
			<point x="336" y="8" type="curve" smooth="yes"/>
			<point x="412" y="8"/>
			<point x="486" y="6"/>
			<point x="562" y="0" type="curve"/>
			<point x="562" y="72" type="line"/>
			<point x="562" y="72" type="line"/>
			<point x="432" y="72"/>
			<point x="412" y="72"/>
			<point x="412" y="158" type="curve" smooth="yes"/>
		</contour>
	</outline>
</glyph>
<glyph name="m" format="2">
	<unicode hex="006D"/>
	<advance width="938"/>
	<outline>
		<contour>
			<point x="129" y="79" type="line" smooth="yes"/>
			<point x="129" y="36"/>
			<point x="119" y="36"/>
			<point x="54" y="36" type="curve"/>
			<point x="54" y="36" type="line"/>
			<point x="54" y="0" type="line"/>
			<point x="56" y="0"/>
			<point x="126" y="4"/>
			<point x="168" y="4" type="curve" smooth="yes"/>
			<point x="205" y="4"/>
			<point x="274" y="1"/>
			<point x="283" y="0" type="curve"/>
			<point x="283" y="36" type="line"/>
			<point x="283" y="36" type="line"/>
			<point x="218" y="36"/>
			<point x="208" y="36"/>
			<point x="208" y="79" type="curve" smooth="yes"/>
			<point x="208" y="259" type="line" smooth="yes"/>
			<point x="208" y="364"/>
			<point x="291" y="413"/>
			<point x="357" y="413" type="curve" smooth="yes"/>
			<point x="427" y="413"/>
			<point x="436" y="358"/>
			<point x="436" y="307" type="curve" smooth="yes"/>
			<point x="436" y="79" type="line" smooth="yes"/>
			<point x="436" y="36"/>
			<point x="426" y="36"/>
			<point x="361" y="36" type="curve"/>
			<point x="361" y="36" type="line"/>
			<point x="361" y="0" type="line"/>
			<point x="363" y="0"/>
			<point x="433" y="4"/>
			<point x="475" y="4" type="curve" smooth="yes"/>
			<point x="512" y="4"/>
			<point x="581" y="1"/>
			<point x="590" y="0" type="curve"/>
			<point x="590" y="36" type="line"/>
			<point x="590" y="36" type="line"/>
			<point x="525" y="36"/>
			<point x="515" y="36"/>
			<point x="515" y="79" type="curve" smooth="yes"/>
			<point x="515" y="259" type="line" smooth="yes"/>
			<point x="515" y="364"/>
			<point x="598" y="413"/>
			<point x="664" y="413" type="curve" smooth="yes"/>
			<point x="734" y="413"/>
			<point x="743" y="358"/>
			<point x="743" y="307" type="curve" smooth="yes"/>
			<point x="743" y="79" type="line" smooth="yes"/>
			<point x="743" y="36"/>
			<point x="733" y="36"/>
			<point x="668" y="36" type="curve"/>
			<point x="668" y="36" type="line"/>
			<point x="668" y="0" type="line"/>
			<point x="670" y="0"/>
			<point x="740" y="4"/>
			<point x="782" y="4" type="curve" smooth="yes"/>
			<point x="819" y="4"/>
			<point x="888" y="1"/>
			<point x="897" y="0" type="curve"/>
			<point x="897" y="36" type="line"/>
			<point x="897" y="36" type="line"/>
			<point x="832" y="36"/>
			<point x="822" y="36"/>
			<point x="822" y="79" type="curve" smooth="yes"/>
			<point x="822" y="303" type="line" smooth="yes"/>
			<point x="822" y="346"/>
			<point x="812" y="380"/>
			<point x="788" y="404" type="curve" smooth="yes"/>
			<point x="764" y="428"/>
			<point x="726" y="441"/>
			<point x="672" y="441" type="curve" smooth="yes"/>
			<point x="593" y="441"/>
			<point x="539" y="398"/>
			<point x="512" y="348" type="curve"/>
			<point x="492" y="419"/>
			<point x="438" y="441"/>
			<point x="365" y="441" type="curve" smooth="yes"/>
			<point x="283" y="441"/>
			<point x="230" y="396"/>
			<point x="202" y="344" type="curve"/>
			<point x="201" y="344" type="line"/>
			<point x="201" y="441" type="line"/>
			<point x="54" y="430" type="line"/>
			<point x="54" y="394" type="line"/>
			<point x="121" y="394"/>
			<point x="129" y="387"/>
			<point x="129" y="338" type="curve" smooth="yes"/>
		</contour>
	</outline>
</glyph>
<glyph name="o" format="2">
	<unicode hex="006F"/>
	<advance width="1138"/>
	<outline>
		<contour>
			<point x="1058" y="426" type="curve" smooth="yes"/>
			<point x="1058" y="676"/>
			<point x="844" y="892"/>
			<point x="568" y="892" type="curve" smooth="yes"/>
			<point x="292" y="892"/>
			<point x="78" y="676"/>
			<point x="78" y="426" type="curve" smooth="yes"/>
			<point x="78" y="178"/>
			<point x="298" y="-20"/>
			<point x="568" y="-20" type="curve" smooth="yes"/>
			<point x="838" y="-20"/>
			<point x="1058" y="178"/>
		</contour>
		<contour>
			<point x="568" y="44" type="curve" smooth="yes"/>
			<point x="494" y="44"/>
			<point x="386" y="68"/>
			<point x="320" y="166" type="curve" smooth="yes"/>
			<point x="266" y="248"/>
			<point x="260" y="352"/>
			<point x="260" y="444" type="curve" smooth="yes"/>
			<point x="260" y="530"/>
			<point x="262" y="648"/>
			<point x="332" y="734" type="curve" smooth="yes"/>
			<point x="382" y="792"/>
			<point x="466" y="836"/>
			<point x="568" y="836" type="curve" smooth="yes"/>
			<point x="686" y="836"/>
			<point x="770" y="780"/>
			<point x="814" y="718" type="curve" smooth="yes"/>
			<point x="870" y="640"/>
			<point x="876" y="540"/>
			<point x="876" y="444" type="curve" smooth="yes"/>
			<point x="876" y="348"/>
			<point x="870" y="242"/>
			<point x="812" y="160" type="curve" smooth="yes"/>
			<point x="758" y="84"/>
			<point x="666" y="44"/>
		</contour>
	</outline>
</glyph>
<glyph name="p" format="2">
	<unicode hex="0070"/>
	<advance width="1260"/>
	<outline>
		<contour>
			<point x="98" y="788" type="line"/>
			<point x="98" y="788" type="line"/>
			<point x="238" y="788"/>
			<point x="248" y="778"/>
			<point x="248" y="694" type="curve" smooth="yes"/>
			<point x="248" y="-230" type="line" smooth="yes"/>
			<point x="248" y="-316"/>
			<point x="228" y="-316"/>
			<point x="98" y="-316" type="curve"/>
			<point x="98" y="-316" type="line"/>
			<point x="98" y="-388" type="line"/>
			<point x="102" y="-388"/>
			<point x="242" y="-380"/>
			<point x="326" y="-380" type="curve" smooth="yes"/>
			<point x="400" y="-380"/>
			<point x="538" y="-386"/>
			<point x="556" y="-388" type="curve"/>
			<point x="556" y="-316" type="line"/>
			<point x="426" y="-316"/>
			<point x="406" y="-316"/>
			<point x="406" y="-230" type="curve" smooth="yes"/>
			<point x="406" y="96" type="line"/>
			<point x="416" y="86"/>
			<point x="510" y="-20"/>
			<point x="678" y="-20" type="curve" smooth="yes"/>
			<point x="942" y="-20"/>
			<point x="1168" y="178"/>
			<point x="1168" y="432" type="curve" smooth="yes"/>
			<point x="1168" y="678"/>
			<point x="964" y="882"/>
			<point x="710" y="882" type="curve" smooth="yes"/>
			<point x="596" y="882"/>
			<point x="480" y="840"/>
			<point x="398" y="760" type="curve"/>
			<point x="398" y="882" type="line"/>
			<point x="98" y="860" type="line"/>
		</contour>
		<contour>
			<point x="986" y="432" type="curve" smooth="yes"/>
			<point x="986" y="204"/>
			<point x="836" y="36"/>
			<point x="666" y="36" type="curve" smooth="yes"/>
			<point x="490" y="36"/>
			<point x="412" y="190"/>
			<point x="406" y="202" type="curve"/>
			<point x="406" y="202"/>
			<point x="406" y="202"/>
			<point x="406" y="202" type="curve"/>
			<point x="406" y="666" type="line"/>
			<point x="406" y="666"/>
			<point x="406" y="666"/>
			<point x="406" y="666" type="curve"/>
			<point x="466" y="766"/>
			<point x="582" y="818"/>
			<point x="688" y="818" type="curve" smooth="yes"/>
			<point x="856" y="818"/>
			<point x="986" y="642"/>
		</contour>
	</outline>
</glyph>
<glyph name="q" format="2">
	<unicode hex="0071"/>
	<advance width="1200"/>
	<outline>
		<contour>
			<point x="92" y="430" type="curve" smooth="yes"/>
			<point x="92" y="180"/>
			<point x="306" y="-20"/>
			<point x="558" y="-20" type="curve" smooth="yes"/>
			<point x="718" y="-20"/>
			<point x="804" y="66"/>
			<point x="854" y="116" type="curve"/>
			<point x="854" y="-230" type="line" smooth="yes"/>
			<point x="854" y="-316"/>
			<point x="834" y="-316"/>
			<point x="704" y="-316" type="curve"/>
			<point x="704" y="-316" type="line"/>
			<point x="704" y="-388" type="line"/>
			<point x="708" y="-388"/>
			<point x="848" y="-380"/>
			<point x="932" y="-380" type="curve" smooth="yes"/>
			<point x="1006" y="-380"/>
			<point x="1144" y="-386"/>
			<point x="1162" y="-388" type="curve"/>
			<point x="1162" y="-316" type="line"/>
			<point x="1162" y="-316" type="line"/>
			<point x="1032" y="-316"/>
			<point x="1012" y="-316"/>
			<point x="1012" y="-230" type="curve" smooth="yes"/>
			<point x="1012" y="882" type="line"/>
			<point x="952" y="882" type="line"/>
			<point x="880" y="708" type="line"/>
			<point x="818" y="804"/>
			<point x="718" y="882"/>
			<point x="576" y="882" type="curve" smooth="yes"/>
			<point x="318" y="882"/>
			<point x="92" y="686"/>
		</contour>
		<contour>
			<point x="274" y="428" type="curve" smooth="yes"/>
			<point x="274" y="662"/>
			<point x="432" y="818"/>
			<point x="592" y="818" type="curve" smooth="yes"/>
			<point x="760" y="818"/>
			<point x="862" y="654"/>
			<point x="862" y="542" type="curve" smooth="yes"/>
			<point x="862" y="288" type="line" smooth="yes"/>
			<point x="862" y="252"/>
			<point x="862" y="244"/>
			<point x="832" y="192" type="curve" smooth="yes"/>
			<point x="772" y="94"/>
			<point x="672" y="36"/>
			<point x="570" y="36" type="curve" smooth="yes"/>
			<point x="404" y="36"/>
			<point x="274" y="216"/>
		</contour>
	</outline>
</glyph>
<glyph name="r" format="2">
	<unicode hex="0072"/>
	<advance width="892"/>
	<outline>
		<contour>
			<point x="248" y="158" type="line" smooth="yes"/>
			<point x="248" y="72"/>
			<point x="228" y="72"/>
			<point x="98" y="72" type="curve"/>
			<point x="98" y="72" type="line"/>
			<point x="98" y="0" type="line"/>
			<point x="108" y="0"/>
			<point x="244" y="8"/>
			<point x="326" y="8" type="curve" smooth="yes"/>
			<point x="412" y="8"/>
			<point x="500" y="4"/>
			<point x="586" y="0" type="curve"/>
			<point x="586" y="72" type="line"/>
			<point x="546" y="72" type="line" smooth="yes"/>
			<point x="398" y="72"/>
			<point x="398" y="94"/>
			<point x="398" y="162" type="curve" smooth="yes"/>
			<point x="398" y="456" type="line" smooth="yes"/>
			<point x="398" y="622"/>
			<point x="476" y="826"/>
			<point x="666" y="826" type="curve"/>
			<point x="666" y="826"/>
			<point x="666" y="826"/>
			<point x="666" y="826" type="curve"/>
			<point x="648" y="812"/>
			<point x="632" y="786"/>
			<point x="632" y="754" type="curve" smooth="yes"/>
			<point x="632" y="688"/>
			<point x="684" y="662"/>
			<point x="722" y="662" type="curve" smooth="yes"/>
			<point x="770" y="662"/>
			<point x="814" y="694"/>
			<point x="814" y="754" type="curve" smooth="yes"/>
			<point x="814" y="822"/>
			<point x="750" y="882"/>
			<point x="656" y="882" type="curve" smooth="yes"/>
			<point x="556" y="882"/>
			<point x="446" y="820"/>
			<point x="386" y="668" type="curve"/>
			<point x="384" y="668" type="line"/>
			<point x="384" y="882" type="line"/>
			<point x="98" y="860" type="line"/>
			<point x="98" y="788" type="line"/>
			<point x="232" y="788"/>
			<point x="248" y="774"/>
			<point x="248" y="676" type="curve" smooth="yes"/>
		</contour>
	</outline>
</glyph>
<glyph name="s" format="2">
  <advance width="452"/>
  <unicode hex="0073"/>
  <outline>
    <contour>
      <point x="407" y="131" type="curve" smooth="yes"/>
      <point x="407" y="169"/>
      <point x="390" y="199"/>
      <point x="364" y="223" type="curve" smooth="yes"/>
      <point x="326" y="258"/>
      <point x="280" y="266"/>
      <point x="245" y="272" type="curve" smooth="yes"/>
      <point x="165" y="286"/>
      <point x="100" y="298"/>
      <point x="100" y="351" type="curve" smooth="yes"/>
      <point x="100" y="383"/>
      <point x="127" y="422"/>
      <point x="222" y="422" type="curve" smooth="yes"/>
      <point x="338" y="422"/>
      <point x="343" y="341"/>
      <point x="345" y="312" type="curve" smooth="yes"/>
      <point x="346" y="301"/>
      <point x="358" y="301"/>
      <point x="362" y="301" type="curve" smooth="yes"/>
      <point x="379" y="301"/>
      <point x="379" y="308"/>
      <point x="379" y="327" type="curve" smooth="yes"/>
      <point x="379" y="420" type="line" smooth="yes"/>
      <point x="379" y="437"/>
      <point x="379" y="446"/>
      <point x="365" y="446" type="curve" smooth="yes"/>
      <point x="360" y="446"/>
      <point x="358" y="446"/>
      <point x="345" y="434" type="curve" smooth="yes"/>
      <point x="342" y="431"/>
      <point x="333" y="424"/>
      <point x="327" y="419" type="curve"/>
      <point x="297" y="440"/>
      <point x="259" y="446"/>
      <point x="222" y="446" type="curve" smooth="yes"/>
      <point x="79" y="446"/>
      <point x="45" y="371"/>
      <point x="45" y="321" type="curve" smooth="yes"/>
      <point x="45" y="289"/>
      <point x="59" y="263"/>
      <point x="83" y="243" type="curve" smooth="yes"/>
      <point x="121" y="210"/>
      <point x="159" y="203"/>
      <point x="221" y="193" type="curve" smooth="yes"/>
      <point x="255.733" y="186.74806"/>
      <point x="305.4251279836" y="178.083357422"/>
      <point x="332.5328717362901" y="150.9158156026386" type="curve" smooth="yes"/>
      <point x="344.4481662364" y="138.9742366732"/>
      <point x="352.0" y="123.45778000000001"/>
      <point x="352" y="103" type="curve" smooth="yes"/>
      <point x="352" y="64"/>
      <point x="325" y="18"/>
      <point x="229" y="18" type="curve" smooth="yes"/>
      <point x="133" y="18"/>
      <point x="98" y="81"/>
      <point x="80" y="149" type="curve" smooth="yes"/>
      <point x="77" y="162"/>
      <point x="76" y="166"/>
      <point x="62" y="166" type="curve" smooth="yes"/>
      <point x="45" y="166"/>
      <point x="45" y="159"/>
      <point x="45" y="139" type="curve" smooth="yes"/>
      <point x="45" y="16" type="line" smooth="yes"/>
      <point x="45" y="-1"/>
      <point x="45" y="-10"/>
      <point x="59" y="-10" type="curve" smooth="yes"/>
      <point x="65" y="-10"/>
      <point x="78" y="1"/>
      <point x="96" y="21" type="curve" smooth="yes"/>
      <point x="107" y="33" type="line"/>
      <point x="151" y="-8"/>
      <point x="205" y="-10"/>
      <point x="229" y="-10" type="curve" smooth="yes"/>
      <point x="359" y="-10"/>
      <point x="407" y="60"/>
    </contour>
  </outline>
</glyph>
<glyph name="t" format="2">
	<unicode hex="0074"/>
	<advance width="892"/>
	<outline>
		<contour>
			<point x="402" y="790" type="line"/>
			<point x="714" y="790" type="line"/>
			<point x="714" y="862" type="line"/>
			<point x="402" y="862" type="line"/>
			<point x="402" y="1230" type="line"/>
			<point x="334" y="1230" type="line"/>
			<point x="332" y="1050"/>
			<point x="250" y="852"/>
			<point x="58" y="846" type="curve"/>
			<point x="58" y="790" type="line"/>
			<point x="244" y="790" type="line"/>
			<point x="244" y="250" type="line" smooth="yes"/>
			<point x="244" y="26"/>
			<point x="412" y="-20"/>
			<point x="524" y="-20" type="curve" smooth="yes"/>
			<point x="658" y="-20"/>
			<point x="750" y="94"/>
			<point x="750" y="252" type="curve" smooth="yes"/>
			<point x="750" y="362" type="line"/>
			<point x="682" y="362" type="line"/>
			<point x="682" y="254" type="line" smooth="yes"/>
			<point x="682" y="118"/>
			<point x="618" y="44"/>
			<point x="540" y="44" type="curve" smooth="yes"/>
			<point x="402" y="44"/>
			<point x="402" y="212"/>
			<point x="402" y="248" type="curve" smooth="yes"/>
		</contour>
	</outline>
</glyph>
<glyph name="u" format="2">
	<unicode hex="0075"/>
	<advance width="1260"/>
	<outline>
		<contour>
			<point x="258" y="604" type="curve" smooth="yes"/>
			<point x="258" y="304" type="line" smooth="yes"/>
			<point x="258" y="223"/>
			<point x="258" y="126"/>
			<point x="325" y="59" type="curve" smooth="yes"/>
			<point x="373" y="12"/>
			<point x="454" y="-20"/>
			<point x="592" y="-20" type="curve" smooth="yes"/>
			<point x="636" y="-20"/>
			<point x="782" y="-20"/>
			<point x="878" y="148" type="curve"/>
			<point x="880" y="148" type="line"/>
			<point x="880" y="-20" type="line"/>
			<point x="1180" y="0" type="line"/>
			<point x="1180" y="72" type="line"/>
			<point x="1046" y="72"/>
			<point x="1030" y="86"/>
			<point x="1030" y="184" type="curve" smooth="yes"/>
			<point x="1030" y="882" type="line"/>
			<point x="722" y="860" type="line"/>
			<point x="722" y="788" type="line"/>
			<point x="856" y="788"/>
			<point x="872" y="774"/>
			<point x="872" y="676" type="curve" smooth="yes"/>
			<point x="872" y="334" type="line" smooth="yes"/>
			<point x="872" y="158"/>
			<point x="758" y="36"/>
			<point x="606" y="36" type="curve" smooth="yes"/>
			<point x="424" y="36"/>
			<point x="416" y="122"/>
			<point x="416" y="224" type="curve" smooth="yes"/>
			<point x="416" y="882" type="line"/>
			<point x="108" y="860" type="line"/>
			<point x="108" y="788" type="line"/>
			<point x="258" y="788"/>
			<point x="258" y="782"/>
		</contour>
	</outline>
</glyph>
<glyph name="v" format="2">
	<unicode hex="0076"/>
	<advance width="1200"/>
	<outline>
		<contour>
			<point x="598" y="-20" type="curve" smooth="yes"/>
			<point x="636" y="-20"/>
			<point x="644" y="-2"/>
			<point x="654" y="20" type="curve" smooth="yes"/>
			<point x="752" y="235"/>
			<point x="850" y="450"/>
			<point x="948" y="666" type="curve" smooth="yes"/>
			<point x="1004" y="788"/>
			<point x="1104" y="790"/>
			<point x="1136" y="790" type="curve"/>
			<point x="1136" y="814"/>
			<point x="1136" y="838"/>
			<point x="1136" y="862" type="curve"/>
			<point x="1086" y="858"/>
			<point x="1034" y="854"/>
			<point x="984" y="854" type="curve" smooth="yes"/>
			<point x="930" y="854"/>
			<point x="856" y="856"/>
			<point x="802" y="862" type="curve"/>
			<point x="802" y="838"/>
			<point x="802" y="814"/>
			<point x="802" y="790" type="curve"/>
			<point x="886" y="786"/>
			<point x="886" y="720"/>
			<point x="886" y="714" type="curve" smooth="yes"/>
			<point x="886" y="704"/>
			<point x="884" y="684"/>
			<point x="870" y="656" type="curve" smooth="yes"/>
			<point x="795" y="491"/>
			<point x="719" y="327"/>
			<point x="644" y="162" type="curve"/>
			<point x="561" y="343"/>
			<point x="479" y="524"/>
			<point x="396" y="706" type="curve"/>
			<point x="396" y="708"/>
			<point x="384" y="730"/>
			<point x="384" y="744" type="curve" smooth="yes"/>
			<point x="384" y="790"/>
			<point x="452" y="790"/>
			<point x="486" y="790" type="curve"/>
			<point x="486" y="814"/>
			<point x="486" y="838"/>
			<point x="486" y="862" type="curve"/>
			<point x="482" y="862"/>
			<point x="340" y="854"/>
			<point x="258" y="854" type="curve" smooth="yes"/>
			<point x="198" y="854"/>
			<point x="120" y="856"/>
			<point x="62" y="862" type="curve"/>
			<point x="62" y="838"/>
			<point x="62" y="814"/>
			<point x="62" y="790" type="curve"/>
			<point x="172" y="790"/>
			<point x="196" y="786"/>
			<point x="226" y="718" type="curve" smooth="yes"/>
			<point x="331" y="486"/>
			<point x="436" y="254"/>
			<point x="542" y="22" type="curve" smooth="yes"/>
			<point x="552" y="-2"/>
			<point x="564" y="-20"/>
		</contour>
	</outline>
</glyph>
<glyph name="w" format="2">
	<unicode hex="0077"/>
	<advance width="815"/>
	<outline>
		<contour>
			<point x="700" y="334" type="line" smooth="yes"/>
			<point x="720" y="384"/>
			<point x="753" y="394"/>
			<point x="784" y="395" type="curve"/>
			<point x="784" y="406.988"/>
			<point x="784" y="418.976"/>
			<point x="784" y="431" type="curve"/>
			<point x="757" y="428"/>
			<point x="741" y="427"/>
			<point x="712" y="427" type="curve" smooth="yes"/>
			<point x="682" y="427"/>
			<point x="644" y="428"/>
			<point x="614" y="431" type="curve"/>
			<point x="614" y="419.012"/>
			<point x="614" y="407.024"/>
			<point x="614" y="395" type="curve"/>
			<point x="649" y="394"/>
			<point x="666" y="375"/>
			<point x="666" y="351" type="curve" smooth="yes"/>
			<point x="666" y="343"/>
			<point x="666" y="341"/>
			<point x="660" y="327" type="curve" smooth="yes"/>
			<point x="563" y="78" type="line"/>
			<point x="455" y="351" type="line" smooth="yes"/>
			<point x="453" y="356"/>
			<point x="450" y="364"/>
			<point x="450" y="370" type="curve" smooth="yes"/>
			<point x="450" y="392"/>
			<point x="476" y="395"/>
			<point x="504" y="395" type="curve"/>
			<point x="504" y="431" type="line"/>
			<point x="468" y="428"/>
			<point x="432" y="427"/>
			<point x="396" y="427" type="curve" smooth="yes"/>
			<point x="367" y="427"/>
			<point x="337" y="429"/>
			<point x="308" y="431" type="curve"/>
			<point x="308" y="395" type="line"/>
			<point x="331" y="395"/>
			<point x="352" y="395"/>
			<point x="365" y="387" type="curve"/>
			<point x="379" y="377"/>
			<point x="388" y="343"/>
			<point x="388" y="342" type="curve"/>
			<point x="290" y="93" type="line"/>
			<point x="189" y="351" type="line" smooth="yes"/>
			<point x="183" y="365"/>
			<point x="183" y="366"/>
			<point x="183" y="370" type="curve" smooth="yes"/>
			<point x="183" y="395"/>
			<point x="219" y="395"/>
			<point x="237" y="395" type="curve"/>
			<point x="237" y="431" type="line"/>
			<point x="235" y="431"/>
			<point x="164" y="427"/>
			<point x="124" y="427" type="curve" smooth="yes"/>
			<point x="93" y="427"/>
			<point x="61" y="428"/>
			<point x="30" y="431" type="curve"/>
			<point x="30" y="395" type="line"/>
			<point x="69" y="395"/>
			<point x="91" y="395"/>
			<point x="102" y="366" type="curve" smooth="yes"/>
			<point x="241" y="13" type="line" smooth="yes"/>
			<point x="247" y="-2"/>
			<point x="250" y="-10"/>
			<point x="268" y="-10" type="curve" smooth="yes"/>
			<point x="286" y="-10"/>
			<point x="289" y="-2"/>
			<point x="294" y="11" type="curve" smooth="yes"/>
			<point x="407" y="297" type="line"/>
			<point x="518" y="14" type="line" smooth="yes"/>
			<point x="524" y="-1"/>
			<point x="528" y="-10"/>
			<point x="546" y="-10" type="curve" smooth="yes"/>
			<point x="564" y="-10"/>
			<point x="567" y="-3"/>
			<point x="573" y="13" type="curve" smooth="yes"/>
		</contour>
	</outline>
</glyph>
<glyph name="x" format="2">
	<unicode hex="0078"/>
	<advance width="1200"/>
	<outline>
		<contour>
			<point x="526" y="420" type="line"/>
			<point x="354" y="230" type="line" smooth="yes"/>
			<point x="280" y="150"/>
			<point x="212" y="76"/>
			<point x="52" y="72" type="curve"/>
			<point x="52" y="0" type="line"/>
			<point x="112" y="4"/>
			<point x="156" y="8"/>
			<point x="218" y="8" type="curve" smooth="yes"/>
			<point x="278" y="8"/>
			<point x="358" y="6"/>
			<point x="418" y="0" type="curve"/>
			<point x="418" y="72" type="line"/>
			<point x="394" y="76"/>
			<point x="378" y="90"/>
			<point x="378" y="118" type="curve" smooth="yes"/>
			<point x="378" y="156"/>
			<point x="400" y="182"/>
			<point x="432" y="216" type="curve" smooth="yes"/>
			<point x="479" y="267"/>
			<point x="525" y="319"/>
			<point x="572" y="370" type="curve"/>
			<point x="746" y="172" type="line" smooth="yes"/>
			<point x="784" y="130"/>
			<point x="784" y="126"/>
			<point x="784" y="114" type="curve" smooth="yes"/>
			<point x="784" y="74"/>
			<point x="738" y="72"/>
			<point x="730" y="72" type="curve"/>
			<point x="730" y="0" type="line"/>
			<point x="748" y="2"/>
			<point x="892" y="8"/>
			<point x="956" y="8" type="curve" smooth="yes"/>
			<point x="1020" y="8"/>
			<point x="1084" y="6"/>
			<point x="1148" y="0" type="curve"/>
			<point x="1148" y="72" type="line"/>
			<point x="1014" y="72"/>
			<point x="998" y="84"/>
			<point x="952" y="136" type="curve" smooth="yes"/>
			<point x="660" y="468" type="line"/>
			<point x="812" y="634" type="line" smooth="yes"/>
			<point x="882" y="712"/>
			<point x="952" y="788"/>
			<point x="1110" y="790" type="curve"/>
			<point x="1110" y="862" type="line"/>
			<point x="1054" y="858"/>
			<point x="996" y="854"/>
			<point x="942" y="854" type="curve" smooth="yes"/>
			<point x="882" y="854"/>
			<point x="804" y="856"/>
			<point x="744" y="862" type="curve"/>
			<point x="744" y="790" type="line"/>
			<point x="778" y="784"/>
			<point x="784" y="762"/>
			<point x="784" y="744" type="curve" smooth="yes"/>
			<point x="784" y="740"/>
			<point x="784" y="710"/>
			<point x="754" y="676" type="curve" smooth="yes"/>
			<point x="614" y="518" type="line"/>
			<point x="448" y="708" type="line" smooth="yes"/>
			<point x="428" y="730"/>
			<point x="426" y="740"/>
			<point x="426" y="748" type="curve" smooth="yes"/>
			<point x="426" y="778"/>
			<point x="454" y="790"/>
			<point x="480" y="790" type="curve"/>
			<point x="480" y="862" type="line"/>
			<point x="406" y="856"/>
			<point x="330" y="854"/>
			<point x="256" y="854" type="curve" smooth="yes"/>
			<point x="196" y="854"/>
			<point x="120" y="856"/>
			<point x="62" y="862" type="curve"/>
			<point x="62" y="790" type="line"/>
			<point x="154" y="790"/>
			<point x="206" y="790"/>
			<point x="258" y="730" type="curve"/>
		</contour>
	</outline>
</glyph>
<glyph name="z" format="2">
	<unicode hex="007A"/>
	<advance width="1014"/>
	<outline>
		<contour>
			<point x="700" y="806" type="line"/>
			<point x="96" y="76" type="line" smooth="yes"/>
			<point x="78" y="54"/>
			<point x="78" y="46"/>
			<point x="78" y="36" type="curve" smooth="yes"/>
			<point x="78" y="0"/>
			<point x="98" y="0"/>
			<point x="134" y="0" type="curve" smooth="yes"/>
			<point x="870" y="0" type="line"/>
			<point x="906" y="388" type="line"/>
			<point x="838" y="388" type="line"/>
			<point x="818" y="154"/>
			<point x="776" y="64"/>
			<point x="526" y="64" type="curve" smooth="yes"/>
			<point x="280" y="64" type="line"/>
			<point x="882" y="792" type="line" smooth="yes"/>
			<point x="896" y="810"/>
			<point x="900" y="816"/>
			<point x="900" y="830" type="curve" smooth="yes"/>
			<point x="900" y="862"/>
			<point x="876" y="862"/>
			<point x="844" y="862" type="curve" smooth="yes"/>
			<point x="132" y="862" type="line"/>
			<point x="108" y="528" type="line"/>
			<point x="176" y="528" type="line"/>
			<point x="190" y="738"/>
			<point x="236" y="806"/>
			<point x="464" y="806" type="curve" smooth="yes"/>
		</contour>
	</outline>
</glyph>
<glyph name="exclamdown" format="2">
	<unicode hex="00A1"/>
	<advance width="646"/>
	<outline>
		<contour>
			<point x="322" y="-428" type="curve" smooth="yes"/>
			<point x="380" y="-428"/>
			<point x="438" y="-386"/>
			<point x="438" y="-318" type="curve"/>
			<point x="412" y="-24"/>
			<point x="386" y="271"/>
			<point x="360" y="566" type="curve" smooth="yes"/>
			<point x="356" y="608"/>
			<point x="350" y="612"/>
			<point x="324" y="612" type="curve" smooth="yes"/>
			<point x="298" y="612"/>
			<point x="290" y="610"/>
			<point x="286" y="566" type="curve" smooth="yes"/>
			<point x="260" y="272"/>
			<point x="234" y="-23"/>
			<point x="208" y="-318" type="curve"/>
			<point x="208" y="-390"/>
			<point x="270" y="-428"/>
		</contour>
		<contour>
			<point x="438" y="886" type="curve" smooth="yes"/>
			<point x="438" y="948"/>
			<point x="386" y="1000"/>
			<point x="324" y="1000" type="curve" smooth="yes"/>
			<point x="254" y="1000"/>
			<point x="208" y="944"/>
			<point x="208" y="886" type="curve" smooth="yes"/>
			<point x="208" y="816"/>
			<point x="264" y="770"/>
			<point x="322" y="770" type="curve" smooth="yes"/>
			<point x="388" y="770"/>
			<point x="438" y="820"/>
		</contour>
	</outline>
</glyph>
<glyph name="dieresis" format="2">
	<unicode hex="00A8"/>
	<advance width="1138"/>
	<outline>
		<contour>
			<point x="462" y="1240" type="curve" smooth="yes"/>
			<point x="462" y="1300"/>
			<point x="414" y="1348"/>
			<point x="354" y="1348" type="curve" smooth="yes"/>
			<point x="296" y="1348"/>
			<point x="246" y="1300"/>
			<point x="246" y="1240" type="curve" smooth="yes"/>
			<point x="246" y="1180"/>
			<point x="296" y="1132"/>
			<point x="354" y="1132" type="curve" smooth="yes"/>
			<point x="414" y="1132"/>
			<point x="462" y="1180"/>
		</contour>
		<contour>
			<point x="890" y="1240" type="curve" smooth="yes"/>
			<point x="890" y="1300"/>
			<point x="840" y="1348"/>
			<point x="782" y="1348" type="curve" smooth="yes"/>
			<point x="722" y="1348"/>
			<point x="674" y="1300"/>
			<point x="674" y="1240" type="curve" smooth="yes"/>
			<point x="674" y="1180"/>
			<point x="722" y="1132"/>
			<point x="782" y="1132" type="curve" smooth="yes"/>
			<point x="840" y="1132"/>
			<point x="890" y="1180"/>
		</contour>
	</outline>
</glyph>
<glyph name="macron" format="2">
	<unicode hex="00AF"/>
	<advance width="1138"/>
	<outline>
		<contour>
			<point x="966" y="1112" type="line"/>
			<point x="966" y="1188" type="line"/>
			<point x="170" y="1188" type="line"/>
			<point x="170" y="1112" type="line"/>
		</contour>
	</outline>
</glyph>
<glyph name="acute" format="2">
	<unicode hex="00B4"/>
	<advance width="1138"/>
	<outline>
		<contour>
			<point x="516" y="1012" type="line"/>
			<point x="832" y="1240" type="line"/>
			<point x="864" y="1262"/>
			<point x="882" y="1276"/>
			<point x="882" y="1314" type="curve" smooth="yes"/>
			<point x="882" y="1352"/>
			<point x="848" y="1396"/>
			<point x="800" y="1396" type="curve" smooth="yes"/>
			<point x="768" y="1396"/>
			<point x="752" y="1378"/>
			<point x="732" y="1356" type="curve" smooth="yes"/>
			<point x="645" y="1259"/>
			<point x="558" y="1162"/>
			<point x="470" y="1064" type="curve"/>
		</contour>
	</outline>
</glyph>
<glyph name="cedilla" format="2">
  <advance width="507"/>
  <unicode hex="00B8"/>
  <outline>
    <contour>
      <point x="337" y="-122" type="curve" smooth="yes"/>
      <point x="337" y="-161"/>
      <point x="285" y="-176"/>
      <point x="188" y="-176" type="curve" smooth="yes"/>
      <point x="176.012" y="-176.0"/>
      <point x="164.024" y="-176.0"/>
      <point x="152" y="-176" type="curve"/>
      <point x="152" y="-204" type="line"/>
      <point x="168.317" y="-204.0"/>
      <point x="184.63400000000001" y="-204.0"/>
      <point x="201" y="-204" type="curve" smooth="yes"/>
      <point x="202" y="-204"/>
      <point x="282" y="-204"/>
      <point x="333" y="-193" type="curve" smooth="yes"/>
      <point x="374" y="-184"/>
      <point x="416" y="-167"/>
      <point x="416" y="-122" type="curve" smooth="yes"/>
      <point x="416" y="-82"/>
      <point x="386" y="-56"/>
      <point x="324" y="-46" type="curve"/>
      <point x="324" y="-20" type="line"/>
      <point x="245" y="-20" type="line"/>
      <point x="245" y="-69" type="line"/>
      <point x="312" y="-70"/>
      <point x="337" y="-95"/>
    </contour>
  </outline>
</glyph>
<glyph name="questiondown" format="2">
	<unicode hex="00BF"/>
	<advance width="538"/>
	<outline>
		<contour>
			<point x="70" y="-69" type="curve" smooth="yes"/>
			<point x="70" y="-121"/>
			<point x="99" y="-204"/>
			<point x="254" y="-204" type="curve" smooth="yes"/>
			<point x="375" y="-204"/>
			<point x="468" y="-155"/>
			<point x="468" y="-71" type="curve" smooth="yes"/>
			<point x="468" y="-30"/>
			<point x="435" y="-21"/>
			<point x="420" y="-21" type="curve" smooth="yes"/>
			<point x="401" y="-21"/>
			<point x="373" y="-35"/>
			<point x="373" y="-69" type="curve" smooth="yes"/>
			<point x="373" y="-75"/>
			<point x="373" y="-112"/>
			<point x="419" y="-116" type="curve"/>
			<point x="378" y="-172"/>
			<point x="281" y="-176"/>
			<point x="256" y="-176" type="curve" smooth="yes"/>
			<point x="162" y="-176"/>
			<point x="161" y="-122"/>
			<point x="161" y="-76" type="curve" smooth="yes"/>
			<point x="161" y="-41"/>
			<point x="164" y="-14"/>
			<point x="188" y="14" type="curve" smooth="yes"/>
			<point x="270" y="111"/>
			<point x="271" y="215"/>
			<point x="271" y="269" type="curve" smooth="yes"/>
			<point x="271" y="288"/>
			<point x="271" y="297"/>
			<point x="268" y="301" type="curve" smooth="yes"/>
			<point x="266" y="306"/>
			<point x="262" y="306"/>
			<point x="254" y="306" type="curve" smooth="yes"/>
			<point x="237" y="306"/>
			<point x="237" y="301"/>
			<point x="237" y="281" type="curve" smooth="yes"/>
			<point x="237" y="265" type="line" smooth="yes"/>
			<point x="237" y="212"/>
			<point x="234" y="118"/>
			<point x="120" y="31" type="curve" smooth="yes"/>
			<point x="82" y="2"/>
			<point x="70" y="-36"/>
		</contour>
		<contour>
			<point x="311" y="442" type="curve" smooth="yes"/>
			<point x="311" y="477"/>
			<point x="283" y="500"/>
			<point x="254" y="500" type="curve" smooth="yes"/>
			<point x="219" y="500"/>
			<point x="196" y="472"/>
			<point x="196" y="443" type="curve" smooth="yes"/>
			<point x="196" y="408"/>
			<point x="224" y="385"/>
			<point x="253" y="385" type="curve" smooth="yes"/>
			<point x="288" y="385"/>
			<point x="311" y="413"/>
		</contour>
	</outline>
</glyph>
<glyph name="AE" format="2">
	<unicode hex="00C6"/>
	<advance width="2026"/>
	<outline>
		<contour>
			<point x="1826" y="1366" type="line"/>
			<point x="604" y="1366" type="line"/>
			<point x="604" y="1294" type="line"/>
			<point x="770" y="1294" type="line"/>
			<point x="328" y="206" type="line" smooth="yes"/>
			<point x="284" y="98"/>
			<point x="192" y="72"/>
			<point x="92" y="72" type="curve"/>
			<point x="92" y="72" type="line"/>
			<point x="92" y="0" type="line"/>
			<point x="160" y="6"/>
			<point x="228" y="8"/>
			<point x="296" y="8" type="curve" smooth="yes"/>
			<point x="376" y="8"/>
			<point x="456" y="6"/>
			<point x="536" y="0" type="curve"/>
			<point x="536" y="72" type="line"/>
			<point x="422" y="74"/>
			<point x="394" y="134"/>
			<point x="394" y="166" type="curve" smooth="yes"/>
			<point x="394" y="180"/>
			<point x="398" y="186"/>
			<point x="406" y="208" type="curve" smooth="yes"/>
			<point x="574" y="620" type="line"/>
			<point x="934" y="620" type="line"/>
			<point x="934" y="160" type="line" smooth="yes"/>
			<point x="934" y="72"/>
			<point x="914" y="72"/>
			<point x="780" y="72" type="curve"/>
			<point x="780" y="72" type="line"/>
			<point x="780" y="0" type="line"/>
			<point x="1858" y="0" type="line"/>
			<point x="1948" y="526" type="line"/>
			<point x="1880" y="526" type="line"/>
			<point x="1828" y="226"/>
			<point x="1792" y="72"/>
			<point x="1444" y="72" type="curve" smooth="yes"/>
			<point x="1208" y="72" type="line" smooth="yes"/>
			<point x="1114" y="72"/>
			<point x="1112" y="88"/>
			<point x="1112" y="150" type="curve" smooth="yes"/>
			<point x="1112" y="620" type="line"/>
			<point x="1304" y="620" type="line" smooth="yes"/>
			<point x="1502" y="620"/>
			<point x="1526" y="556"/>
			<point x="1526" y="386" type="curve"/>
			<point x="1594" y="386" type="line"/>
			<point x="1594" y="926" type="line"/>
			<point x="1526" y="926" type="line"/>
			<point x="1526" y="754"/>
			<point x="1502" y="692"/>
			<point x="1304" y="692" type="curve" smooth="yes"/>
			<point x="1112" y="692" type="line"/>
			<point x="1112" y="1216" type="line" smooth="yes"/>
			<point x="1112" y="1278"/>
			<point x="1114" y="1294"/>
			<point x="1208" y="1294" type="curve" smooth="yes"/>
			<point x="1440" y="1294" type="line" smooth="yes"/>
			<point x="1740" y="1294"/>
			<point x="1784" y="1176"/>
			<point x="1818" y="906" type="curve"/>
			<point x="1886" y="906" type="line"/>
		</contour>
		<contour>
			<point x="602" y="692" type="line"/>
			<point x="846" y="1288" type="line"/>
			<point x="934" y="1286"/>
			<point x="934" y="1234"/>
			<point x="934" y="1200" type="curve" smooth="yes"/>
			<point x="934" y="692" type="line"/>
		</contour>
	</outline>
</glyph>
<glyph name="Oslash" format="2">
	<unicode hex="00D8"/>
	<advance width="1754"/>
	<outline>
		<contour>
			<point x="1486" y="1444" type="line"/>
			<point x="1436" y="1484" type="line"/>
			<point x="1286" y="1282" type="line"/>
			<point x="1138" y="1380"/>
			<point x="990" y="1406"/>
			<point x="876" y="1406" type="curve" smooth="yes"/>
			<point x="466" y="1406"/>
			<point x="140" y="1076"/>
			<point x="140" y="676" type="curve" smooth="yes"/>
			<point x="140" y="458"/>
			<point x="244" y="256"/>
			<point x="414" y="120" type="curve"/>
			<point x="266" y="-78" type="line"/>
			<point x="283" y="-91"/>
			<point x="299" y="-103"/>
			<point x="316" y="-116" type="curve"/>
			<point x="464" y="80" type="line"/>
			<point x="616" y="-12"/>
			<point x="750" y="-40"/>
			<point x="876" y="-40" type="curve" smooth="yes"/>
			<point x="1286" y="-40"/>
			<point x="1612" y="284"/>
			<point x="1612" y="676" type="curve" smooth="yes"/>
			<point x="1612" y="798"/>
			<point x="1580" y="1046"/>
			<point x="1338" y="1244" type="curve"/>
		</contour>
		<contour>
			<point x="876" y="16" type="curve" smooth="yes"/>
			<point x="694" y="16"/>
			<point x="570" y="102"/>
			<point x="518" y="150" type="curve"/>
			<point x="1278" y="1166" type="line"/>
			<point x="1406" y="1020"/>
			<point x="1422" y="808"/>
			<point x="1422" y="678" type="curve" smooth="yes"/>
			<point x="1422" y="506"/>
			<point x="1396" y="346"/>
			<point x="1288" y="206" type="curve" smooth="yes"/>
			<point x="1220" y="118"/>
			<point x="1076" y="16"/>
		</contour>
		<contour>
			<point x="472" y="198" type="line"/>
			<point x="374" y="312"/>
			<point x="330" y="468"/>
			<point x="330" y="678" type="curve" smooth="yes"/>
			<point x="330" y="940"/>
			<point x="405" y="1101"/>
			<point x="503" y="1199" type="curve" smooth="yes"/>
			<point x="630" y="1329"/>
			<point x="795" y="1350"/>
			<point x="876" y="1350" type="curve" smooth="yes"/>
			<point x="1004" y="1350"/>
			<point x="1130" y="1306"/>
			<point x="1234" y="1214" type="curve"/>
		</contour>
	</outline>
</glyph>
<glyph name="germandbls" format="2">
	<unicode hex="00DF"/>
	<advance width="1138"/>
	<outline>
		<contour>
			<point x="724" y="830" type="curve"/>
			<point x="914" y="890"/>
			<point x="996" y="1014"/>
			<point x="996" y="1120" type="curve" smooth="yes"/>
			<point x="996" y="1276"/>
			<point x="832" y="1408"/>
			<point x="618" y="1408" type="curve" smooth="yes"/>
			<point x="448" y="1408"/>
			<point x="248" y="1312"/>
			<point x="248" y="1106" type="curve" smooth="yes"/>
			<point x="248" y="862" type="line"/>
			<point x="98" y="862" type="line"/>
			<point x="98" y="790" type="line"/>
			<point x="248" y="790" type="line"/>
			<point x="248" y="158" type="line" smooth="yes"/>
			<point x="248" y="72"/>
			<point x="228" y="72"/>
			<point x="98" y="72" type="curve"/>
			<point x="98" y="0" type="line"/>
			<point x="170" y="6"/>
			<point x="240" y="8"/>
			<point x="312" y="8" type="curve" smooth="yes"/>
			<point x="350" y="8"/>
			<point x="390" y="2"/>
			<point x="398" y="0" type="curve"/>
			<point x="398" y="1108" type="line" smooth="yes"/>
			<point x="398" y="1338"/>
			<point x="580" y="1352"/>
			<point x="618" y="1352" type="curve" smooth="yes"/>
			<point x="710" y="1352"/>
			<point x="830" y="1290"/>
			<point x="830" y="1122" type="curve" smooth="yes"/>
			<point x="830" y="976"/>
			<point x="726" y="872"/>
			<point x="562" y="862" type="curve" smooth="yes"/>
			<point x="540" y="860"/>
			<point x="522" y="860"/>
			<point x="522" y="834" type="curve" smooth="yes"/>
			<point x="522" y="808"/>
			<point x="540" y="806"/>
			<point x="552" y="806" type="curve"/>
			<point x="778" y="790"/>
			<point x="892" y="582"/>
			<point x="892" y="348" type="curve" smooth="yes"/>
			<point x="892" y="88"/>
			<point x="738" y="36"/>
			<point x="668" y="36" type="curve" smooth="yes"/>
			<point x="656" y="36"/>
			<point x="610" y="36"/>
			<point x="570" y="66" type="curve"/>
			<point x="576" y="68"/>
			<point x="614" y="88"/>
			<point x="614" y="136" type="curve" smooth="yes"/>
			<point x="614" y="182"/>
			<point x="576" y="212"/>
			<point x="538" y="212" type="curve" smooth="yes"/>
			<point x="504" y="212"/>
			<point x="462" y="190"/>
			<point x="462" y="134" type="curve" smooth="yes"/>
			<point x="462" y="48"/>
			<point x="546" y="-20"/>
			<point x="670" y="-20" type="curve" smooth="yes"/>
			<point x="872" y="-20"/>
			<point x="1058" y="134"/>
			<point x="1058" y="348" type="curve" smooth="yes"/>
			<point x="1058" y="572"/>
			<point x="910" y="762"/>
		</contour>
	</outline>
</glyph>
<glyph name="ae" format="2">
	<unicode hex="00E6"/>
	<advance width="815"/>
	<outline>
		<contour>
			<point x="58" y="97" type="curve" smooth="yes"/>
			<point x="58" y="12"/>
			<point x="160" y="-10"/>
			<point x="232" y="-10" type="curve" smooth="yes"/>
			<point x="319" y="-10"/>
			<point x="389" y="23"/>
			<point x="420" y="75" type="curve"/>
			<point x="466" y="21"/>
			<point x="535" y="-10"/>
			<point x="604" y="-10" type="curve" smooth="yes"/>
			<point x="728" y="-10"/>
			<point x="775" y="97"/>
			<point x="775" y="120" type="curve" smooth="yes"/>
			<point x="775" y="124"/>
			<point x="773" y="134"/>
			<point x="758" y="134" type="curve" smooth="yes"/>
			<point x="745" y="134"/>
			<point x="743" y="128"/>
			<point x="740" y="119" type="curve" smooth="yes"/>
			<point x="713" y="40"/>
			<point x="647" y="22"/>
			<point x="611" y="22" type="curve" smooth="yes"/>
			<point x="600" y="22"/>
			<point x="447" y="22"/>
			<point x="447" y="228" type="curve"/>
			<point x="747" y="228" type="line" smooth="yes"/>
			<point x="769" y="228"/>
			<point x="775" y="228"/>
			<point x="775" y="251" type="curve" smooth="yes"/>
			<point x="775" y="347"/>
			<point x="723" y="446"/>
			<point x="591" y="446" type="curve" smooth="yes"/>
			<point x="516" y="446"/>
			<point x="460" y="410"/>
			<point x="424" y="371" type="curve"/>
			<point x="404" y="402"/>
			<point x="347" y="446"/>
			<point x="252" y="446" type="curve" smooth="yes"/>
			<point x="160" y="446"/>
			<point x="90" y="412"/>
			<point x="90" y="349" type="curve" smooth="yes"/>
			<point x="90" y="317"/>
			<point x="112" y="300"/>
			<point x="138" y="300" type="curve" smooth="yes"/>
			<point x="165" y="300"/>
			<point x="185" y="320"/>
			<point x="185" y="347" type="curve" smooth="yes"/>
			<point x="185" y="364"/>
			<point x="177" y="385"/>
			<point x="150" y="393" type="curve"/>
			<point x="187" y="418"/>
			<point x="243" y="418"/>
			<point x="250" y="418" type="curve" smooth="yes"/>
			<point x="310" y="418"/>
			<point x="368" y="379"/>
			<point x="368" y="297" type="curve" smooth="yes"/>
			<point x="368" y="253" type="line"/>
			<point x="177" y="249"/>
			<point x="58" y="190"/>
		</contour>
		<contour>
			<point x="240" y="18" type="curve" smooth="yes"/>
			<point x="186" y="18"/>
			<point x="142" y="52"/>
			<point x="142" y="97" type="curve" smooth="yes"/>
			<point x="142" y="131"/>
			<point x="165" y="218"/>
			<point x="368" y="226" type="curve"/>
			<point x="368" y="212"/>
			<point x="368" y="186"/>
			<point x="377" y="155" type="curve"/>
			<point x="380" y="147"/>
			<point x="381" y="139"/>
			<point x="381" y="133" type="curve" smooth="yes"/>
			<point x="381" y="63"/>
			<point x="310" y="18"/>
		</contour>
		<contour>
			<point x="449" y="254" type="line"/>
			<point x="459" y="384"/>
			<point x="543" y="418"/>
			<point x="590" y="418" type="curve" smooth="yes"/>
			<point x="699" y="418"/>
			<point x="704" y="282"/>
			<point x="705" y="254" type="curve"/>
		</contour>
	</outline>
</glyph>
<glyph name="oslash" format="2">
	<unicode hex="00F8"/>
	<advance width="1138"/>
	<outline>
		<contour>
			<point x="192" y="-208" type="line"/>
			<point x="346" y="32" type="line"/>
			<point x="438" y="-14"/>
			<point x="522" y="-20"/>
			<point x="568" y="-20" type="curve" smooth="yes"/>
			<point x="830" y="-20"/>
			<point x="1046" y="176"/>
			<point x="1046" y="426" type="curve" smooth="yes"/>
			<point x="1046" y="580"/>
			<point x="964" y="728"/>
			<point x="842" y="806" type="curve"/>
			<point x="990" y="1040" type="line"/>
			<point x="944" y="1072" type="line"/>
			<point x="794" y="836" type="line"/>
			<point x="708" y="882"/>
			<point x="628" y="892"/>
			<point x="568" y="892" type="curve" smooth="yes"/>
			<point x="298" y="892"/>
			<point x="90" y="676"/>
			<point x="90" y="426" type="curve" smooth="yes"/>
			<point x="90" y="322"/>
			<point x="128" y="174"/>
			<point x="296" y="58" type="curve"/>
			<point x="148" y="-178" type="line"/>
		</contour>
		<contour>
			<point x="568" y="36" type="curve" smooth="yes"/>
			<point x="470" y="36"/>
			<point x="402" y="76"/>
			<point x="384" y="88" type="curve"/>
			<point x="798" y="738" type="line"/>
			<point x="866" y="666"/>
			<point x="888" y="562"/>
			<point x="888" y="426" type="curve" smooth="yes"/>
			<point x="888" y="350"/>
			<point x="884" y="226"/>
			<point x="812" y="140" type="curve" smooth="yes"/>
			<point x="746" y="64"/>
			<point x="654" y="36"/>
		</contour>
		<contour>
			<point x="338" y="126" type="line"/>
			<point x="254" y="212"/>
			<point x="248" y="342"/>
			<point x="248" y="426" type="curve" smooth="yes"/>
			<point x="248" y="542"/>
			<point x="262" y="642"/>
			<point x="322" y="720" type="curve" smooth="yes"/>
			<point x="372" y="786"/>
			<point x="462" y="836"/>
			<point x="568" y="836" type="curve" smooth="yes"/>
			<point x="628" y="836"/>
			<point x="692" y="820"/>
			<point x="756" y="778" type="curve"/>
		</contour>
	</outline>
</glyph>
<glyph name="dotlessi" format="2">
	<unicode hex="0131"/>
	<advance width="646"/>
	<outline>
		<contour>
			<point x="412" y="882" type="line"/>
			<point x="118" y="860" type="line"/>
			<point x="118" y="788" type="line"/>
			<point x="244" y="788"/>
			<point x="262" y="776"/>
			<point x="262" y="678" type="curve" smooth="yes"/>
			<point x="262" y="158" type="line" smooth="yes"/>
			<point x="262" y="72"/>
			<point x="242" y="72"/>
			<point x="112" y="72" type="curve"/>
			<point x="112" y="72" type="line"/>
			<point x="112" y="0" type="line"/>
			<point x="116" y="0"/>
			<point x="256" y="8"/>
			<point x="336" y="8" type="curve" smooth="yes"/>
			<point x="406" y="8"/>
			<point x="478" y="6"/>
			<point x="548" y="0" type="curve"/>
			<point x="548" y="72" type="line"/>
			<point x="432" y="72"/>
			<point x="412" y="72"/>
			<point x="412" y="156" type="curve" smooth="yes"/>
		</contour>
	</outline>
</glyph>
<glyph name="OE" format="2">
	<unicode hex="0152"/>
	<advance width="2272"/>
	<outline>
		<contour>
			<point x="2194" y="526" type="line"/>
			<point x="2126" y="526" type="line"/>
			<point x="2074" y="226"/>
			<point x="2036" y="72"/>
			<point x="1682" y="72" type="curve" smooth="yes"/>
			<point x="1412" y="72" type="line" smooth="yes"/>
			<point x="1318" y="72"/>
			<point x="1316" y="88"/>
			<point x="1316" y="150" type="curve" smooth="yes"/>
			<point x="1316" y="674" type="line"/>
			<point x="1556" y="674" type="line" smooth="yes"/>
			<point x="1758" y="674"/>
			<point x="1804" y="626"/>
			<point x="1804" y="440" type="curve"/>
			<point x="1872" y="440" type="line"/>
			<point x="1872" y="980" type="line"/>
			<point x="1804" y="980" type="line"/>
			<point x="1804" y="794"/>
			<point x="1758" y="746"/>
			<point x="1556" y="746" type="curve" smooth="yes"/>
			<point x="1316" y="746" type="line"/>
			<point x="1316" y="1216" type="line" smooth="yes"/>
			<point x="1316" y="1278"/>
			<point x="1318" y="1294"/>
			<point x="1412" y="1294" type="curve" smooth="yes"/>
			<point x="1672" y="1294" type="line" smooth="yes"/>
			<point x="1982" y="1294"/>
			<point x="2030" y="1180"/>
			<point x="2064" y="906" type="curve"/>
			<point x="2132" y="906" type="line"/>
			<point x="2072" y="1366" type="line"/>
			<point x="1238" y="1366" type="line" smooth="yes"/>
			<point x="1218" y="1366"/>
			<point x="1174" y="1366"/>
			<point x="1076" y="1384" type="curve" smooth="yes"/>
			<point x="964" y="1406"/>
			<point x="932" y="1406"/>
			<point x="900" y="1406" type="curve" smooth="yes"/>
			<point x="504" y="1406"/>
			<point x="168" y="1084"/>
			<point x="168" y="676" type="curve" smooth="yes"/>
			<point x="168" y="276"/>
			<point x="504" y="-40"/>
			<point x="900" y="-40" type="curve" smooth="yes"/>
			<point x="922" y="-40"/>
			<point x="968" y="-40"/>
			<point x="1074" y="-20" type="curve" smooth="yes"/>
			<point x="1148" y="-4"/>
			<point x="1198" y="0"/>
			<point x="1238" y="0" type="curve" smooth="yes"/>
			<point x="2104" y="0" type="line"/>
		</contour>
		<contour>
			<point x="374" y="708" type="curve" smooth="yes"/>
			<point x="374" y="1072"/>
			<point x="616" y="1350"/>
			<point x="908" y="1350" type="curve" smooth="yes"/>
			<point x="1088" y="1350"/>
			<point x="1150" y="1292"/>
			<point x="1150" y="984" type="curve" smooth="yes"/>
			<point x="1150" y="894"/>
			<point x="1150" y="802"/>
			<point x="1150" y="712" type="curve" smooth="yes"/>
			<point x="1150" y="602"/>
			<point x="1150" y="492"/>
			<point x="1150" y="382" type="curve" smooth="yes"/>
			<point x="1150" y="74"/>
			<point x="1088" y="16"/>
			<point x="908" y="16" type="curve" smooth="yes"/>
			<point x="612" y="16"/>
			<point x="374" y="326"/>
		</contour>
	</outline>
</glyph>
<glyph name="oe" format="2">
	<unicode hex="0153"/>
	<advance width="877"/>
	<outline>
		<contour>
			<point x="275" y="-10" type="curve" smooth="yes"/>
			<point x="343" y="-10"/>
			<point x="419" y="20"/>
			<point x="468" y="91" type="curve"/>
			<point x="541" y="-3"/>
			<point x="631" y="-10"/>
			<point x="666" y="-10" type="curve" smooth="yes"/>
			<point x="789" y="-10"/>
			<point x="837" y="97"/>
			<point x="837" y="120" type="curve" smooth="yes"/>
			<point x="837" y="124"/>
			<point x="835" y="134"/>
			<point x="820" y="134" type="curve" smooth="yes"/>
			<point x="807" y="134"/>
			<point x="805" y="128"/>
			<point x="802" y="119" type="curve" smooth="yes"/>
			<point x="778" y="47"/>
			<point x="719" y="22"/>
			<point x="672" y="22" type="curve" smooth="yes"/>
			<point x="653" y="22"/>
			<point x="508" y="28"/>
			<point x="508" y="228" type="curve"/>
			<point x="809" y="228" type="line" smooth="yes"/>
			<point x="831" y="228"/>
			<point x="837" y="228"/>
			<point x="837" y="251" type="curve" smooth="yes"/>
			<point x="837" y="339"/>
			<point x="792" y="446"/>
			<point x="652" y="446" type="curve" smooth="yes"/>
			<point x="568" y="446"/>
			<point x="501" y="399"/>
			<point x="468" y="347" type="curve"/>
			<point x="424" y="408"/>
			<point x="354" y="446"/>
			<point x="274" y="446" type="curve" smooth="yes"/>
			<point x="145" y="446"/>
			<point x="39" y="345"/>
			<point x="39" y="219" type="curve" smooth="yes"/>
			<point x="39" y="94"/>
			<point x="143" y="-10"/>
		</contour>
		<contour>
			<point x="275" y="18" type="curve" smooth="yes"/>
			<point x="249" y="18"/>
			<point x="123" y="29"/>
			<point x="123" y="223" type="curve" smooth="yes"/>
			<point x="123" y="408"/>
			<point x="248" y="418"/>
			<point x="275" y="418" type="curve" smooth="yes"/>
			<point x="305" y="418"/>
			<point x="429" y="403"/>
			<point x="429" y="223" type="curve" smooth="yes"/>
			<point x="429" y="18"/>
			<point x="284" y="18"/>
		</contour>
		<contour>
			<point x="510" y="254" type="line"/>
			<point x="519" y="383"/>
			<point x="604" y="418"/>
			<point x="651" y="418" type="curve" smooth="yes"/>
			<point x="761" y="418"/>
			<point x="766" y="283"/>
			<point x="767" y="254" type="curve"/>
		</contour>
	</outline>
</glyph>
<glyph name="circumflex" format="2">
	<unicode hex="02C6"/>
	<advance width="1138"/>
	<outline>
		<contour>
			<point x="568" y="1388" type="line"/>
			<point x="270" y="1122" type="line"/>
			<point x="314" y="1070" type="line"/>
			<point x="568" y="1268" type="line"/>
			<point x="822" y="1070" type="line"/>
			<point x="866" y="1122" type="line"/>
		</contour>
	</outline>
</glyph>
<glyph name="caron" format="2">
	<unicode hex="02C7"/>
	<advance width="1138"/>
	<outline>
		<contour>
			<point x="568" y="1148" type="line"/>
			<point x="310" y="1284" type="line"/>
			<point x="274" y="1228" type="line"/>
			<point x="568" y="1030" type="line"/>
			<point x="862" y="1226" type="line"/>
			<point x="826" y="1286" type="line"/>
		</contour>
	</outline>
</glyph>
<glyph name="breve" format="2">
  <advance width="569"/>
  <unicode hex="02D8"/>
  <outline>
    <contour>
      <point x="423" y="694" type="line"/>
      <point x="421" y="608"/>
      <point x="350" y="561"/>
      <point x="284" y="561" type="curve" smooth="yes"/>
      <point x="218" y="561"/>
      <point x="147" y="608"/>
      <point x="145" y="694" type="curve"/>
      <point x="117" y="694" type="line"/>
      <point x="119" y="589"/>
      <point x="196" y="516"/>
      <point x="284" y="516" type="curve" smooth="yes"/>
      <point x="372" y="516"/>
      <point x="449" y="589"/>
      <point x="451" y="694" type="curve"/>
    </contour>
  </outline>
</glyph>
<glyph name="dotaccent" format="2">
	<unicode hex="02D9"/>
	<advance width="646"/>
	<outline>
		<contour>
			<point x="436" y="1232" type="curve" smooth="yes"/>
			<point x="436" y="1296"/>
			<point x="386" y="1348"/>
			<point x="322" y="1348" type="curve" smooth="yes"/>
			<point x="254" y="1348"/>
			<point x="208" y="1292"/>
			<point x="208" y="1234" type="curve" smooth="yes"/>
			<point x="208" y="1170"/>
			<point x="258" y="1118"/>
			<point x="322" y="1118" type="curve" smooth="yes"/>
			<point x="390" y="1118"/>
			<point x="436" y="1174"/>
		</contour>
	</outline>
</glyph>
<glyph name="ring" format="2">
	<unicode hex="02DA"/>
	<advance width="1686"/>
	<outline>
		<contour>
			<point x="1060" y="1252" type="curve" smooth="yes"/>
			<point x="1060" y="1350"/>
			<point x="962" y="1428"/>
			<point x="842" y="1428" type="curve" smooth="yes"/>
			<point x="716" y="1428"/>
			<point x="624" y="1344"/>
			<point x="624" y="1254" type="curve" smooth="yes"/>
			<point x="624" y="1156"/>
			<point x="722" y="1078"/>
			<point x="842" y="1078" type="curve" smooth="yes"/>
			<point x="968" y="1078"/>
			<point x="1060" y="1162"/>
		</contour>
		<contour>
			<point x="842" y="1134" type="curve" smooth="yes"/>
			<point x="790" y="1134"/>
			<point x="692" y="1138"/>
			<point x="692" y="1252" type="curve" smooth="yes"/>
			<point x="692" y="1362"/>
			<point x="778" y="1372"/>
			<point x="842" y="1372" type="curve" smooth="yes"/>
			<point x="906" y="1372"/>
			<point x="992" y="1362"/>
			<point x="992" y="1252" type="curve" smooth="yes"/>
			<point x="992" y="1138"/>
			<point x="894" y="1134"/>
		</contour>
	</outline>
</glyph>
<glyph name="tilde" format="2">
	<unicode hex="02DC"/>
	<advance width="569"/>
	<outline>
		<contour>
			<point x="120" y="573" type="line"/>
			<point x="149" y="604"/>
			<point x="178" y="619"/>
			<point x="206" y="619" type="curve" smooth="yes"/>
			<point x="232" y="619"/>
			<point x="262" y="603"/>
			<point x="270" y="599" type="curve" smooth="yes"/>
			<point x="306" y="581"/>
			<point x="327" y="573"/>
			<point x="349" y="573" type="curve" smooth="yes"/>
			<point x="377.25228" y="573"/>
			<point x="393.1589475936" y="580.5972999424"/>
			<point x="420.9325597107" y="606.2621947158" type="curve" smooth="yes"/>
			<point x="433.4642998272" y="617.8424598272"/>
			<point x="448.41204" y="633.10112"/>
			<point x="468" y="653" type="curve"/>
			<point x="448" y="673" type="line"/>
			<point x="419" y="642"/>
			<point x="390" y="627"/>
			<point x="362" y="627" type="curve" smooth="yes"/>
			<point x="336" y="627"/>
			<point x="306" y="643"/>
			<point x="298" y="647" type="curve" smooth="yes"/>
			<point x="262" y="665"/>
			<point x="241" y="673"/>
			<point x="219" y="673" type="curve" smooth="yes"/>
			<point x="192.12614" y="673"/>
			<point x="176.4226031016" y="666.1259550144"/>
			<point x="151.0507047458" y="643.3665419907" type="curve" smooth="yes"/>
			<point x="137.7140650432" y="631.4031450432"/>
			<point x="121.70602" y="615.05056"/>
			<point x="100" y="593" type="curve"/>
		</contour>
	</outline>
</glyph>
<glyph name="hungarumlaut" format="2">
	<unicode hex="02DD"/>
	<advance width="1138"/>
	<outline>
		<contour>
			<point x="294" y="1056" type="line"/>
			<point x="352" y="1020" type="line"/>
			<point x="417" y="1099"/>
			<point x="481" y="1179"/>
			<point x="546" y="1258" type="curve" smooth="yes"/>
			<point x="562" y="1276"/>
			<point x="574" y="1292"/>
			<point x="574" y="1320" type="curve" smooth="yes"/>
			<point x="574" y="1370"/>
			<point x="526" y="1400"/>
			<point x="490" y="1400" type="curve" smooth="yes"/>
			<point x="442" y="1400"/>
			<point x="426" y="1366"/>
			<point x="414" y="1336" type="curve" smooth="yes"/>
		</contour>
		<contour>
			<point x="664" y="1056" type="line"/>
			<point x="683" y="1044"/>
			<point x="703" y="1032"/>
			<point x="722" y="1020" type="curve"/>
			<point x="787" y="1099"/>
			<point x="851" y="1179"/>
			<point x="916" y="1258" type="curve" smooth="yes"/>
			<point x="932" y="1276"/>
			<point x="944" y="1292"/>
			<point x="944" y="1320" type="curve" smooth="yes"/>
			<point x="944" y="1370"/>
			<point x="896" y="1400"/>
			<point x="860" y="1400" type="curve" smooth="yes"/>
			<point x="812" y="1400"/>
			<point x="796" y="1366"/>
			<point x="784" y="1336" type="curve" smooth="yes"/>
		</contour>
	</outline>
</glyph>
<glyph name="endash" format="2">
	<unicode hex="2013"/>
	<advance width="1138"/>
	<outline>
		<contour>
			<point x="1120" y="504" type="line"/>
			<point x="1120" y="560" type="line"/>
			<point x="16" y="560" type="line"/>
			<point x="16" y="504" type="line"/>
		</contour>
	</outline>
</glyph>
<glyph name="emdash" format="2">
	<unicode hex="2014"/>
	<advance width="1138"/>
	<outline>
		<contour>
			<point x="1122" y="252" type="line"/>
			<point x="1122" y="280" type="line"/>
			<point x="16" y="280" type="line"/>
			<point x="16" y="252" type="line"/>
		</contour>
	</outline>
</glyph>
<glyph name="quoteleft" format="2">
  <advance width="323"/>
  <unicode hex="2018"/>
  <outline>
    <contour>
      <point x="162" y="385" type="curve" smooth="yes"/>
      <point x="200" y="385"/>
      <point x="219" y="415"/>
      <point x="219" y="442" type="curve" smooth="yes"/>
      <point x="219" y="470"/>
      <point x="201" y="500"/>
      <point x="161" y="500" type="curve" smooth="yes"/>
      <point x="133" y="500"/>
      <point x="124" y="490"/>
      <point x="117" y="481" type="curve"/>
      <point x="117" y="513"/>
      <point x="117" y="595"/>
      <point x="196" y="665" type="curve" smooth="yes"/>
      <point x="203" y="671"/>
      <point x="205" y="674"/>
      <point x="205" y="679" type="curve" smooth="yes"/>
      <point x="205" y="685"/>
      <point x="198" y="694"/>
      <point x="191" y="694" type="curve" smooth="yes"/>
      <point x="179" y="694"/>
      <point x="89" y="617"/>
      <point x="89" y="494" type="curve" smooth="yes"/>
      <point x="89" y="435"/>
      <point x="113" y="385"/>
    </contour>
  </outline>
</glyph>
<glyph name="quoteright" format="2">
	<unicode hex="2019"/>
	<advance width="646"/>
	<outline>
		<contour>
			<point x="264" y="770" type="curve" smooth="yes"/>
			<point x="288" y="770"/>
			<point x="468" y="924"/>
			<point x="468" y="1170" type="curve" smooth="yes"/>
			<point x="468" y="1288"/>
			<point x="420" y="1388"/>
			<point x="322" y="1388" type="curve" smooth="yes"/>
			<point x="246" y="1388"/>
			<point x="208" y="1328"/>
			<point x="208" y="1274" type="curve" smooth="yes"/>
			<point x="208" y="1218"/>
			<point x="244" y="1158"/>
			<point x="324" y="1158" type="curve" smooth="yes"/>
			<point x="380" y="1158"/>
			<point x="398" y="1178"/>
			<point x="412" y="1196" type="curve"/>
			<point x="412" y="1132"/>
			<point x="412" y="968"/>
			<point x="254" y="828" type="curve" smooth="yes"/>
			<point x="240" y="816"/>
			<point x="236" y="810"/>
			<point x="236" y="800" type="curve" smooth="yes"/>
			<point x="236" y="788"/>
			<point x="250" y="770"/>
		</contour>
	</outline>
</glyph>
<glyph name="quotedblleft" format="2">
	<unicode hex="201C"/>
	<advance width="569"/>
	<outline>
		<contour>
			<point x="251" y="385" type="curve" smooth="yes"/>
			<point x="289" y="385"/>
			<point x="308" y="415"/>
			<point x="308" y="442" type="curve" smooth="yes"/>
			<point x="308" y="470"/>
			<point x="290" y="500"/>
			<point x="250" y="500" type="curve" smooth="yes"/>
			<point x="222" y="500"/>
			<point x="213" y="490"/>
			<point x="206" y="481" type="curve"/>
			<point x="206" y="513"/>
			<point x="206" y="595"/>
			<point x="285" y="665" type="curve" smooth="yes"/>
			<point x="292" y="671"/>
			<point x="294" y="674"/>
			<point x="294" y="679" type="curve" smooth="yes"/>
			<point x="294" y="685"/>
			<point x="287" y="694"/>
			<point x="280" y="694" type="curve" smooth="yes"/>
			<point x="268" y="694"/>
			<point x="178" y="617"/>
			<point x="178" y="494" type="curve" smooth="yes"/>
			<point x="178" y="435"/>
			<point x="202" y="385"/>
		</contour>
		<contour>
			<point x="466" y="385" type="curve" smooth="yes"/>
			<point x="504" y="385"/>
			<point x="523" y="415"/>
			<point x="523" y="442" type="curve" smooth="yes"/>
			<point x="523" y="470"/>
			<point x="505" y="500"/>
			<point x="465" y="500" type="curve" smooth="yes"/>
			<point x="437" y="500"/>
			<point x="428" y="490"/>
			<point x="421" y="481" type="curve"/>
			<point x="421" y="513"/>
			<point x="421" y="595"/>
			<point x="500" y="665" type="curve" smooth="yes"/>
			<point x="507" y="671"/>
			<point x="509" y="674"/>
			<point x="509" y="679" type="curve" smooth="yes"/>
			<point x="509" y="685"/>
			<point x="502" y="694"/>
			<point x="495" y="694" type="curve" smooth="yes"/>
			<point x="483" y="694"/>
			<point x="393" y="617"/>
			<point x="393" y="494" type="curve" smooth="yes"/>
			<point x="393" y="435"/>
			<point x="417" y="385"/>
		</contour>
	</outline>
</glyph>
<glyph name="quotedblright" format="2">
	<unicode hex="201D"/>
	<advance width="1138"/>
	<outline>
		<contour>
			<point x="146" y="770" type="curve" smooth="yes"/>
			<point x="170" y="770"/>
			<point x="350" y="924"/>
			<point x="350" y="1170" type="curve" smooth="yes"/>
			<point x="350" y="1288"/>
			<point x="302" y="1388"/>
			<point x="204" y="1388" type="curve" smooth="yes"/>
			<point x="128" y="1388"/>
			<point x="90" y="1328"/>
			<point x="90" y="1274" type="curve" smooth="yes"/>
			<point x="90" y="1218"/>
			<point x="126" y="1158"/>
			<point x="206" y="1158" type="curve" smooth="yes"/>
			<point x="262" y="1158"/>
			<point x="280" y="1178"/>
			<point x="294" y="1196" type="curve"/>
			<point x="294" y="1132"/>
			<point x="294" y="968"/>
			<point x="136" y="828" type="curve" smooth="yes"/>
			<point x="122" y="816"/>
			<point x="118" y="810"/>
			<point x="118" y="800" type="curve" smooth="yes"/>
			<point x="118" y="788"/>
			<point x="132" y="770"/>
		</contour>
		<contour>
			<point x="576" y="770" type="curve" smooth="yes"/>
			<point x="600" y="770"/>
			<point x="780" y="924"/>
			<point x="780" y="1170" type="curve" smooth="yes"/>
			<point x="780" y="1288"/>
			<point x="732" y="1388"/>
			<point x="634" y="1388" type="curve" smooth="yes"/>
			<point x="558" y="1388"/>
			<point x="520" y="1328"/>
			<point x="520" y="1274" type="curve" smooth="yes"/>
			<point x="520" y="1218"/>
			<point x="556" y="1158"/>
			<point x="636" y="1158" type="curve" smooth="yes"/>
			<point x="692" y="1158"/>
			<point x="710" y="1178"/>
			<point x="724" y="1196" type="curve"/>
			<point x="724" y="1132"/>
			<point x="724" y="968"/>
			<point x="566" y="828" type="curve" smooth="yes"/>
			<point x="552" y="816"/>
			<point x="548" y="810"/>
			<point x="548" y="800" type="curve" smooth="yes"/>
			<point x="548" y="788"/>
			<point x="562" y="770"/>
		</contour>
	</outline>
</glyph>
<glyph name="a.alt" format="2">
  <advance width="569"/>
  <outline>
    <contour>
      <point x="55" y="101" type="curve" smooth="yes"/>
      <point x="55" y="15"/>
      <point x="159" y="-10"/>
      <point x="230" y="-10" type="curve" smooth="yes"/>
      <point x="311" y="-10"/>
      <point x="361" y="35"/>
      <point x="380" y="78" type="curve"/>
      <point x="380" y="28"/>
      <point x="403" y="0"/>
      <point x="462" y="0" type="curve" smooth="yes"/>
      <point x="476.652" y="0.0"/>
      <point x="491.304" y="0.0"/>
      <point x="506" y="0" type="curve" smooth="yes"/>
      <point x="526" y="0"/>
      <point x="533" y="2"/>
      <point x="533" y="14" type="curve" smooth="yes"/>
      <point x="533" y="27"/>
      <point x="528" y="29"/>
      <point x="490" y="29" type="curve" smooth="yes"/>
      <point x="446" y="29"/>
      <point x="446" y="42"/>
      <point x="446" y="68" type="curve" smooth="yes"/>
      <point x="446" y="268" type="line" smooth="yes"/>
      <point x="446" y="321"/>
      <point x="446" y="359"/>
      <point x="400" y="396" type="curve" smooth="yes"/>
      <point x="359" y="430"/>
      <point x="311" y="446"/>
      <point x="252" y="446" type="curve" smooth="yes"/>
      <point x="157" y="446"/>
      <point x="90" y="410"/>
      <point x="90" y="349" type="curve" smooth="yes"/>
      <point x="90" y="317"/>
      <point x="112" y="300"/>
      <point x="138" y="300" type="curve" smooth="yes"/>
      <point x="165" y="300"/>
      <point x="185" y="320"/>
      <point x="185" y="347" type="curve" smooth="yes"/>
      <point x="185" y="364"/>
      <point x="177" y="385"/>
      <point x="150" y="393" type="curve"/>
      <point x="186" y="418"/>
      <point x="244" y="418"/>
      <point x="250" y="418" type="curve" smooth="yes"/>
      <point x="306" y="418"/>
      <point x="367" y="381"/>
      <point x="367" y="297" type="curve" smooth="yes"/>
      <point x="367" y="266" type="line"/>
      <point x="312" y="264"/>
      <point x="246" y="261"/>
      <point x="173" y="234" type="curve" smooth="yes"/>
      <point x="83" y="201"/>
      <point x="55" y="146"/>
    </contour>
    <contour>
      <point x="367" y="141" type="line" smooth="yes"/>
      <point x="367.0" y="95.60448"/>
      <point x="348.2170929004" y="65.63777654609999"/>
      <point x="323.6568788614751" y="46.65895299820606" type="curve" smooth="yes"/>
      <point x="296.2784754391" y="25.50238299629999"/>
      <point x="261.72085000000004" y="17.999999999999993"/>
      <point x="238" y="18" type="curve" smooth="yes"/>
      <point x="187" y="18"/>
      <point x="139" y="52"/>
      <point x="139" y="101" type="curve" smooth="yes"/>
      <point x="139" y="156"/>
      <point x="187" y="233"/>
      <point x="367" y="240" type="curve"/>
    </contour>
  </outline>
</glyph>
<glyph name="dotlessj" format="2">
	<advance width="708"/>
	<outline>
		<contour>
			<point x="336" y="676" type="curve" smooth="yes"/>
			<point x="336" y="-96" type="line" smooth="yes"/>
			<point x="336" y="-172"/>
			<point x="320" y="-352"/>
			<point x="186" y="-352" type="curve" smooth="yes"/>
			<point x="180" y="-352"/>
			<point x="132" y="-352"/>
			<point x="86" y="-332" type="curve"/>
			<point x="90" y="-330"/>
			<point x="136" y="-306"/>
			<point x="136" y="-246" type="curve" smooth="yes"/>
			<point x="136" y="-192"/>
			<point x="96" y="-152"/>
			<point x="42" y="-152" type="curve" smooth="yes"/>
			<point x="-16" y="-152"/>
			<point x="-54" y="-192"/>
			<point x="-54" y="-248" type="curve" smooth="yes"/>
			<point x="-54" y="-356"/>
			<point x="66" y="-408"/>
			<point x="188" y="-408" type="curve" smooth="yes"/>
			<point x="350" y="-408"/>
			<point x="486" y="-282"/>
			<point x="486" y="-92" type="curve" smooth="yes"/>
			<point x="486" y="882" type="line"/>
			<point x="170" y="860" type="line"/>
			<point x="170" y="788" type="line"/>
			<point x="318" y="788"/>
			<point x="336" y="774"/>
		</contour>
	</outline>
</glyph>
